<svg xmlns="http://www.w3.org/2000/svg" width="262.033" height="262.034" viewBox="0 0 262.03299 262.034" enable-background="new 0 0 720 540"><path d="M139.01 111.108c-1.1.735-2.238 1.248-3.41 1.54-2.2.735-4.585 1.54-7.15 2.42-2.566.88-4.95 1.688-7.15 2.42-2.64.88-5.134 1.76-7.48 2.64-1.76.736-3.447 1.836-5.06 3.3-1.32 1.176-2.53 2.678-3.63 4.51-1.1 1.836-1.65 4.146-1.65 6.93v46.642c.146 1.908.55 3.74 1.21 5.5.66 1.76 1.685 3.3 3.08 4.62 1.393 1.32 3.3 2.384 5.72 3.188 2.42.81 5.39 1.21 8.91 1.21 3.666 0 6.71-.4 9.13-1.21 2.42-.803 4.325-1.87 5.72-3.19 1.394-1.318 2.383-2.784 2.97-4.398.586-1.612.88-3.152.88-4.62V107.588c-.295 1.616-.99 2.788-2.09 3.52z" fill="#017f85"/><path d="M131.017 35C77.987 35 35 77.988 35 131.017c0 53.03 42.987 96.017 96.016 96.017 53.03 0 96.017-42.99 96.017-96.017 0-53.03-42.987-96.017-96.016-96.017zM159.8 185.91c-.147 7.63-3.228 13.97-9.24 19.03-6.015 5.06-15.4 7.59-28.16 7.59-6.6 0-12.286-.696-17.05-2.09-4.768-1.394-8.69-3.302-11.77-5.722-3.08-2.42-5.318-5.24-6.71-8.47-1.395-3.226-2.09-6.674-2.09-10.34v-55.002c0-5.572 1.43-10.63 4.29-15.18 2.86-4.543 7.002-7.77 12.43-9.68 2.64-.88 5.645-1.903 9.02-3.08 3.372-1.17 6.6-2.31 9.68-3.41s5.792-2.09 8.14-2.97c2.344-.88 3.812-1.39 4.4-1.54.584-.29 1.354-.693 2.31-1.21.952-.51 1.87-1.28 2.75-2.31.88-1.023 1.65-2.2 2.31-3.52.66-1.32.99-2.86.99-4.62v-32.34h18.7V185.91z" fill="#017f85"/></svg>