<svg xmlns="http://www.w3.org/2000/svg" width="200" height="190.5" viewBox="0 0 200 190.5"><path fill="#007E83" d="M180 45.58c-5.9 2.61-12.207 4.372-18.852 5.187 6.78-4.07 12-10.512 14.443-18.174-6.34 3.764-13.357 6.51-20.85 7.968-6.002-6.408-14.547-10.407-23.972-10.407-18.14 0-32.82 14.713-32.82 32.854 0 2.577.272 5.086.847 7.493-27.292-1.356-51.5-14.443-67.673-34.346-2.815 4.85-4.442 10.51-4.442 16.51 0 11.393 5.798 21.463 14.613 27.363-5.39-.136-10.477-1.628-14.885-4.103v.406c0 15.936 11.325 29.192 26.346 32.21-2.747.746-5.662 1.152-8.646 1.152-2.103 0-4.17-.203-6.17-.61 4.168 13.054 16.307 22.547 30.683 22.82-11.22 8.814-25.395 14.068-40.788 14.068-2.644 0-5.255-.168-7.832-.474 14.512 9.426 31.77 14.85 50.283 14.85 60.418 0 93.442-50.077 93.442-93.51 0-1.424-.034-2.848-.103-4.237 6.408-4.645 11.97-10.443 16.378-17.02z"/></svg>