<?xml version="1.0" encoding="utf-8"?>
<!-- Generator: Adobe Illustrator 16.0.0, SVG Export Plug-In . SVG Version: 6.00 Build 0)  -->
<!DOCTYPE svg PUBLIC "-//W3C//DTD SVG 1.1//EN" "http://www.w3.org/Graphics/SVG/1.1/DTD/svg11.dtd">
<svg version="1.1" id="Layer_1" xmlns="http://www.w3.org/2000/svg" xmlns:xlink="http://www.w3.org/1999/xlink" x="0px" y="0px"
	 width="140.667px" height="170.5px" viewBox="0 0 140.667 170.5" enable-background="new 0 0 140.667 170.5" xml:space="preserve">
<g>
	<g>
		<path fill="#007E84" d="M128.289,85.621l8.043-8.031l-8.816-7.161l5.688-9.829l-10.367-4.642l2.942-10.968l-11.202-1.793
			l0.004-11.366l-11.307,1.171l-2.919-10.972l-10.615,4.045l-5.675-9.836l-9.206,6.667l-8.012-8.053l-7.171,8.82l-9.829-5.688
			l-4.635,10.372L34.238,25.4l-1.792,11.225l-11.371-0.017l0.77,7.365l50.394-0.003v4.54H20.015l-8.74,2.334l4.052,10.615
			l-9.838,5.66l6.669,9.206L4.107,84.34l8.82,7.164l-5.699,9.832l10.389,4.637l-2.964,10.979l11.213,1.792l-0.014,11.359
			l11.308-1.164l2.923,10.978l10.619-4.054l5.675,9.847l9.203-6.67l8.013,8.044l7.16-8.811l9.844,5.687l4.631-10.375l10.979,2.957
			L108,125.318l11.358,0.014l-1.172-11.305l10.983-2.928l-4.058-10.61l9.847-5.675L128.289,85.621z M56.616,127.359l-1.454,4.078
			l-2.84-4.965l-4.268-7.232l3.967-2.211l2.92,5.885l10.166-16.684L56.616,127.359z M101.083,117.914H72.721v-4.54h28.362V117.914z
			 M101.272,100.908H45.511v-4.54h55.766v4.54H101.272z M101.453,88.046H45.694v-4.541h55.759V88.046z M101.559,75.229H45.593
			v-4.541h55.966V75.229z M101.638,62.64H45.504v-4.541h56.138v4.541H101.638z"/>
	</g>
</g>
</svg>
