<?xml version="1.0" encoding="utf-8"?>
<!-- Generator: Adobe Illustrator 16.0.0, SVG Export Plug-In . SVG Version: 6.00 Build 0)  -->
<!DOCTYPE svg PUBLIC "-//W3C//DTD SVG 1.1//EN" "http://www.w3.org/Graphics/SVG/1.1/DTD/svg11.dtd">
<svg version="1.1" id="Layer_1" xmlns="http://www.w3.org/2000/svg" xmlns:xlink="http://www.w3.org/1999/xlink" x="0px" y="0px"
	 width="168px" height="169px" viewBox="0 0 168 169" enable-background="new 0 0 168 169" xml:space="preserve">
<path opacity="0.7" fill="#007E84" enable-background="new    " d="M47.458,74.624H26.746c-0.269-3.505-3.243-6.267-6.88-6.267
	c-3.815,0-6.906,3.036-6.906,6.783s3.091,6.783,6.906,6.783c3.637,0,6.61-2.762,6.88-6.266h20.712V74.624z"/>
<path opacity="0.7" fill="#007E84" enable-background="new    " d="M47.458,108.029H31.429c-0.264-2.31-2.235-4.108-4.657-4.108
	c-2.602,0-4.71,2.069-4.71,4.626c0,2.556,2.108,4.626,4.71,4.626c2.423,0,4.395-1.802,4.658-4.109h16.028V108.029z"/>
<path opacity="0.7" fill="#007E84" enable-background="new    " d="M149.774,103.76c-3.638,0-6.611,2.764-6.881,6.27h-24.77v1.032
	h24.77c0.27,3.505,3.243,6.267,6.881,6.267c3.813,0,6.906-3.037,6.906-6.782C156.681,106.797,153.588,103.76,149.774,103.76z"/>
<path opacity="0.7" fill="#007E84" enable-background="new    " d="M145.917,52.785c-3.637,0-6.609,2.762-6.881,6.267h-20.912v1.033
	h20.912c0.271,3.505,3.244,6.268,6.882,6.268c3.813,0,6.905-3.036,6.905-6.783C152.823,55.822,149.731,52.785,145.917,52.785z"/>
<path opacity="0.7" fill="#007E84" enable-background="new    " d="M135.122,90.804c-2.422,0-4.393,1.8-4.657,4.108h-12.341v1.035
	h12.341c0.267,2.31,2.235,4.108,4.657,4.108c2.603,0,4.711-2.069,4.711-4.625C139.833,92.874,137.725,90.804,135.122,90.804z"/>
<path opacity="0.7" fill="#007E84" enable-background="new    " d="M61.299,141.189v-12.566h-1.033v12.562
	c-2.356,0.258-4.194,2.191-4.194,4.574c0,2.559,2.107,4.627,4.71,4.627c2.602,0,4.711-2.068,4.711-4.627
	C65.492,143.381,63.654,141.445,61.299,141.189z"/>
<path opacity="0.7" fill="#007E84" enable-background="new    " d="M80.061,145.564v-16.939h-1.033v16.939
	c-3.573,0.262-6.391,3.184-6.391,6.76c0,3.746,3.092,6.783,6.907,6.783c3.813,0,6.905-3.037,6.905-6.783
	C86.449,148.746,83.633,145.824,80.061,145.564z"/>
<path opacity="0.7" fill="#007E84" enable-background="new    " d="M103.189,134.086v-5.463h-1.033v5.463
	c-2.355,0.256-4.193,2.193-4.193,4.576c0,2.555,2.107,4.625,4.71,4.625c2.601,0,4.71-2.07,4.71-4.625
	C107.382,136.279,105.544,134.342,103.189,134.086z"/>
<g>
	<rect x="91.241" y="71.627" fill="#007E84" width="12.318" height="12.746"/>
	<rect x="91.241" y="42.627" fill="#007E84" width="12.318" height="12.745"/>
	<path fill="#007E84" d="M47.458,27.243v101.38h71.205V27.243H47.458z M88.683,39.909h17.453V57.79H88.683V39.909z M58.81,42.984
		c2.855,0.145,5.939,0.543,9.265,1.295c4.151,0.582,6.102,1.189,11.851,0.449l0.723,3.208c-4.602,1.284-9.06,0.131-13.484-0.619
		c-2.908-0.636-5.732-0.942-8.418-1.019L58.81,42.984z M79.378,82.002c-4.634,0.758-11.177,1.827-19.487,0.468l0.442-3.309
		c8.026,1.136,14.965,0.071,18.858-0.566l0.381-0.062L79.378,82.002z M79.544,100.265l-0.405,3.312
		c-8.038-1.041-14.965,0.104-18.85,0.787l-0.382,0.065l0.155-3.471C64.688,100.146,71.218,99.002,79.544,100.265z M59.907,74.761
		v-3.102h19.666v3.102H59.907z M59.907,55.206v-3.101h19.666v3.101H59.907z M71.471,111.836c-4.19-0.12-6.196-0.508-11.828,0.865
		l-1.072-3.107c4.43-1.786,8.988-1.135,13.469-0.879c2.962,0.311,5.802,0.302,8.479,0.078l0.306,3.302
		C77.967,112.268,74.859,112.213,71.471,111.836z M88.683,68.991h17.453v17.882H88.683V68.991z M110.318,90.099
		c0,0-0.992,2.552-2.631,6.308c-1.627,3.767-3.8,8.779-6.296,13.67c-0.632,1.244-1.271,2.487-1.894,3.711
		c-0.327,0.638-0.657,1.271-0.979,1.896l-0.017,0.027l-0.217,0.276l-0.035,0.049c-0.322,0.384-0.954,0.822-1.482,0.959
		c-0.553,0.187-1.173,0.179-1.646,0.082c-0.432-0.094-0.812-0.266-1.014-0.383c-0.912-0.565-1.052-0.867-1.313-1.135
		c-0.437-0.523-0.642-0.88-0.863-1.238c-0.805-1.396-1.239-2.58-1.524-3.797c-0.303-1.191-0.475-2.324-0.574-3.38
		c-0.211-2.11-0.1-3.92,0.066-5.208c0.156-1.285,0.402-2.051,0.402-2.051c0.062-0.202,0.275-0.312,0.479-0.248
		c0.055,0.018,0.104,0.05,0.143,0.084c0,0,0.586,0.55,1.378,1.555c0.8,1.006,1.825,2.463,2.812,4.246
		c0.496,0.889,0.991,1.861,1.453,2.875c0.006,0.012,0.01,0.023,0.016,0.034c0.205-0.292,0.414-0.583,0.623-0.867
		c3.06-4.438,6.219-8.891,8.586-12.226c2.345-3.35,3.97-5.557,3.97-5.557c0.104-0.146,0.312-0.174,0.452-0.069
		C110.33,89.807,110.373,89.965,110.318,90.099z"/>
</g>
</svg>
