<?xml version="1.0" encoding="utf-8"?>
<!-- Generator: Adobe Illustrator 16.0.0, SVG Export Plug-In . SVG Version: 6.00 Build 0)  -->
<!DOCTYPE svg PUBLIC "-//W3C//DTD SVG 1.1//EN" "http://www.w3.org/Graphics/SVG/1.1/DTD/svg11.dtd">
<svg version="1.1" id="Layer_1" xmlns="http://www.w3.org/2000/svg" xmlns:xlink="http://www.w3.org/1999/xlink" x="0px" y="0px"
	 width="140.5px" height="170.5px" viewBox="0 0 140.5 170.5" enable-background="new 0 0 140.5 170.5" xml:space="preserve">
<g>
	<path fill="#007E84" d="M89.426,65.213c4.571-2.956,8.024-7.078,8.423-10.293c0.171-1.351-0.034-3.309-3.745-4.711
		c-1.103-0.416-2.407-0.788-3.553-0.788c-0.864,0-1.641,0.21-2.182,0.767c-2.375,2.466-0.967,10.479-0.089,12.574
		c0.17,0.391,0.343,0.744,0.515,1.077C89.01,64.267,89.232,64.717,89.426,65.213z"/>
	<path fill="#007E84" d="M74.272,43.289c-0.697-0.956-2.181-1.444-4.289-1.444c-1.023,0-2.188,0.113-3.488,0.347
		c-4.866,0.868-5.435,3.569-5.436,5.523c-0.008,4.098,2.845,9.311,6.731,13.549c1.569-2.039,3.066-4.319,4.324-6.703
		C74.803,49.468,75.63,45.149,74.272,43.289z"/>
	<path fill="#007E84" d="M41.287,51.337c-4.076,1.2-3.798,3.391-3.693,4.216c0.411,3.213,3.85,7.282,8.322,10.278
		c0.177-1.021,0.463-1.972,0.868-2.825c1.036-2.185,2.858-8.991,0.832-11.359c-0.589-0.688-1.562-0.937-2.66-0.937
		C43.768,50.709,42.438,50.999,41.287,51.337z"/>
	<path fill="#007E84" d="M90.031,77.407c-1.121-1.395-2.336-3.796-3.223-5.927c-2.162,0.904-4.389,1.529-6.558,1.774
		c-0.413,0.051-0.821-0.002-1.432-0.114c-3.535-0.644-7.274-2.712-10.655-5.549c-3.604,3.897-7.684,6.889-10.987,6.756
		c-2.092-0.067-4.275-0.511-6.436-1.25c1.269,4.263,4.146,8.615,8.081,10.627c13.905,7.11,13.172,17.832,12.396,29.186
		c-0.224,3.28-0.439,6.661-0.361,10.152h19.566l1.311-19.359c6.633-6.883,14.654-15.164,20.267-24.609
		c-0.608,0.439-1.21,0.873-1.822,1.273C103.217,84.894,95.121,83.705,90.031,77.407z"/>
	<path fill="#007E84" d="M68.736,7.074c-27.729,0-50.208,22.133-50.208,49.439c0,18.995,13.415,31.048,26.831,47.004l1.794,19.547
		h19.324c-0.072-3.641,0.145-7.097,0.375-10.454c0.761-11.143,1.315-19.199-10.019-24.988c-6.152-3.144-10.105-10.292-10.954-16.685
		c-6.523-3.594-11.939-9.457-12.624-14.828c-0.544-4.266,1.932-7.536,6.796-8.967c5.022-1.476,8.686-0.917,10.89,1.66
		c4.483,5.248-0.153,15.971-0.206,16.077c-0.435,0.919-0.667,2.028-0.708,3.248c2.398,1.081,4.905,1.772,7.285,1.849
		c1.62-0.007,4.589-2.071,7.673-5.388c-4.823-5.112-8.312-11.579-8.306-16.88c0.008-5.217,3.304-8.799,9.043-9.823
		c5.883-1.047,9.94-0.1,12.083,2.824c3.148,4.317,0.748,11.025-1.823,15.894c-1.25,2.369-3.011,5.096-5.035,7.693
		c2.774,2.324,5.787,4.021,8.539,4.521c0.179,0.03,0.318,0.059,0.426,0.075c1.88-0.234,3.77-0.792,5.585-1.574
		c-0.064-0.417-0.275-0.846-0.611-1.513c-0.209-0.418-0.429-0.858-0.638-1.348c-0.621-1.483-3.698-12.454,0.976-17.305
		c1.605-1.664,4.719-3.193,10.428-1.035c4.677,1.765,7.055,5.171,6.542,9.34c-0.618,4.958-5.453,10.462-11.469,14.043
		c0.72,1.765,1.79,4.008,2.709,5.155c2.779,3.438,8.208,6.041,14.348,2.039c2.474-1.614,4.885-3.672,7.429-5.852
		c0.417-0.358,0.839-0.718,1.266-1.077c1.538-4.235,2.466-8.656,2.466-13.257C118.943,29.207,96.463,7.074,68.736,7.074z"/>
	<polygon fill="#007E84" points="48.009,132.377 89.793,132.377 90.125,127.438 47.555,127.438 	"/>
	<polygon fill="#007E84" points="48.861,141.674 89.163,141.674 89.495,136.755 48.41,136.755 	"/>
	<polygon fill="#007E84" points="49.676,150.55 54.264,152.716 55.345,158.281 59.157,159.367 61.316,163.963 78.07,163.963 
		80.235,159.367 82.915,158.281 83.995,152.716 88.49,151.628 88.864,146.052 49.265,146.052 	"/>
</g>
</svg>
