<?xml version="1.0" encoding="utf-8"?>
<!-- Generator: Adobe Illustrator 16.0.0, SVG Export Plug-In . SVG Version: 6.00 Build 0)  -->
<!DOCTYPE svg PUBLIC "-//W3C//DTD SVG 1.1//EN" "http://www.w3.org/Graphics/SVG/1.1/DTD/svg11.dtd">
<svg version="1.1" id="Layer_1" xmlns="http://www.w3.org/2000/svg" xmlns:xlink="http://www.w3.org/1999/xlink" x="0px" y="0px"
	 width="158px" height="152px" viewBox="0 0 158 152" enable-background="new 0 0 158 152" xml:space="preserve">
<path fill="#007E84" d="M76.366,53.862c-0.768-0.95-1.515-1.807-2.256-2.581c-0.059,0.323-0.046,0.666,0.002,1.086
	C74.195,53.1,75.025,53.962,76.366,53.862z"/>
<path fill="#007E84" d="M105.15,78.61l-0.248,0.226c-1.304,1.014-2.878,2.745-6.336,4.068c-6.018,2.301-9.29,2.742-17.579,4.705
	c-10.462,2.443-21.474,11.08-23.901,13.267l-2.557-3.136c3.089-2.785,12.067-10.656,25.728-14.057
	c6.484-1.617,12.053-2.535,16.668-4.262c3.68-1.378,4.812-2.747,5.896-3.707L86.087,48.838c-1.329-1.9-2.562-3.671-3.725-5.306
	l-1.468,2.315l-2.601-2.059l-2.442,2.25l-1.983-2.663l-2.945,1.541l-1.224-3.089l-3.244,0.727l-0.384-3.299l-3.315-0.133l0.484-3.29
	l-3.175-0.988l1.318-3.049l-1.184-0.75c-4.382,1.42-9.796,4.434-16.98,9.225l-1.711,1.142c-25.716,17.149-21.96,20.521-8.566,42.869
	l21.437,32.143c13.818,19.867,17.15,25.72,42.866,8.571l1.712-1.144C124.672,106.702,118.031,97.527,105.15,78.61z M41.266,78.841
	l12.354-8.642l2.38,3.402l-12.356,8.642L41.266,78.841z M50.502,92.463l-2.299-3.168l0.327-0.299
	c5.482-4.967,14.069-12.747,29.825-16.268c4.593-1.435,6.915-1.762,12.516-5.353l2.323,2.974c-4.143,3.59-9.332,4.583-14.293,5.978
	c-13.913,3.206-23.487,11.682-28.069,15.837L50.502,92.463z"/>
<path fill="#007E84" d="M91.686,29.873l2.264-1.689l-1.915-2.071l1.751-2.217L91.4,22.389l1.118-2.591l-2.692-0.843l0.405-2.792
	l-2.813-0.117l-0.332-2.804l-2.755,0.618l-1.04-2.621l-2.5,1.306l-1.686-2.261l-2.077,1.912l-2.209-1.752l-1.511,2.385l-2.591-1.119
	l-0.842,2.695l-2.792-0.41l-0.116,2.821l-2.805,0.326l0.086,2.968L62.16,20.94l1.309,2.499l-2.262,1.686l1.912,2.075l-1.752,2.211
	l2.384,1.511l-1.12,2.592l2.698,0.841l-0.412,2.794l2.817,0.116l0.326,2.804l2.758-0.617l1.04,2.625l2.502-1.311l1.688,2.264
	l2.074-1.914l2.209,1.751l1.511-2.382l2.595,1.115l0.839-2.691l2.796,0.408l0.115-2.82l2.804-0.326l-0.62-2.757l2.626-1.042
	L91.686,29.873z M74.717,19.519c-0.094-0.91-0.172-2.388,0.454-3.122c0.169-0.2,0.206-0.164,0.206-0.164l0.034-0.032
	c0.303-0.22,0.837-0.427,1.247-0.437c0.432-0.036,0.883,0.078,1.208,0.233c0.299,0.143,0.543,0.334,0.67,0.453
	c0.561,0.572,0.61,0.813,0.755,1.057c0.225,0.455,0.312,0.75,0.409,1.05c0.34,1.153,0.446,2.092,0.442,3.022
	c0.008,0.918-0.067,1.773-0.18,2.555c-0.215,1.572-0.617,2.866-0.963,3.771c-0.34,0.908-0.652,1.419-0.652,1.419
	c-0.082,0.136-0.255,0.178-0.392,0.096c-0.035-0.023-0.067-0.052-0.087-0.086c0,0-0.327-0.502-0.726-1.372
	c-0.406-0.867-0.896-2.11-1.295-3.579C75.641,23.66,74.813,20.414,74.717,19.519z M80.198,34.503
	c0.018,0.911-0.717,1.181-1.392,1.476c-1.674,0.588-2.731-0.398-2.82-1.192c-0.089-0.812-0.074-1.316,0.526-1.972
	c0.159-0.176,0.194-0.141,0.194-0.141l0.035-0.032c0.288-0.194,0.798-0.379,1.188-0.385c0.414-0.033,0.84,0.064,1.151,0.206
	c0.283,0.122,0.519,0.296,0.635,0.401C80.252,33.376,80.194,33.994,80.198,34.503z"/>
</svg>
