<?xml version="1.0" encoding="utf-8"?>
<!-- Generator: Adobe Illustrator 19.0.1, SVG Export Plug-In . SVG Version: 6.00 Build 0)  -->
<svg version="1.1" id="Layer_1" xmlns="http://www.w3.org/2000/svg" xmlns:xlink="http://www.w3.org/1999/xlink" x="0px" y="0px"
	 viewBox="-422 231 115 100" style="enable-background:new -422 231 115 100;" xml:space="preserve">
<style type="text/css">
	.st0{fill:#007E84;}
</style>
<path class="st0" d="M-397.8,253.5c-9.6,16.4-4.1,37.6,12.4,47.2c3.5,2,7.1,3.4,10.9,4.1l6.5-11.1c-3.9,0-7.9-1-11.5-3.1
	c-10.8-6.3-14.5-20.3-8.2-31.2c6.3-10.8,20.3-14.5,31.2-8.2c10.1,5.9,13.9,18.4,9.3,28.8l12.4,0.1c4.1-14.7-2-31-15.8-39
	C-367,231.6-388.2,237.1-397.8,253.5z"/>
<g>
	<path class="st0" d="M-331.5,311.2c-2.1-3.7-6.1-5.6-10-5.4l-16.5-28.5c2.5-3.7,2.8-8.6,0.4-12.8c-2.5-4.4-7.4-6.6-12.1-5.9
		l3.6,6.2c1.4,2.4,0.6,5.4-1.8,6.8c-2.4,1.4-5.4,0.6-6.8-1.8l-3.3-5.8c-2.4,3.7-2.7,8.6-0.3,12.6c2.4,4.1,6.8,6.3,11.3,6l16.7,28.9
		c-1.7,3.2-1.8,7.2,0.2,10.6c3,5.2,9.7,7,14.8,4C-330.3,323.1-328.5,316.4-331.5,311.2z M-337.5,322.8l-6.7,0l-3.4-5.8l3.3-5.8
		l6.7,0l3.4,5.8L-337.5,322.8z"/>
</g>
</svg>
