<?xml version="1.0" encoding="utf-8"?>
<!-- Generator: Adobe Illustrator 16.0.0, SVG Export Plug-In . SVG Version: 6.00 Build 0)  -->
<!DOCTYPE svg PUBLIC "-//W3C//DTD SVG 1.1//EN" "http://www.w3.org/Graphics/SVG/1.1/DTD/svg11.dtd">
<svg version="1.1" id="Layer_1" xmlns="http://www.w3.org/2000/svg" xmlns:xlink="http://www.w3.org/1999/xlink" x="0px" y="0px"
	 width="200px" height="170.5px" viewBox="7 0 200 170.5" enable-background="new 7 0 200 170.5" xml:space="preserve">
<path opacity="0.7" fill="#007E83" enable-background="new    " d="M187,36.012c-9.904,0.924-16.827-1.081-22.383-2.688
	c-6.138-1.778-9.334-1.714-13.294,0.216l-2.028-4.156c5.041-2.462,9.354-2.603,16.472-0.544c5.317,1.542,11.767,3.41,20.798,2.565
	c3.765-0.352,7.014-0.122,9.817,0.493V13.157h-53.893v8.329c1.604-0.651,3.251-1.332,4.991-2.05l0.537-0.222
	c8.994-3.719,15.298-1.975,21.396-0.284c5.542,1.536,11.281,3.125,19.903,0.976l1.114,4.491c-9.797,2.447-16.421,0.611-22.255-1.005
	c-5.833-1.614-10.871-3.013-18.391,0.097l-0.539,0.222c-2.367,0.979-4.59,1.894-6.757,2.757v15.98h25.577l-3.386,8.998l20.527-8.998
	h11.172v-5.826C193.904,35.955,190.823,35.652,187,36.012z"/>
<path fill="#007E83" d="M121.431,32.127c-0.607,0.034-1.207,0.093-1.81,0.093c-3.96,0-7.893-0.742-12.033-2.456
	c-1.016-0.417-2.111-0.969-3.285-1.562c-6.151-3.096-13.124-6.607-22.456,1.2l-2.964-3.551c11.665-9.764,21.2-4.958,27.499-1.78
	c1.068,0.536,2.059,1.038,2.972,1.417c4.118,1.705,8.019,2.274,12.077,2.021V5.977H70.732v13.766
	c0.101-0.088,0.195-0.166,0.29-0.258c12.962-12.142,30.688-9.757,42.515-2.005l-2.538,3.872
	c-10.308-6.759-25.688-8.912-36.806,1.509c-1.164,1.088-2.315,2.046-3.459,2.904V36.75h11.63l13.717,12l-0.502-12h25.852V32.127z"/>
<path opacity="0.8" fill="#007E83" enable-background="new    " d="M23.237,38.953c2.796,1.511,4.337,2.34,10.072-4.074
	c4.574-5.119,10.093-5.807,15.939-6.534c2.998-0.375,6.047-0.759,9.2-1.72v-2.894H11.617v14.207
	C17.325,35.8,20.661,37.569,23.237,38.953z"/>
<path opacity="0.8" fill="#007E83" enable-background="new    " d="M58.447,31.418c-3.085,0.82-5.983,1.19-8.63,1.518
	c-5.388,0.673-9.638,1.201-13.06,5.027c-4.535,5.078-7.749,6.714-10.517,6.714c-1.842,0-3.487-0.726-5.197-1.649
	c-2.356-1.266-4.605-2.459-9.427-0.065v6.269h10.746l14.839,12.395l-2.634-12.395h23.879V31.418z"/>
<path fill="#007E83" d="M142.228,137.749c0,13.461,5.717,24.392-17.278,24.392H91.708c-25.769,0-18.412-10.931-18.412-24.392l0,0
	c0-13.472,0.548-23.093,16.776-22.587c0,0,6.872,7.805,18.78,8.137c8.469,0.23,16.703-8.137,16.703-8.137
	C139.466,115.162,142.863,123.296,142.228,137.749L142.228,137.749z"/>
<path fill="#007E83" d="M130.896,90.572c0,5.256-0.315,8.936-0.938,16.005c-0.167,1.921-5.803,1.255-7.125,2.562
	c-4.261,4.236-9.588,6.826-14.369,6.826c-5.236,0-11.116-3.094-15.538-8.051c-0.873-0.979-6.881,0.01-6.881-1.337
	c0-7.517,0-10.745,0-16.005c0-14.03,7.945-25.396,22.421-25.396C122.816,65.176,130.896,76.543,130.896,90.572z"/>
<path opacity="0.7" fill="#007E83" enable-background="new    " d="M145.89,134.4c0.075,2.814,0.249,5.436,0.195,8.229
	c-0.004,0.229,0.454,5.567,0.683,5.567h29.414c21.074,0,16.294-10.112,16.294-22.593l0,0c0-10.507,1.495-18.143-5.388-20.288
	c-0.651-0.197,4.661-2.835-1.736-7.265c-6.822-4.744-3.92,3.322-6.571,6.992c0,0-1.698,4.113-4.982,9.064
	c-7.636,11.534-8.869,23.28-10.363,20.646c-0.717-1.245-4.502-11.865-10.231-18.359c-3.558-4.023-5.711-7.483-8.21-10.425
	c-3.814-4.484,0.843-10.612-2.68-10.13c-3.874,0.533-5.969,2.637-6.291,3.049c-3.007,3.896,0.619,6.186-0.039,6.343
	c-4.455,1.023-5.206,3.802-5.069,8.546c0,0,3.831,0.487,7.464,2.515C142.577,118.654,145.59,122.235,145.89,134.4z"/>
<path opacity="0.7" fill="#007E83" enable-background="new    " d="M146.569,81.375c0.028,0.709,0.097,1.4,0.193,2.086
	c0.516,3.424,1.717,6.582,3.602,9.227c3.771,5.289,9.156,8.713,14.059,8.508c4.905-0.205,10.377-3.987,13.689-9.529
	c2.01-3.369,3.024-8.018,2.849-12.273c0,0,0.617-0.068,2.093-0.521c4.486-1.375,10.474-2.754,7.762-5.897
	c-2.208-2.57-7.34-1.909-8.56-1.776c-1.349,0.158-2.46,0.314-2.46,0.314c-3.15-7.08-9.163-11.586-17.645-10.566
	c-11.069,1.317-16.043,8.742-16.31,19.137C145.829,80.729,146.539,80.712,146.569,81.375z"/>
<path opacity="0.8" fill="#007E83" enable-background="new    " d="M40.278,82.354c0,10.143,9.229,18.367,16.664,18.367
	c7.457,0,16.663-8.225,16.663-18.367s-5.906-18.369-16.663-18.369C46.283,63.988,40.278,72.211,40.278,82.354z"/>
<path opacity="0.8" fill="#007E83" enable-background="new    " d="M81.518,106.577c-0.819-1.173-6.043-4.212-11.95-4.212
	c0,0-2.118,3.325-3.854,6.375c-0.766,1.33-2.615-0.655-5.127-2c-0.719,1.75-1.475,2.812-3.234,2.812h-0.818
	c-1.716,0-2.651-1.023-3.203-2.692c-2.66,1.468-5.045,3.579-5.739,1.874c-1.255-3.05-2.892-6.372-2.892-6.372
	c-12.142,0-15.997,7.645-15.997,18.891c0,11.256-2.624,20.392,9.504,20.392h29.916l0.256-12.749
	c0.249-11.424,9.306-15.66,11.291-16.486c1.488-0.627,3.575-1.05,3.575-1.05C83.243,109.473,82.588,108.122,81.518,106.577z
	 M56.938,137.526l-4.308-4.539l2.105-21.942h4.331l2.182,21.942L56.938,137.526z"/>
</svg>
