<?xml version="1.0" encoding="utf-8"?>
<!-- Generator: Adobe Illustrator 16.0.0, SVG Export Plug-In . SVG Version: 6.00 Build 0)  -->
<!DOCTYPE svg PUBLIC "-//W3C//DTD SVG 1.1//EN" "http://www.w3.org/Graphics/SVG/1.1/DTD/svg11.dtd">
<svg version="1.1" id="Layer_1" xmlns="http://www.w3.org/2000/svg" xmlns:xlink="http://www.w3.org/1999/xlink" x="0px" y="0px"
	 width="125px" height="166px" viewBox="0 0 125 166" enable-background="new 0 0 125 166" xml:space="preserve">
<path fill="#007E84" d="M91.385,63.429l4.636-3.453l-3.916-4.246l3.583-4.536l-4.879-3.091l2.287-5.304l-5.512-1.727l0.83-5.715
	l-5.764-0.238l-0.676-5.741l-5.643,1.267l-2.127-5.368l-5.121,2.675l-3.451-4.63l-4.252,3.916l-4.526-3.59l-3.098,4.882
	l-5.303-2.287l-1.724,5.516l-5.717-0.842l-0.236,5.777l-5.745,0.669l0.176,6.074l-4.275,1.7l2.678,5.121l-4.631,3.445l3.916,4.251
	l-3.589,4.527l4.882,3.094l-2.293,5.305l5.523,1.723l-0.843,5.723l5.771,0.236l0.669,5.739l5.643-1.262l2.131,5.37l5.121-2.681
	l3.453,4.636l4.251-3.917l4.526,3.584l3.092-4.877l5.311,2.287l1.722-5.518l5.721,0.84l0.238-5.775l5.735-0.67l-1.266-5.641
	l5.374-2.134L91.385,63.429z M75.008,43.531c0,0-0.993,2.554-2.633,6.312c-1.629,3.769-3.803,8.787-6.301,13.681
	c-0.633,1.245-1.271,2.49-1.895,3.714c-0.328,0.638-0.658,1.271-0.981,1.896l-0.016,0.029l-0.217,0.276l-0.035,0.05
	c-0.323,0.382-0.956,0.822-1.484,0.96c-0.554,0.186-1.174,0.177-1.646,0.08c-0.433-0.093-0.813-0.265-1.015-0.382
	c-0.912-0.567-1.053-0.867-1.316-1.136c-0.437-0.524-0.642-0.881-0.864-1.24c-0.804-1.396-1.24-2.583-1.525-3.799
	c-0.302-1.192-0.474-2.326-0.574-3.383c-0.212-2.112-0.101-3.923,0.067-5.212c0.155-1.287,0.402-2.053,0.402-2.053
	c0.063-0.202,0.276-0.312,0.478-0.248c0.055,0.018,0.105,0.05,0.143,0.084c0,0,0.587,0.55,1.379,1.557
	c0.802,1.006,1.828,2.463,2.812,4.249c0.498,0.89,0.994,1.862,1.455,2.877c0.006,0.011,0.011,0.023,0.017,0.034
	c0.206-0.292,0.414-0.583,0.623-0.868c3.062-4.442,6.223-8.897,8.594-12.235c2.345-3.353,3.972-5.559,3.972-5.559
	c0.104-0.146,0.312-0.176,0.452-0.071C75.021,43.239,75.063,43.398,75.008,43.531z"/>
<polygon opacity="0.6" fill="#007E84" enable-background="new    " points="78.867,84.643 77.418,89.288 77.418,147.377 
	62.569,127.734 48.331,147.574 48.331,86.887 47.901,85.809 44.272,86.619 44.272,157.824 62.917,134.525 82.553,157.824 
	82.553,85.184 "/>
<polygon fill="#007E84" points="71.633,88.523 68.398,93.626 63.664,89.876 59.219,93.973 55.607,89.124 52.153,90.932 
	52.153,133.014 62.23,118.973 72.846,133.014 72.846,89.046 "/>
</svg>
