<?xml version="1.0" encoding="utf-8"?>
<!-- Generator: Adobe Illustrator 16.0.0, SVG Export Plug-In . SVG Version: 6.00 Build 0)  -->
<!DOCTYPE svg PUBLIC "-//W3C//DTD SVG 1.1//EN" "http://www.w3.org/Graphics/SVG/1.1/DTD/svg11.dtd">
<svg version="1.1" id="Layer_1" xmlns="http://www.w3.org/2000/svg" xmlns:xlink="http://www.w3.org/1999/xlink" x="0px" y="0px"
	 width="160.667px" height="172.5px" viewBox="0 0 160.667 172.5" enable-background="new 0 0 160.667 172.5" xml:space="preserve">
<path opacity="0.6" fill="#007E84" enable-background="new    " d="M144.671,38.141h-2.475c-0.704-0.042-12.889-0.807-18.966,9.553
	c-2.772,4.735-2.273,11.201-1.791,17.458c0.776,10.081,1.662,21.508-12.426,25.028c-3.399,0.85-8.331,0.985-8.537,0.993h-54.97
	v-4.92h54.906c-0.012,0,4.537-0.12,7.413-0.839c9.595-2.401,9.572-8.793,8.719-19.882c-0.541-7.013-1.109-14.261,2.449-20.325
	c7.648-13.054,22.766-12.021,23.4-11.973h2.28v-5.841H29.381v29.479c5.901,1.435,11.326,1.435,11.477,1.439l57.711-0.038l0.003,4.91
	l-57.698,0.041c-0.016,0-0.036,0-0.056,0c-0.632,0-5.647-0.049-11.437-1.312v45.921h75.257l31.605,26.934l-7.232-26.941
	l15.658,0.011L144.671,38.141L144.671,38.141z M45.286,72.383h53.283v4.913H45.286V72.383z"/>
<path opacity="0.7" fill="#007E84" enable-background="new    " d="M45.507,91.177v-4.911h54.906V40.311H14.237v9.019
	c1.968,1.91,4.995,3.795,9.715,5.844c7.524,3.271,16.855,3.267,17.052,3.271l57.711-0.038l0.004,4.913l-57.697,0.039
	c-0.02,0-0.039,0-0.057,0c-0.908,0-10.712-0.088-18.975-3.679c-3.087-1.338-5.64-2.691-7.753-4.112v42.812l8.213,0.019
	l-8.213,21.114l22.033-21.26l64.144,0.144v-7.221H45.507z M45.242,72.383h53.279v4.913H45.242V72.383z"/>
<path opacity="0.8" fill="#007E84" enable-background="new    " d="M109.014,90.105c-3.399,0.854-8.331,0.985-8.537,0.996h-54.97
	v-4.915h54.906c-0.012,0,4.537-0.128,7.413-0.844c0.611-0.154,1.188-0.327,1.729-0.521V48.029H36.313v10.06
	c2.638,0.271,4.46,0.271,4.543,0.271l57.71-0.039l0.003,4.912l-57.698,0.039c-0.015,0-0.035,0-0.056,0
	c-0.358,0-2.063-0.016-4.502-0.245v54.816h43.734l9.11,28.87l7.058-28.87h13.34v-27.9C109.365,89.995,109.204,90.06,109.014,90.105z
	 M45.286,72.383h53.283v4.913H45.286V72.383z"/>
</svg>
