<?xml version="1.0" encoding="utf-8"?>
<!-- Generator: Adobe Illustrator 16.0.0, SVG Export Plug-In . SVG Version: 6.00 Build 0)  -->
<!DOCTYPE svg PUBLIC "-//W3C//DTD SVG 1.1//EN" "http://www.w3.org/Graphics/SVG/1.1/DTD/svg11.dtd">
<svg version="1.1" id="Layer_1" xmlns="http://www.w3.org/2000/svg" xmlns:xlink="http://www.w3.org/1999/xlink" x="0px" y="0px"
	 width="80.334px" height="100px" viewBox="0 0 80.334 100" enable-background="new 0 0 80.334 100" xml:space="preserve">
<g opacity="0.9">
	<g>
		<path fill="#007E83" d="M69.861,70.797l3.269-1.495l-1.827-3.093l2.768-2.287l-2.563-2.516l2.079-2.929l-3.124-1.762l1.252-3.369
			l-3.479-0.896l0.342-3.574l-3.593,0.032l-0.6-3.539l-3.462,0.964l-1.49-3.269l-3.095,1.826l-2.287-2.768l-2.516,2.564
			l-2.928-2.083l-1.764,3.132l-3.369-1.256l-0.582,2.268l14.938,5.54l-0.499,1.347l-15.481-5.744l-2.846-0.271l0.034,3.593
			l-3.54,0.596l0.964,3.462l-3.269,1.491l1.828,3.093l-2.771,2.287l2.57,2.518l-2.086,2.929l3.127,1.764l-1.253,3.367l3.481,0.898
			l-0.342,3.575l3.593-0.036l0.6,3.545l3.46-0.966l1.491,3.265l3.092-1.822l2.293,2.767l2.513-2.565l2.929,2.082l1.766-3.129
			l3.365,1.254l0.896-3.479l3.578,0.338l-0.036-3.589l3.543-0.6L69.861,70.797z M44.028,75.289l-0.881,1.047l-0.294-1.783
			l-0.473-2.611l1.42-0.219l0.22,2.065l4.848-3.827L44.028,75.289z M58.246,77.381l-8.406-3.12l0.5-1.347l8.405,3.12L58.246,77.381z
			 M60.172,72.358l-16.526-6.132l0.499-1.345l16.528,6.132l-0.499,1.347L60.172,72.358z M61.641,68.564l-16.528-6.132l0.501-1.343
			l16.526,6.13L61.641,68.564z M63.083,64.779l-16.591-6.156l0.5-1.347l16.589,6.157L63.083,64.779z M64.49,61.055l-16.64-6.172
			l0.5-1.345l16.639,6.173L64.49,61.055L64.49,61.055z"/>
	</g>
</g>
<circle opacity="0.4" fill="#007E83" cx="41.862" cy="44.117" r="20.636"/>
<circle fill="none" stroke="#007E83" stroke-width="4" stroke-miterlimit="10" cx="41.862" cy="44.117" r="20.636"/>
<line fill="none" stroke="#007E83" stroke-width="6" stroke-linecap="round" stroke-miterlimit="10" x1="28.212" y1="61.08" x2="6.265" y2="83.497"/>
</svg>
