<?xml version="1.0" encoding="utf-8"?>
<!-- Generator: Adobe Illustrator 16.0.0, SVG Export Plug-In . SVG Version: 6.00 Build 0)  -->
<!DOCTYPE svg PUBLIC "-//W3C//DTD SVG 1.1//EN" "http://www.w3.org/Graphics/SVG/1.1/DTD/svg11.dtd">
<svg version="1.1" id="Layer_1" xmlns="http://www.w3.org/2000/svg" xmlns:xlink="http://www.w3.org/1999/xlink" x="0px" y="0px"
	 width="115px" height="100px" viewBox="0 0 115 100" enable-background="new 0 0 115 100" xml:space="preserve">
<rect x="47.37" y="78.844" fill="#3F9EA3" width="20.26" height="9.863"/>
<rect x="7.884" y="18.879" fill="#FFFFFF" stroke="#3F9EA3" stroke-width="2" stroke-miterlimit="10" width="23.177" height="54.482"/>
<rect x="9.9" y="78.844" fill="#3F9EA3" width="19.144" height="9.863"/>
<g>
	<path fill="#3F9EA3" d="M25.079,42.626c0,0-0.463,1.191-1.228,2.941c-0.758,1.757-1.77,4.094-2.934,6.375
		c-0.295,0.58-0.591,1.16-0.882,1.73c-0.154,0.297-0.308,0.592-0.458,0.883L19.57,54.57l-0.1,0.129l-0.016,0.023
		c-0.151,0.178-0.447,0.383-0.692,0.447c-0.258,0.086-0.547,0.082-0.767,0.037c-0.203-0.043-0.379-0.123-0.473-0.178
		c-0.424-0.264-0.49-0.404-0.614-0.529c-0.204-0.244-0.298-0.41-0.402-0.578c-0.375-0.65-0.579-1.203-0.711-1.77
		c-0.14-0.555-0.22-1.084-0.267-1.576c-0.098-0.985-0.047-1.829,0.03-2.428c0.074-0.599,0.188-0.957,0.188-0.957
		c0.03-0.094,0.129-0.145,0.223-0.115c0.026,0.008,0.049,0.023,0.067,0.04c0,0,0.273,0.255,0.642,0.724
		c0.373,0.469,0.851,1.148,1.31,1.98c0.232,0.414,0.464,0.868,0.679,1.34c0.228,0.459,0.407,0.992,0.553,1.41
		c0.028,0.096,0.074,0.195,0.048,0.195c-0.033-0.006-0.003-0.025-0.297-0.209c-0.062-0.033-0.203-0.102-0.369-0.133
		c-0.183-0.041-0.431-0.037-0.654,0.033c-0.207,0.057-0.474,0.234-0.594,0.391l0.022-0.02l0.005-0.004
		c-0.039,0.049,0.096-0.119-0.087,0.109l0.009-0.01c0.185-0.219,0.371-0.441,0.56-0.664c0.378-0.445,0.735-0.986,1.101-1.486
		c1.426-2.071,2.899-4.147,4.004-5.702c1.093-1.562,1.85-2.59,1.85-2.59c0.05-0.067,0.145-0.082,0.211-0.032
		C25.084,42.491,25.103,42.564,25.079,42.626z"/>
</g>
<g>
	<path fill="#3F9EA3" d="M61.473,42.626c0,0-0.463,1.191-1.228,2.941c-0.758,1.757-1.77,4.094-2.934,6.375
		c-0.296,0.58-0.591,1.16-0.882,1.73c-0.154,0.297-0.308,0.592-0.458,0.883l-0.007,0.014l-0.1,0.129l-0.016,0.023
		c-0.151,0.178-0.447,0.383-0.692,0.447c-0.258,0.086-0.547,0.082-0.767,0.037c-0.203-0.043-0.379-0.123-0.473-0.178
		c-0.424-0.264-0.49-0.404-0.614-0.529c-0.204-0.244-0.298-0.41-0.402-0.578c-0.375-0.65-0.579-1.203-0.711-1.77
		c-0.14-0.555-0.22-1.084-0.267-1.576c-0.098-0.985-0.047-1.829,0.03-2.428c0.074-0.599,0.188-0.957,0.188-0.957
		c0.03-0.094,0.129-0.145,0.223-0.115c0.026,0.008,0.049,0.023,0.067,0.04c0,0,0.273,0.255,0.642,0.724
		c0.373,0.469,0.851,1.148,1.31,1.98c0.232,0.414,0.464,0.868,0.679,1.34c0.228,0.459,0.407,0.992,0.553,1.41
		c0.028,0.096,0.074,0.195,0.048,0.195c-0.033-0.006-0.003-0.025-0.297-0.209c-0.062-0.033-0.203-0.102-0.369-0.133
		c-0.183-0.041-0.431-0.037-0.654,0.033c-0.207,0.057-0.474,0.234-0.594,0.391l0.022-0.02l0.005-0.004
		c-0.039,0.049,0.096-0.119-0.087,0.109l0.009-0.01c0.185-0.219,0.371-0.441,0.56-0.664c0.378-0.445,0.735-0.986,1.101-1.486
		c1.426-2.071,2.899-4.147,4.003-5.702c1.094-1.562,1.851-2.59,1.851-2.59c0.05-0.067,0.145-0.082,0.212-0.032
		C61.478,42.491,61.496,42.564,61.473,42.626z"/>
</g>
<g>
	<path fill="#3F9EA3" d="M101.079,42.626c0,0-0.464,1.191-1.228,2.941c-0.758,1.757-1.77,4.094-2.934,6.375
		c-0.295,0.58-0.591,1.16-0.882,1.73c-0.154,0.297-0.308,0.592-0.458,0.883L95.57,54.57l-0.1,0.129l-0.016,0.023
		c-0.152,0.178-0.447,0.383-0.693,0.447c-0.258,0.086-0.547,0.082-0.766,0.037c-0.203-0.043-0.38-0.123-0.474-0.178
		c-0.424-0.264-0.49-0.404-0.614-0.529c-0.203-0.244-0.297-0.41-0.402-0.578c-0.374-0.65-0.578-1.203-0.711-1.77
		c-0.141-0.555-0.22-1.084-0.267-1.576c-0.098-0.985-0.048-1.829,0.03-2.428c0.074-0.599,0.188-0.957,0.188-0.957
		c0.03-0.094,0.13-0.145,0.223-0.115c0.026,0.008,0.049,0.023,0.068,0.04c0,0,0.273,0.255,0.641,0.724
		c0.373,0.469,0.852,1.148,1.311,1.98c0.232,0.414,0.463,0.868,0.678,1.34c0.229,0.459,0.408,0.992,0.554,1.41
		c0.028,0.096,0.074,0.195,0.048,0.195c-0.033-0.006-0.003-0.025-0.297-0.209c-0.062-0.033-0.203-0.102-0.369-0.133
		c-0.183-0.041-0.432-0.037-0.654,0.033c-0.207,0.057-0.475,0.234-0.594,0.391l0.021-0.02l0.006-0.004
		c-0.039,0.049,0.096-0.119-0.088,0.109l0.01-0.01c0.184-0.219,0.371-0.441,0.559-0.664c0.379-0.445,0.735-0.986,1.102-1.486
		c1.426-2.071,2.898-4.147,4.004-5.702c1.092-1.562,1.85-2.59,1.85-2.59c0.05-0.067,0.145-0.082,0.211-0.032
		C101.084,42.491,101.104,42.564,101.079,42.626z"/>
</g>
<line fill="none" stroke="#3F9EA3" stroke-width="2" stroke-miterlimit="10" x1="65.75" y1="86.25" x2="82.146" y2="64.25"/>
<rect x="45.225" y="18.879" fill="#FFFFFF" stroke="#3F9EA3" stroke-width="2" stroke-miterlimit="10" width="23.177" height="54.482"/>
<rect x="82.146" y="18.879" fill="#FFFFFF" stroke="#3F9EA3" stroke-width="2" stroke-miterlimit="10" width="23.177" height="54.482"/>
<g>
	<path fill="#3F9EA3" d="M61.764,42.626c0,0-0.464,1.19-1.229,2.941c-0.758,1.756-1.77,4.094-2.933,6.375
		c-0.295,0.58-0.591,1.16-0.882,1.73c-0.154,0.297-0.308,0.592-0.458,0.883l-0.007,0.014l-0.1,0.129l-0.016,0.023
		c-0.151,0.178-0.447,0.383-0.692,0.447c-0.258,0.086-0.547,0.082-0.767,0.037c-0.203-0.043-0.379-0.123-0.473-0.178
		c-0.424-0.264-0.49-0.404-0.614-0.529c-0.204-0.244-0.298-0.41-0.402-0.578c-0.375-0.65-0.579-1.203-0.711-1.77
		c-0.14-0.555-0.22-1.084-0.267-1.576c-0.098-0.984-0.047-1.828,0.03-2.428c0.074-0.6,0.188-0.957,0.188-0.957
		c0.03-0.094,0.129-0.145,0.223-0.115c0.026,0.008,0.049,0.023,0.067,0.039c0,0,0.273,0.256,0.642,0.725
		c0.373,0.469,0.851,1.148,1.31,1.98c0.232,0.414,0.464,0.867,0.679,1.34c0.228,0.459,0.407,0.992,0.553,1.41
		c0.028,0.096,0.074,0.195,0.048,0.195c-0.033-0.006-0.003-0.025-0.297-0.209c-0.062-0.033-0.203-0.102-0.369-0.133
		c-0.183-0.041-0.431-0.037-0.654,0.033c-0.207,0.057-0.474,0.234-0.594,0.391l0.022-0.02l0.005-0.004
		c-0.039,0.049,0.096-0.119-0.087,0.109l0.009-0.01c0.185-0.219,0.371-0.441,0.56-0.664c0.378-0.445,0.735-0.986,1.101-1.486
		c1.426-2.07,2.898-4.146,4.004-5.701c1.093-1.562,1.85-2.59,1.85-2.59c0.051-0.068,0.145-0.082,0.211-0.033
		C61.768,42.49,61.787,42.563,61.764,42.626z"/>
</g>
<g>
	<path fill="#3F9EA3" d="M99.986,42.622c0,0-0.463,1.19-1.227,2.941c-0.758,1.756-1.77,4.094-2.934,6.375
		c-0.296,0.58-0.592,1.16-0.883,1.73c-0.154,0.297-0.307,0.592-0.458,0.883l-0.007,0.014l-0.101,0.129l-0.016,0.023
		c-0.151,0.178-0.446,0.383-0.692,0.447c-0.258,0.086-0.547,0.082-0.767,0.037c-0.202-0.043-0.38-0.123-0.474-0.178
		c-0.424-0.264-0.49-0.404-0.613-0.529c-0.203-0.244-0.298-0.41-0.402-0.578c-0.375-0.65-0.578-1.203-0.711-1.77
		c-0.141-0.555-0.221-1.084-0.268-1.576c-0.098-0.984-0.047-1.828,0.031-2.428c0.073-0.6,0.188-0.957,0.188-0.957
		c0.029-0.094,0.129-0.145,0.223-0.115c0.025,0.008,0.049,0.023,0.067,0.039c0,0,0.273,0.256,0.642,0.725
		c0.373,0.469,0.851,1.148,1.31,1.98c0.232,0.414,0.464,0.867,0.679,1.34c0.228,0.459,0.407,0.992,0.553,1.41
		c0.029,0.096,0.074,0.195,0.049,0.195c-0.033-0.006-0.004-0.025-0.297-0.209c-0.062-0.033-0.203-0.102-0.369-0.133
		c-0.184-0.041-0.432-0.037-0.654,0.033c-0.207,0.057-0.475,0.234-0.595,0.391l0.022-0.02l0.005-0.004
		c-0.039,0.049,0.096-0.119-0.087,0.109l0.009-0.01c0.185-0.219,0.371-0.441,0.56-0.664c0.379-0.445,0.734-0.986,1.101-1.486
		c1.427-2.07,2.899-4.146,4.004-5.701c1.093-1.562,1.851-2.59,1.851-2.59c0.049-0.068,0.145-0.082,0.211-0.033
		C99.992,42.486,100.012,42.56,99.986,42.622z"/>
</g>
<rect x="83.604" y="78.844" fill="#3F9EA3" width="20.26" height="9.863"/>
<line fill="none" stroke="#3F9EA3" stroke-width="2" stroke-miterlimit="10" x1="28.354" y1="85.225" x2="45.225" y2="61.25"/>
<line fill="none" stroke="#3F9EA3" stroke-width="2" stroke-miterlimit="10" x1="31.061" y1="48.187" x2="45.225" y2="48.182"/>
<line fill="none" stroke="#3F9EA3" stroke-width="2" stroke-miterlimit="10" x1="68.401" y1="48.184" x2="82.565" y2="48.179"/>
</svg>
