<?xml version="1.0" encoding="utf-8"?>
<!-- Generator: Adobe Illustrator 19.0.1, SVG Export Plug-In . SVG Version: 6.00 Build 0)  -->
<svg version="1.1" id="Layer_1" xmlns="http://www.w3.org/2000/svg" xmlns:xlink="http://www.w3.org/1999/xlink" x="0px" y="0px"
	 viewBox="-422 231 115 100" style="enable-background:new -422 231 115 100;" xml:space="preserve">
<style type="text/css">
	.st0{fill:none;stroke:#FFFFFF;stroke-width:2;stroke-miterlimit:10;}
	.st1{fill:#FEFEFE;}
</style>
<line class="st0" x1="-356.2" y1="317.2" x2="-337.6" y2="292.3"/>
<line class="st0" x1="-393.6" y1="316.2" x2="-373.9" y2="288.1"/>
<line class="st0" x1="-390.9" y1="279.2" x2="-375" y2="279.2"/>
<line class="st0" x1="-355.8" y1="279.2" x2="-339.4" y2="279.2"/>
<g>
	<rect x="-412.1" y="309.8" class="st1" width="19.1" height="9.9"/>
	<g>
		<g>
			<path class="st1" d="M-414.1,249.9v54.5h23.2v-54.5H-414.1z M-396.9,273.6c0,0-0.5,1.2-1.2,2.9c-0.8,1.8-1.8,4.1-2.9,6.4
				c-0.3,0.6-0.6,1.2-0.9,1.7c-0.2,0.3-0.3,0.6-0.5,0.9l0,0l-0.1,0.1l0,0c-0.2,0.2-0.4,0.4-0.7,0.4c-0.3,0.1-0.5,0.1-0.8,0
				c-0.2,0-0.4-0.1-0.5-0.2c-0.4-0.3-0.5-0.4-0.6-0.5c-0.2-0.2-0.3-0.4-0.4-0.6c-0.4-0.7-0.6-1.2-0.7-1.8c-0.1-0.6-0.2-1.1-0.3-1.6
				c-0.1-1,0-1.8,0-2.4c0.1-0.6,0.2-1,0.2-1c0-0.1,0.1-0.1,0.2-0.1c0,0,0,0,0.1,0c0,0,0.3,0.3,0.6,0.7c0.4,0.5,0.9,1.1,1.3,2
				c0.2,0.4,0.5,0.9,0.7,1.3c0,0,0,0,0,0c0.1-0.1,0.2-0.3,0.3-0.4c1.4-2.1,2.9-4.1,4-5.7c1.1-1.6,1.8-2.6,1.8-2.6
				c0-0.1,0.1-0.1,0.2,0C-396.9,273.5-396.9,273.6-396.9,273.6z"/>
		</g>
	</g>
</g>
<g>
	<rect x="-375.6" y="309.8" class="st1" width="20.3" height="9.9"/>
	<g>
		<g>
			<path class="st1" d="M-377,249.9v54.5h23.2v-54.5H-377z M-359.8,273.6c0,0-0.5,1.2-1.2,2.9c-0.8,1.8-1.8,4.1-2.9,6.4
				c-0.3,0.6-0.6,1.2-0.9,1.7c-0.2,0.3-0.3,0.6-0.5,0.9l0,0l-0.1,0.1l0,0c-0.2,0.2-0.4,0.4-0.7,0.4c-0.3,0.1-0.5,0.1-0.8,0
				c-0.2,0-0.4-0.1-0.5-0.2c-0.4-0.3-0.5-0.4-0.6-0.5c-0.2-0.2-0.3-0.4-0.4-0.6c-0.4-0.7-0.6-1.2-0.7-1.8c-0.1-0.6-0.2-1.1-0.3-1.6
				c-0.1-1,0-1.8,0-2.4c0.1-0.6,0.2-1,0.2-1c0-0.1,0.1-0.1,0.2-0.1c0,0,0,0,0.1,0c0,0,0.3,0.3,0.6,0.7c0.4,0.5,0.9,1.1,1.3,2
				c0.2,0.4,0.5,0.9,0.7,1.3c0,0,0,0,0,0c0.1-0.1,0.2-0.3,0.3-0.4c1.4-2.1,2.9-4.1,4-5.7c1.1-1.6,1.8-2.6,1.8-2.6
				c0-0.1,0.1-0.1,0.2,0C-359.8,273.5-359.8,273.6-359.8,273.6z"/>
		</g>
	</g>
</g>
<g>
	<rect x="-338.5" y="309.8" class="st1" width="20.3" height="9.9"/>
	<g>
		<g>
			<path class="st1" d="M-339.9,249.9v54.5h23.2v-54.5H-339.9z M-322.7,273.6c0,0-0.5,1.2-1.2,2.9c-0.8,1.8-1.8,4.1-2.9,6.4
				c-0.3,0.6-0.6,1.2-0.9,1.7c-0.2,0.3-0.3,0.6-0.5,0.9l0,0l-0.1,0.1l0,0c-0.2,0.2-0.4,0.4-0.7,0.4c-0.3,0.1-0.5,0.1-0.8,0
				c-0.2,0-0.4-0.1-0.5-0.2c-0.4-0.3-0.5-0.4-0.6-0.5c-0.2-0.2-0.3-0.4-0.4-0.6c-0.4-0.7-0.6-1.2-0.7-1.8c-0.1-0.6-0.2-1.1-0.3-1.6
				c-0.1-1,0-1.8,0-2.4c0.1-0.6,0.2-1,0.2-1c0-0.1,0.1-0.1,0.2-0.1c0,0,0,0,0.1,0c0,0,0.3,0.3,0.6,0.7c0.4,0.5,0.9,1.1,1.3,2
				c0.2,0.4,0.5,0.9,0.7,1.3c0,0,0,0,0,0c0.1-0.1,0.2-0.3,0.3-0.4c1.4-2.1,2.9-4.1,4-5.7c1.1-1.6,1.8-2.6,1.8-2.6
				c0-0.1,0.1-0.1,0.2,0C-322.7,273.5-322.7,273.6-322.7,273.6z"/>
		</g>
	</g>
</g>
</svg>
