<?xml version="1.0" encoding="utf-8"?>
<!-- Generator: Adobe Illustrator 19.0.1, SVG Export Plug-In . SVG Version: 6.00 Build 0)  -->
<svg version="1.1" id="Layer_1" xmlns="http://www.w3.org/2000/svg" xmlns:xlink="http://www.w3.org/1999/xlink" x="0px" y="0px"
	 viewBox="-422 231 115 100" style="enable-background:new -422 231 115 100;" xml:space="preserve">
<style type="text/css">
	.st0{fill:#FFFFFF;}
</style>
<path class="st0" d="M-364.5,301.5c-6.8,0-12.3,5.5-12.3,12.3c0,6.8,5.5,12.3,12.3,12.3s12.3-5.5,12.3-12.3
	C-352.2,307-357.7,301.5-364.5,301.5z M-360.7,322.4h-7.5l1.7-7.5c-1.4-0.7-2.4-2.2-2.4-3.9c0-2.5,2-4.4,4.4-4.4
	c2.5,0,4.4,2,4.4,4.4c0,1.7-1,3.2-2.4,3.9L-360.7,322.4z"/>
<g>
	
		<rect x="-389.5" y="278.3" transform="matrix(0.6527 0.7576 -0.7576 0.6527 79.2785 385.7598)" class="st0" width="16.8" height="2"/>
</g>
<g>
	
		<rect x="-379.3" y="250.5" transform="matrix(0.5977 0.8018 -0.8018 0.5977 56.9061 408.2156)" class="st0" width="2" height="20.7"/>
</g>
<g>
	
		<rect x="-352.1" y="267.8" transform="matrix(0.9006 0.4347 -0.4347 0.9006 85.9754 180.2619)" class="st0" width="2" height="20.7"/>
</g>
<g>
	<circle class="st0" cx="-388.1" cy="269.5" r="4.9"/>
</g>
<g>
	<circle class="st0" cx="-346.6" cy="267" r="4.9"/>
</g>
<g>
	<circle class="st0" cx="-367.1" cy="253.4" r="4.9"/>
</g>
<g>
	<circle class="st0" cx="-344.4" cy="246.6" r="4.9"/>
</g>
<g>
	<circle class="st0" cx="-374.7" cy="237.1" r="4.9"/>
</g>
<g>
	<rect x="-357" y="240" transform="matrix(0.2949 0.9555 -0.9555 0.2949 -13.2516 515.6503)" class="st0" width="2" height="17.7"/>
</g>
<g>
	
		<rect x="-377.8" y="243.7" transform="matrix(0.3405 0.9402 -0.9402 0.3405 -14.8673 510.6037)" class="st0" width="12.8" height="2"/>
</g>
<g>
	<path class="st0" d="M-364.5,283.8c-19,0-34.3,3.9-34.3,8.8c0,2.2,0,9.3,0,11.5c0,3.4,7.7,6.4,18.9,7.9c0.9-7.7,7.5-13.7,15.4-13.7
		c8,0,14.5,6,15.4,13.7c11.2-1.5,18.9-4.4,18.9-7.9c0-2.2,0-9.3,0-11.5C-330.2,287.7-345.5,283.8-364.5,283.8z"/>
</g>
</svg>
