<?xml version="1.0" encoding="utf-8"?>
<!-- Generator: Adobe Illustrator 16.0.0, SVG Export Plug-In . SVG Version: 6.00 Build 0)  -->
<!DOCTYPE svg PUBLIC "-//W3C//DTD SVG 1.1//EN" "http://www.w3.org/Graphics/SVG/1.1/DTD/svg11.dtd">
<svg version="1.1" id="Layer_1" xmlns="http://www.w3.org/2000/svg" xmlns:xlink="http://www.w3.org/1999/xlink" x="0px" y="0px"
	 width="115px" height="100px" viewBox="0 0 115 100" enable-background="new 0 0 115 100" xml:space="preserve">
<path fill="#3F9EA3" d="M95.041,58.954c-0.473,10.751-11.38,18.065-22.036,16.551C62.351,73.99,54.94,64.126,56.454,53.472
	c0.755-5.313,4.128-11.8,5.622-21.062c0.074-0.455,0.179-2.891-0.289-4.491c-0.599-2.05-8.033-9.605-7.364-9.899
	c0.755-0.332,1.94-0.3,2.196-0.848c0.492-1.053,0.351-2.21,0.668-2.338c0.245-0.099,3.484,0.396,4.465-1.414
	c1.201-2.22-1.921-5.408,2.768-0.545c0.438,0.457,1.219-0.484,1.697-1.064c0.644-0.779,1.092-1.707,1.193-1.738
	c0.723-0.216,1.9,5.657,1.91,6.418c0.015,1.281,0.514,7.245,0.961,7.876c2.195,3.105,3.275,3.495,4.794,5.384
	C79.818,35.646,95.505,48.392,95.041,58.954z"/>
<line fill="none" stroke="#3F9EA3" stroke-width="5" stroke-linecap="round" stroke-miterlimit="10" x1="16.19" y1="88.521" x2="81.435" y2="9.079"/>
<g>
	<path fill="#FFFFFF" d="M67.492,31.249c0,0,0.422,1.377,0.916,3.478c0.496,2.104,1.145,4.906,1.395,7.857
		c0.061,0.742,0.094,1.49,0.065,2.28c-0.021,0.397-0.043,0.802-0.141,1.262c-0.051,0.229-0.112,0.472-0.243,0.755
		c-0.1,0.27-0.449,0.683-0.479,0.739l-0.146,0.206c-0.064,0.079-0.143,0.169-0.217,0.248c-0.152,0.169-0.303,0.318-0.463,0.454
		c-0.32,0.277-0.695,0.519-1.125,0.691c-0.844,0.362-1.92,0.351-2.676,0.014c-0.77-0.326-1.242-0.826-1.555-1.27
		c-0.316-0.444-0.48-0.868-0.586-1.216c-0.104-0.349-0.14-0.633-0.155-0.827c-0.005-0.199-0.007-0.306-0.007-0.306
		c-0.002-0.091,0.07-0.166,0.16-0.168c0.032-0.001,0.062,0.008,0.088,0.022l0.021,0.013c0,0,0.323,0.19,0.888,0.523
		c0.268,0.152,0.595,0.312,0.926,0.449c0.34,0.127,0.693,0.202,0.959,0.174c0.27-0.038,0.423-0.108,0.697-0.261
		c0.135-0.067,0.299-0.164,0.486-0.281l0.279-0.18l0.145-0.09l0.197-0.159c0.202-0.183,0.083-0.021,0.134-0.059
		c0.029-0.017,0.081-0.1,0.124-0.201c0.092-0.203,0.174-0.491,0.227-0.792c0.115-0.608,0.162-1.29,0.194-1.976
		c0.093-2.761-0.048-5.629-0.162-7.761c-0.145-2.14-0.241-3.566-0.241-3.566c-0.006-0.083,0.058-0.155,0.141-0.161
		C67.409,31.138,67.473,31.184,67.492,31.249z"/>
</g>
<g>
	<path fill="#FFFFFF" d="M69.891,29.795c0-0.001,1.834,2.014,3.498,4.139c0.412,0.533,0.919,1.006,1.271,1.528
		c0.34,0.53,0.571,1.08,0.729,1.578c0.334,0.982,0.32,1.791,0.32,1.791c-0.001,0.066-0.056,0.119-0.122,0.118
		c-0.017-0.001-0.032-0.004-0.046-0.011c0,0-0.741-0.321-1.498-1.032c-0.389-0.35-0.793-0.788-1.135-1.316
		c-0.33-0.537-0.551-1.193-0.865-1.79c-1.246-2.394-2.321-4.896-2.32-4.897c-0.022-0.051,0.001-0.11,0.053-0.133
		C69.816,29.752,69.861,29.764,69.891,29.795z"/>
</g>
<g>
	<path fill="#FFFFFF" d="M65.416,27.054c0,0-1.532-2.218-2.986-4.481c-0.367-0.563-0.763-1.11-1.09-1.649
		c-0.312-0.546-0.562-1.081-0.754-1.552c-0.393-0.937-0.535-1.629-0.535-1.629c-0.006-0.029,0.012-0.057,0.041-0.062
		c0.017-0.004,0.033,0.002,0.045,0.012c0,0,0.528,0.472,1.143,1.28c0.31,0.403,0.647,0.887,0.963,1.432
		c0.303,0.553,0.577,1.169,0.881,1.77c1.229,2.393,2.38,4.83,2.38,4.83c0.012,0.025,0.001,0.056-0.024,0.067
		C65.456,27.081,65.43,27.073,65.416,27.054z"/>
</g>
</svg>
