<?xml version="1.0" encoding="utf-8"?>
<!-- Generator: Adobe Illustrator 16.0.0, SVG Export Plug-In . SVG Version: 6.00 Build 0)  -->
<!DOCTYPE svg PUBLIC "-//W3C//DTD SVG 1.1//EN" "http://www.w3.org/Graphics/SVG/1.1/DTD/svg11.dtd">
<svg version="1.1" id="Layer_1" xmlns="http://www.w3.org/2000/svg" xmlns:xlink="http://www.w3.org/1999/xlink" x="0px" y="0px"
	 width="115px" height="100px" viewBox="0 0 115 100" enable-background="new 0 0 115 100" xml:space="preserve">
<g>
	<path fill="#3F9EA3" d="M91.825,61.585c0-4.872-15.366-8.821-34.324-8.821c-18.958,0-34.325,3.949-34.325,8.821
		c0,2.194,0,9.294,0,11.488c0,4.871,15.368,8.82,34.325,8.82c18.958,0,34.324-3.949,34.324-8.82
		C91.825,70.879,91.825,63.779,91.825,61.585z"/>
	<circle fill="#3F9EA3" stroke="#FFFFFF" stroke-width="2" stroke-miterlimit="10" cx="57.5" cy="82.825" r="15.572"/>
	<path fill="#FFFFFF" d="M61.95,80.017c0-2.457-1.993-4.449-4.449-4.449c-2.457,0-4.449,1.992-4.449,4.449
		c0,1.731,0.998,3.213,2.44,3.949L53.8,91.433h7.489l-1.754-7.48C60.963,83.212,61.95,81.736,61.95,80.017z"/>
	<line fill="none" stroke="#3F9EA3" stroke-width="2" stroke-miterlimit="10" x1="46.377" y1="54.701" x2="35.429" y2="41.992"/>
	<line fill="none" stroke="#3F9EA3" stroke-width="2" stroke-miterlimit="10" x1="52.027" y1="23.619" x2="35.429" y2="35.993"/>
	<line fill="none" stroke="#3F9EA3" stroke-width="2" stroke-miterlimit="10" x1="66.399" y1="56.402" x2="75.377" y2="37.789"/>
	<circle fill="#3F9EA3" cx="33.92" cy="38.464" r="4.894"/>
	<circle fill="#3F9EA3" cx="75.377" cy="35.993" r="4.894"/>
	<circle fill="#3F9EA3" cx="54.912" cy="22.437" r="4.894"/>
	<circle fill="#3F9EA3" cx="77.602" cy="15.567" r="4.895"/>
	<circle fill="#3F9EA3" cx="47.268" cy="6.138" r="4.894"/>
	<line fill="none" stroke="#3F9EA3" stroke-width="2" stroke-miterlimit="10" x1="57.501" y1="20.461" x2="74.448" y2="15.231"/>
	<line fill="none" stroke="#3F9EA3" stroke-width="2" stroke-miterlimit="10" x1="48.387" y1="7.671" x2="52.757" y2="19.736"/>
</g>
</svg>
