<?xml version="1.0" encoding="utf-8"?>
<!-- Generator: Adobe Illustrator 16.0.0, SVG Export Plug-In . SVG Version: 6.00 Build 0)  -->
<!DOCTYPE svg PUBLIC "-//W3C//DTD SVG 1.1//EN" "http://www.w3.org/Graphics/SVG/1.1/DTD/svg11.dtd">
<svg version="1.1" id="Layer_1" xmlns="http://www.w3.org/2000/svg" xmlns:xlink="http://www.w3.org/1999/xlink" x="0px" y="0px"
	 width="115px" height="100px" viewBox="0 0 115 100" enable-background="new 0 0 115 100" xml:space="preserve">
<g>
	<line fill="none" stroke="#3F9EA3" stroke-width="2" stroke-miterlimit="10" x1="92.302" y1="51.944" x2="57.63" y2="32.006"/>
	<line fill="none" stroke="#3F9EA3" stroke-width="2" stroke-miterlimit="10" x1="73.813" y1="61.514" x2="52.332" y2="75.071"/>
	<line fill="none" stroke="#3F9EA3" stroke-width="2" stroke-miterlimit="10" x1="39.177" y1="68.293" x2="27.842" y2="55.134"/>
	<rect x="19.684" y="65.815" fill="#3F9EA3" stroke="#3F9EA3" stroke-miterlimit="10" width="38.426" height="18.706"/>
	<line fill="none" stroke="#FFFFFF" stroke-width="2" stroke-miterlimit="10" x1="53.321" y1="74.233" x2="35.54" y2="74.233"/>
	<line fill="none" stroke="#FFFFFF" stroke-width="2" stroke-miterlimit="10" x1="53.321" y1="78.286" x2="35.54" y2="78.286"/>
	<rect x="25.721" y="73.102" fill="#FFFFFF" stroke="#F1F1F2" stroke-miterlimit="10" width="5.969" height="6.005"/>
	
		<rect x="72.254" y="50.349" fill="#FFFFFF" stroke="#3F9EA3" stroke-width="2" stroke-miterlimit="10" width="32.761" height="15.95"/>
	<line fill="none" stroke="#3F9EA3" stroke-miterlimit="10" x1="100.934" y1="57.526" x2="85.773" y2="57.526"/>
	<line fill="none" stroke="#3F9EA3" stroke-miterlimit="10" x1="100.934" y1="60.982" x2="85.773" y2="60.982"/>
	<rect x="77.401" y="56.562" fill="#3F9EA3" width="5.089" height="5.118"/>
	
		<rect x="42.56" y="15.839" fill="#FFFFFF" stroke="#3F9EA3" stroke-width="2" stroke-miterlimit="10" width="32.762" height="15.95"/>
	<line fill="none" stroke="#3F9EA3" stroke-miterlimit="10" x1="71.238" y1="23.016" x2="56.079" y2="23.016"/>
	<line fill="none" stroke="#3F9EA3" stroke-miterlimit="10" x1="71.238" y1="26.471" x2="56.079" y2="26.471"/>
	<rect x="47.708" y="22.052" fill="#3F9EA3" width="5.089" height="5.118"/>
	
		<rect x="13.206" y="39.184" fill="#FFFFFF" stroke="#3F9EA3" stroke-width="2" stroke-miterlimit="10" width="32.762" height="15.95"/>
	<line fill="none" stroke="#3F9EA3" stroke-miterlimit="10" x1="41.884" y1="46.361" x2="26.725" y2="46.361"/>
	<line fill="none" stroke="#3F9EA3" stroke-miterlimit="10" x1="41.884" y1="49.816" x2="26.725" y2="49.816"/>
	<rect x="18.353" y="45.396" fill="#3F9EA3" width="5.089" height="5.119"/>
</g>
</svg>
