<?xml version="1.0" encoding="utf-8"?>
<!-- Generator: Adobe Illustrator 16.0.0, SVG Export Plug-In . SVG Version: 6.00 Build 0)  -->
<!DOCTYPE svg PUBLIC "-//W3C//DTD SVG 1.1//EN" "http://www.w3.org/Graphics/SVG/1.1/DTD/svg11.dtd">
<svg version="1.1" id="Layer_1" xmlns="http://www.w3.org/2000/svg" xmlns:xlink="http://www.w3.org/1999/xlink" x="0px" y="0px"
	 width="115px" height="100px" viewBox="0 0 115 100" enable-background="new 0 0 115 100" xml:space="preserve">
<path fill="#3F9EA3" d="M24.206,22.527c-9.601,16.421-4.057,37.589,12.361,47.191c3.464,2.03,7.144,3.369,10.877,4.09l6.5-11.112
	c-3.904,0-7.858-0.98-11.463-3.088c-10.842-6.343-14.502-20.322-8.163-31.164C40.66,17.602,54.64,13.938,65.481,20.28
	c10.083,5.896,13.944,18.399,9.338,28.842l12.394,0.066c4.092-14.72-2.022-30.953-15.816-39.022
	C54.977,0.564,33.808,6.109,24.206,22.527z"/>
<g>
	<polygon fill="none" points="77.686,80.208 74.356,86.045 77.746,91.848 84.468,91.812 87.797,85.975 84.406,80.174 	"/>
	<path fill="#3F9EA3" d="M90.488,80.235c-2.123-3.676-6.068-5.631-10.035-5.405L63.992,46.346c2.479-3.704,2.814-8.636,0.436-12.755
		c-2.533-4.384-7.403-6.575-12.13-5.911l3.559,6.156c1.378,2.384,0.563,5.438-1.824,6.813c-2.385,1.379-5.436,0.563-6.813-1.821
		l-3.347-5.792c-2.403,3.689-2.696,8.562-0.343,12.634c2.381,4.117,6.821,6.287,11.267,5.99l16.701,28.898
		c-1.707,3.202-1.781,7.183,0.168,10.556c3.003,5.197,9.651,6.976,14.848,3.975C91.713,92.082,93.49,85.434,90.488,80.235z
		 M84.468,91.812l-6.722,0.035l-3.39-5.803l3.329-5.837l6.721-0.034l3.391,5.801L84.468,91.812z"/>
</g>
</svg>
