<svg xmlns="http://www.w3.org/2000/svg" width="168" height="169" viewBox="0 0 168 169"><path opacity=".7" fill="#007E84" enable-background="new" d="M47.458 74.624H26.746c-.27-3.505-3.243-6.267-6.88-6.267-3.815 0-6.906 3.036-6.906 6.783s3.09 6.783 6.906 6.783c3.637 0 6.61-2.762 6.88-6.266h20.712v-1.033zM47.458 108.03h-16.03c-.263-2.31-2.234-4.11-4.656-4.11-2.602 0-4.71 2.07-4.71 4.627 0 2.556 2.108 4.626 4.71 4.626 2.423 0 4.395-1.802 4.658-4.11h16.028v-1.034zM149.774 103.76c-3.638 0-6.61 2.764-6.88 6.27h-24.77v1.032h24.77c.27 3.505 3.242 6.267 6.88 6.267 3.813 0 6.906-3.038 6.906-6.783 0-3.75-3.092-6.787-6.906-6.787zM145.917 52.785c-3.637 0-6.61 2.762-6.88 6.267h-20.913v1.033h20.912c.27 3.505 3.244 6.268 6.882 6.268 3.813 0 6.905-3.036 6.905-6.783 0-3.748-3.092-6.785-6.906-6.785zM135.122 90.804c-2.422 0-4.393 1.8-4.657 4.108h-12.34v1.035h12.34c.267 2.31 2.235 4.108 4.657 4.108 2.603 0 4.71-2.07 4.71-4.625 0-2.556-2.107-4.626-4.71-4.626zM61.3 141.19v-12.567h-1.034v12.562c-2.356.258-4.194 2.19-4.194 4.574 0 2.558 2.107 4.626 4.71 4.626 2.602 0 4.71-2.068 4.71-4.627 0-2.38-1.838-4.315-4.193-4.57zM80.06 145.564v-16.94H79.03v16.94c-3.573.262-6.39 3.184-6.39 6.76 0 3.746 3.09 6.783 6.906 6.783 3.813 0 6.905-3.037 6.905-6.783 0-3.578-2.817-6.5-6.39-6.76zM103.19 134.086v-5.463h-1.034v5.463c-2.355.256-4.193 2.193-4.193 4.576 0 2.555 2.107 4.625 4.71 4.625 2.6 0 4.71-2.07 4.71-4.625 0-2.383-1.84-4.32-4.194-4.576z"/><g fill="#007E84"><path d="M91.24 71.627h12.32v12.746H91.24zM91.24 42.627h12.32v12.745H91.24zM47.458 27.243v101.38h71.205V27.243H47.458zM88.683 39.91h17.453v17.88H88.683V39.91zM58.81 42.983c2.855.145 5.94.543 9.265 1.295 4.15.58 6.102 1.188 11.85.448l.724 3.208c-4.603 1.284-9.06.13-13.485-.62-2.908-.635-5.732-.94-8.418-1.018l.063-3.314zm20.568 39.018c-4.634.758-11.177 1.827-19.487.468l.443-3.31c8.026 1.137 14.965.072 18.858-.565l.382-.062-.194 3.47zm.166 18.263l-.405 3.312c-8.04-1.04-14.966.104-18.85.787l-.383.065.155-3.472c4.626-.812 11.156-1.956 19.482-.693zM59.907 74.76v-3.1h19.666v3.1H59.907zm0-19.554v-3.1h19.666v3.1H59.907zm11.564 56.63c-4.19-.12-6.195-.508-11.827.865l-1.072-3.106c4.43-1.786 8.99-1.135 13.47-.88 2.962.312 5.802.303 8.48.08l.305 3.3c-2.858.174-5.966.12-9.354-.258zM88.684 68.99h17.453v17.883H88.683V68.99zm21.635 21.11s-.992 2.55-2.63 6.307c-1.628 3.767-3.8 8.78-6.297 13.67-.63 1.244-1.27 2.487-1.893 3.71-.327.64-.657 1.272-.98 1.897l-.016.027-.216.277-.035.05c-.323.383-.955.82-1.483.958-.553.187-1.173.18-1.646.082-.43-.094-.81-.266-1.013-.383-.912-.565-1.052-.867-1.313-1.135-.437-.524-.642-.88-.863-1.24-.804-1.395-1.238-2.58-1.523-3.796-.303-1.19-.475-2.324-.574-3.38-.21-2.11-.1-3.92.066-5.208.155-1.285.4-2.05.4-2.05.063-.203.276-.313.48-.25.055.02.104.05.143.085 0 0 .586.55 1.378 1.556.8 1.006 1.826 2.463 2.813 4.246.496.89.99 1.86 1.453 2.875l.016.034c.205-.29.414-.582.623-.866 3.06-4.438 6.22-8.89 8.586-12.226 2.346-3.35 3.97-5.557 3.97-5.557.105-.145.313-.173.453-.068.117.095.16.253.105.387z"/></g></svg>