<svg xmlns="http://www.w3.org/2000/svg" width="140.667" height="170.5" viewBox="0 0 140.667 170.5"><path fill="#007E84" d="M128.29 85.62l8.042-8.03-8.816-7.16 5.688-9.83-10.367-4.642 2.942-10.968-11.203-1.793.004-11.366-11.306 1.172-2.92-10.972-10.614 4.045-5.675-9.836-9.206 6.666-8.013-8.053-7.17 8.82-9.83-5.688-4.635 10.372L34.238 25.4l-1.792 11.225-11.37-.017.77 7.365 50.393-.003v4.54H20.014l-8.74 2.334 4.052 10.615-9.838 5.66 6.668 9.205-8.05 8.015 8.82 7.164-5.7 9.832 10.39 4.637-2.965 10.98 11.213 1.79-.014 11.36 11.308-1.164 2.923 10.977 10.62-4.054 5.674 9.847 9.203-6.67 8.013 8.044 7.16-8.81 9.844 5.686 4.63-10.375 10.98 2.957L108 125.318l11.358.014-1.172-11.305 10.983-2.928-4.06-10.61 9.848-5.676-6.67-9.193zm-71.674 41.74l-1.454 4.077-2.84-4.965-4.268-7.232 3.967-2.21 2.92 5.884 10.167-16.684-8.49 21.13zm44.467-9.446H72.72v-4.54h28.363v4.54zm.19-17.006H45.51v-4.54h55.767v4.54h-.005zm.18-12.862h-55.76v-4.54h55.76v4.54zm.106-12.817H45.592v-4.542h55.966v4.54zm.078-12.59H45.504V58.1h56.138v4.54h-.004z"/></svg>