<svg xmlns="http://www.w3.org/2000/svg" width="140.5" height="170.5" viewBox="0 0 140.5 170.5"><g fill="#007E84"><path d="M89.426 65.213c4.57-2.956 8.024-7.078 8.423-10.293.17-1.35-.035-3.31-3.746-4.71-1.103-.417-2.407-.79-3.553-.79-.863 0-1.64.21-2.18.768-2.376 2.466-.968 10.48-.09 12.574.17.39.343.744.515 1.077.215.427.437.877.63 1.373zM74.272 43.29c-.697-.957-2.18-1.445-4.29-1.445-1.022 0-2.187.113-3.487.347-4.866.868-5.435 3.57-5.436 5.523-.01 4.098 2.844 9.31 6.73 13.55 1.57-2.04 3.066-4.32 4.324-6.704 2.69-5.092 3.516-9.41 2.158-11.27zM41.287 51.337c-4.076 1.2-3.798 3.39-3.693 4.216.41 3.213 3.85 7.282 8.322 10.278.177-1.02.463-1.97.868-2.824 1.036-2.185 2.858-8.99.832-11.36-.59-.687-1.562-.936-2.66-.936-1.188 0-2.518.29-3.67.627zM90.03 77.407c-1.12-1.395-2.335-3.796-3.222-5.927-2.162.904-4.39 1.53-6.558 1.774-.413.05-.82-.002-1.432-.114-3.535-.644-7.274-2.712-10.655-5.55-3.604 3.898-7.684 6.89-10.987 6.757-2.092-.067-4.275-.51-6.436-1.25 1.27 4.263 4.146 8.615 8.08 10.627 13.906 7.11 13.173 17.832 12.397 29.186-.224 3.28-.44 6.66-.36 10.152H90.42l1.31-19.36C98.367 96.82 106.388 88.54 112 79.095c-.608.44-1.21.873-1.822 1.273-6.96 4.527-15.057 3.338-20.147-2.96zM68.736 7.074c-27.73 0-50.208 22.133-50.208 49.44 0 18.994 13.415 31.047 26.83 47.003l1.795 19.547h19.324c-.072-3.64.145-7.097.375-10.454.76-11.143 1.315-19.2-10.02-24.988-6.15-3.144-10.104-10.292-10.953-16.685-6.524-3.594-11.94-9.457-12.625-14.828-.544-4.267 1.932-7.537 6.796-8.968 5.023-1.476 8.687-.917 10.89 1.66 4.484 5.248-.152 15.97-.205 16.077-.435.918-.667 2.027-.708 3.247 2.398 1.08 4.905 1.772 7.285 1.85 1.62-.008 4.59-2.072 7.673-5.39-4.823-5.11-8.312-11.578-8.306-16.88.007-5.216 3.303-8.798 9.042-9.822 5.883-1.047 9.94-.1 12.083 2.824 3.148 4.316.748 11.024-1.823 15.893-1.25 2.37-3.01 5.096-5.035 7.693 2.774 2.324 5.787 4.02 8.54 4.52.178.03.317.06.425.076 1.88-.234 3.77-.792 5.585-1.574-.064-.417-.275-.846-.61-1.513-.21-.418-.43-.858-.64-1.348-.62-1.483-3.697-12.454.977-17.305 1.605-1.664 4.72-3.193 10.428-1.035 4.677 1.765 7.055 5.17 6.542 9.34-.618 4.958-5.453 10.462-11.47 14.043.72 1.765 1.79 4.008 2.71 5.155 2.78 3.438 8.208 6.04 14.348 2.04 2.474-1.615 4.885-3.673 7.43-5.853.416-.358.838-.718 1.265-1.077 1.538-4.235 2.466-8.656 2.466-13.257 0-27.3-22.48-49.434-50.207-49.434zM48.01 132.377h41.783l.332-4.94h-42.57zM48.86 141.674h40.303l.332-4.92H48.41zM49.676 150.55l4.588 2.166 1.08 5.565 3.813 1.087 2.16 4.596H78.07l2.165-4.596 2.68-1.086 1.08-5.564 4.495-1.088.374-5.576h-39.6z"/></g></svg>