<svg xmlns="http://www.w3.org/2000/svg" width="158" height="152" viewBox="0 0 158 152"><path fill="#007E84" d="M76.366 53.862c-.768-.95-1.515-1.807-2.256-2.58-.06.322-.046.665.002 1.085.083.733.913 1.595 2.254 1.495zM105.15 78.61l-.248.226c-1.304 1.014-2.878 2.745-6.336 4.068-6.018 2.3-9.29 2.742-17.58 4.705-10.46 2.442-21.473 11.08-23.9 13.266L54.53 97.74c3.088-2.785 12.066-10.656 25.727-14.057 6.484-1.617 12.053-2.535 16.668-4.262 3.68-1.377 4.812-2.746 5.896-3.706L86.088 48.838c-1.33-1.9-2.562-3.67-3.725-5.306l-1.468 2.315-2.6-2.06-2.443 2.25-1.982-2.662-2.945 1.54-1.224-3.088-3.245.727-.384-3.3-3.314-.132.484-3.29-3.175-.988 1.318-3.05-1.184-.75c-4.383 1.42-9.797 4.435-16.98 9.226l-1.712 1.142c-25.716 17.15-21.96 20.52-8.566 42.87l21.437 32.142c13.817 19.867 17.15 25.72 42.865 8.57l1.712-1.143c25.715-17.148 19.074-26.323 6.193-45.24zm-63.884.23L53.62 70.2 56 73.6l-12.356 8.643-2.378-3.402zm9.236 13.623l-2.3-3.168.328-.3C54.012 84.03 62.6 76.25 78.355 72.73c4.593-1.435 6.915-1.762 12.516-5.353l2.324 2.974c-4.143 3.59-9.332 4.582-14.293 5.977C64.99 79.533 55.415 88.01 50.833 92.164l-.33.3zM91.686 29.873l2.264-1.69-1.915-2.07 1.75-2.217L91.4 22.39l1.118-2.592-2.692-.843.405-2.792-2.812-.117-.332-2.804-2.755.618-1.04-2.62-2.5 1.305-1.685-2.26-2.077 1.91-2.21-1.75-1.51 2.384-2.59-1.12-.843 2.695-2.792-.41-.116 2.82-2.805.327.086 2.968-2.088.83 1.31 2.5-2.263 1.685L63.12 27.2l-1.753 2.21 2.384 1.512-1.12 2.592 2.7.84-.413 2.795 2.817.115.326 2.804 2.758-.618 1.04 2.625 2.502-1.31 1.688 2.263 2.074-1.914 2.21 1.75 1.51-2.38 2.595 1.114.84-2.69 2.795.407.115-2.82 2.804-.326-.62-2.756 2.627-1.042-1.31-2.5zM74.716 19.52c-.093-.91-.17-2.39.455-3.123.17-.2.207-.164.207-.164l.034-.032c.304-.22.838-.426 1.248-.436.432-.036.883.078 1.208.233.3.143.543.334.67.453.56.572.61.813.755 1.057.226.455.313.75.41 1.05.34 1.153.446 2.092.442 3.022.008.917-.067 1.772-.18 2.554-.215 1.572-.617 2.866-.963 3.77-.34.91-.653 1.42-.653 1.42-.082.136-.255.178-.392.096-.035-.023-.067-.052-.087-.086 0 0-.327-.502-.726-1.372-.406-.867-.896-2.11-1.295-3.58-.206-.722-1.034-3.968-1.13-4.863zM80.2 34.502c.018.91-.717 1.18-1.392 1.476-1.674.587-2.73-.4-2.82-1.193-.09-.812-.074-1.316.526-1.972.16-.176.194-.14.194-.14l.035-.033c.29-.194.8-.38 1.19-.385.413-.033.84.064 1.15.206.283.122.52.296.635.4.537.513.48 1.13.483 1.64z"/></svg>