<svg xmlns="http://www.w3.org/2000/svg" width="200" height="170.5" viewBox="7 0 200 170.5" enable-background="new 7 0 200 170.5"><path opacity=".7" fill="#007E83" enable-background="new" d="M187 36.012c-9.904.924-16.827-1.08-22.383-2.688-6.138-1.778-9.334-1.714-13.294.216l-2.028-4.156c5.04-2.462 9.354-2.603 16.472-.544 5.317 1.542 11.767 3.41 20.798 2.565 3.765-.352 7.014-.122 9.817.493v-18.74H142.49v8.328c1.603-.65 3.25-1.332 4.99-2.05l.537-.222c8.994-3.72 15.298-1.975 21.396-.284 5.542 1.536 11.28 3.125 19.903.976l1.114 4.49c-9.797 2.448-16.42.612-22.255-1.004-5.833-1.614-10.87-3.013-18.39.097l-.54.22c-2.367.98-4.59 1.895-6.757 2.758v15.98h25.577l-3.386 8.998 20.526-8.998h11.172v-5.826c-2.474-.667-5.555-.97-9.378-.61z"/><path fill="#007E83" d="M121.43 32.127c-.606.034-1.206.093-1.81.093-3.96 0-7.892-.742-12.032-2.456-1.016-.417-2.11-.97-3.285-1.562-6.15-3.096-13.124-6.607-22.456 1.2l-2.964-3.55c11.665-9.765 21.2-4.96 27.5-1.78 1.067.535 2.058 1.037 2.97 1.416 4.12 1.705 8.02 2.274 12.078 2.02V5.98H70.733v13.765c.1-.088.195-.166.29-.258 12.962-12.142 30.688-9.757 42.515-2.005L111 21.352c-10.31-6.76-25.69-8.912-36.807 1.51-1.164 1.087-2.315 2.045-3.46 2.903V36.75h11.63l13.718 12-.5-12h25.85v-4.623z"/><path opacity=".8" fill="#007E83" enable-background="new" d="M23.237 38.953c2.796 1.51 4.337 2.34 10.072-4.074 4.573-5.12 10.092-5.808 15.938-6.535 2.998-.375 6.047-.76 9.2-1.72V23.73h-46.83V37.94c5.707-2.138 9.043-.37 11.62 1.015zM58.447 31.418c-3.085.82-5.983 1.19-8.63 1.518-5.388.673-9.638 1.2-13.06 5.027-4.535 5.078-7.75 6.714-10.517 6.714-1.842 0-3.487-.726-5.197-1.65-2.356-1.265-4.605-2.458-9.427-.064v6.27h10.746l14.84 12.394-2.635-12.395h23.88V31.418z"/><path fill="#007E83" d="M142.228 137.75c0 13.46 5.717 24.39-17.278 24.39H91.708c-25.77 0-18.412-10.93-18.412-24.39 0-13.473.548-23.094 16.776-22.588 0 0 6.872 7.805 18.78 8.137 8.47.23 16.703-8.138 16.703-8.138 13.91 0 17.308 8.134 16.673 22.587zM130.896 90.572c0 5.256-.315 8.936-.938 16.005-.167 1.92-5.803 1.255-7.125 2.562-4.26 4.235-9.588 6.825-14.37 6.825-5.235 0-11.115-3.094-15.537-8.05-.873-.98-6.88.01-6.88-1.338V90.572c0-14.03 7.944-25.396 22.42-25.396 14.35 0 22.43 11.367 22.43 25.396z"/><path opacity=".7" fill="#007E83" enable-background="new" d="M145.89 134.4c.075 2.814.25 5.436.195 8.23-.004.228.454 5.566.683 5.566h29.414c21.074 0 16.294-10.112 16.294-22.593 0-10.507 1.495-18.143-5.388-20.288-.65-.197 4.66-2.835-1.736-7.265-6.822-4.744-3.92 3.322-6.57 6.992 0 0-1.7 4.113-4.983 9.064-7.637 11.534-8.87 23.28-10.364 20.646-.717-1.245-4.502-11.865-10.23-18.36-3.56-4.022-5.712-7.482-8.21-10.424-3.815-4.484.842-10.612-2.68-10.13-3.875.533-5.97 2.637-6.292 3.05-3.007 3.895.62 6.185-.04 6.342-4.454 1.023-5.205 3.802-5.068 8.546 0 0 3.83.487 7.464 2.515 4.197 2.364 7.21 5.945 7.51 18.11zM146.57 81.375c.027.71.096 1.4.192 2.086.516 3.425 1.717 6.583 3.602 9.228 3.77 5.29 9.156 8.713 14.06 8.508 4.904-.205 10.376-3.987 13.688-9.53 2.01-3.368 3.024-8.017 2.85-12.272 0 0 .616-.068 2.092-.52 4.486-1.376 10.474-2.755 7.762-5.898-2.208-2.57-7.34-1.91-8.56-1.776-1.35.158-2.46.314-2.46.314-3.15-7.08-9.163-11.586-17.645-10.566-11.068 1.317-16.042 8.742-16.31 19.137-.01.644.7.627.73 1.29z"/><path opacity=".8" fill="#007E83" enable-background="new" d="M40.278 82.354c0 10.143 9.23 18.367 16.664 18.367 7.457 0 16.663-8.224 16.663-18.366s-5.906-18.37-16.663-18.37c-10.66.004-16.664 8.227-16.664 18.37zM81.518 106.577c-.82-1.173-6.043-4.212-11.95-4.212 0 0-2.118 3.325-3.854 6.375-.766 1.33-2.615-.655-5.127-2-.72 1.75-1.475 2.812-3.234 2.812h-.818c-1.716 0-2.65-1.023-3.203-2.692-2.66 1.468-5.045 3.58-5.74 1.874-1.254-3.05-2.89-6.372-2.89-6.372-12.143 0-15.998 7.645-15.998 18.89 0 11.257-2.624 20.393 9.504 20.393h29.916l.256-12.75c.25-11.423 9.306-15.66 11.29-16.485 1.49-.627 3.576-1.05 3.576-1.05-.003-1.887-.658-3.238-1.728-4.783zm-24.58 30.95l-4.308-4.54 2.105-21.942h4.33l2.183 21.942-4.31 4.54z"/></svg>