<svg xmlns="http://www.w3.org/2000/svg" width="191.855" height="190" viewBox="0 0 191.855 190"><path opacity=".8" fill="#007E84" enable-background="new" d="M65.527 124.164c-.818-1.172-6.043-4.21-11.95-4.21 0 0-2.118 3.32-3.853 6.374-.77 1.33-2.614-.656-5.128-2-.722 1.75-1.478 2.812-3.232 2.812h-.818c-1.717 0-2.648-1.02-3.203-2.69-2.658 1.47-5.045 3.58-5.736 1.875-1.256-3.052-2.895-6.373-2.895-6.373-12.143 0-15.997 7.646-15.997 18.89 0 11.258-2.624 20.395 9.506 20.395h29.915l.258-12.748c.25-11.427 9.307-15.66 11.29-16.487 1.486-.627 3.574-1.05 3.574-1.05-.007-1.89-.66-3.244-1.73-4.79zm-24.58 30.947l-4.31-4.538 2.105-21.94h4.332l2.182 21.94-4.31 4.54z"/><path fill="#007E84" d="M126.238 155.335c0 13.46 5.717 24.396-17.28 24.396H75.717c-25.77 0-18.41-10.934-18.41-24.395 0-13.472.548-23.092 16.774-22.586 0 0 6.87 7.807 18.78 8.14 8.467.228 16.702-8.14 16.702-8.14 13.912 0 17.31 8.132 16.676 22.585zM114.906 110.16c0 5.256-.316 8.936-.94 16.004-.165 1.92-5.802 1.255-7.124 2.562-4.26 4.234-9.588 6.826-14.367 6.826-5.234 0-11.115-3.096-15.538-8.053-.873-.98-6.88.01-6.88-1.34v-16.004c0-14.03 7.942-25.396 22.42-25.396 14.347.004 22.43 11.37 22.43 25.4z"/><path opacity=".7" fill="#007E84" enable-background="new" d="M130.9 149.986c.072 2.812.248 5.437.19 8.23-.003.228.454 5.565.687 5.565h29.414c21.073 0 16.296-10.11 16.296-22.593 0-10.508 1.492-18.146-5.39-20.29-.65-.195 4.66-2.833-1.735-7.268-6.82-4.74-3.92 3.32-6.57 6.99 0 0-1.696 4.113-4.98 9.064-7.636 11.535-8.866 23.277-10.36 20.646-.72-1.246-4.502-11.86-10.23-18.355-3.56-4.023-5.71-7.48-8.21-10.43-3.81-4.478.845-10.607-2.68-10.128-3.874.533-5.97 2.64-6.292 3.052-3.006 3.894.62 6.185-.04 6.343-4.454 1.02-3.204 3.802-3.065 8.545 0 0 1.832.488 5.465 2.516 4.186 2.367 7.2 5.946 7.502 18.112zM129.594 101.605c.027.71.1 1.398.19 2.086.52 3.427 1.718 6.583 3.605 9.23 3.77 5.29 9.153 8.713 14.06 8.508 4.903-.203 10.378-3.986 13.69-9.527 2.01-3.368 3.022-8.02 2.85-12.27 0 0 .618-.066 2.095-.52 4.484-1.376 10.475-2.755 7.764-5.897-2.21-2.57-7.343-1.91-8.563-1.775-1.352.156-2.46.312-2.46.312-3.148-7.08-9.163-11.586-17.647-10.564-11.066 1.316-16.043 8.74-16.31 19.135-.017.64.696.623.724 1.285z"/><path opacity=".8" fill="#007E84" enable-background="new" d="M24.837 101.238c0 10.143 9.23 18.365 16.664 18.365 7.458 0 16.664-8.227 16.664-18.365 0-10.143-5.906-18.37-16.663-18.37-10.658.005-16.663 8.228-16.663 18.37z"/><path opacity=".6" fill="#007E84" enable-background="new" d="M71.916 8.787v19.3l46.107-.018.002 3.053-46.11.007v5.633l46.02-.006v3.054l-46.02.007v19.98h46.792l17.648 10.746-2.496-10.75 9.735.007V15.468l.002-3.05v-3.63h-71.68zm65.117 10.177s-4.625-.25-7.938 4.938c-1.46 2.283-.672 6.765.057 10.36.78 3.872 2.63 11.89-5.432 13.827-1.717.41-6.477.345-6.604.35H84.943v-3.06h32.137c-.008 0 5.117-.03 6.178-.41 5.4-1.944 3.172-7.303 2.34-11.256-.984-4.678-1.188-8.375.312-11.125 3.83-7.025 11.062-6.626 11.062-6.626l.06 3zM30.552 34.292c4.083-1 4.894-3.627 7.625-4.917 2.667-1.333 5.843-1.25 5.875-1.25l25.71-.035c.006-.2.043-.18.043-.382 0-8.696-10.184-20.84-23.27-20.84S22.842 17.312 22.842 30.2c0 3.44.94 6.394 2.446 9.158l1.817 2.905c2.373 3.48 5.24 6.36 8.403 10.12l.845 9.225 1 5.185.193 2.123 2.165 1.022.51 2.626 1.798.514 1.018 2.168h7.908l1.02-2.168 1.266-.514.51-2.626 2.12-.513.176-2.633.736-5.186.618-9.137c3.05-3.166 8.248-7.903 10.582-12.653l-19.125.058-.042-3.083 20.107-.01.16-.33c.35-.963.737-4.036.737-5.337l-25.753.01c-.163 0-2.542-.042-4.25.875-2.432 1.274-4.583 4.333-8.292 5.208l-.96-2.916z"/><path opacity=".9" fill="#007E84" enable-background="new" d="M121.08 45.39V19.818H65.5v8.273l52.525-.022.002 3.055-52.527-.008v5.65h19.28v-.008h33.124v3.055H93.09l-.003.005H65.5V54.92l22.11.014L92.5 74.06l5.7-19.218 22.88.09v-6.49H84.944v-3.05z"/></svg>