<svg xmlns="http://www.w3.org/2000/svg" width="125" height="166" viewBox="0 0 125 166"><path fill="#007E84" d="M91.385 63.43l4.636-3.454-3.915-4.246 3.583-4.536-4.88-3.09 2.288-5.305-5.512-1.728.83-5.715-5.764-.238-.676-5.742-5.643 1.267-2.126-5.368-5.12 2.675-3.452-4.63-4.252 3.916-4.526-3.59-3.098 4.882-5.303-2.287-1.724 5.516-5.718-.843-.236 5.777-5.745.67.177 6.073-4.275 1.7 2.678 5.12-4.63 3.446 3.915 4.25-3.59 4.528 4.883 3.095-2.293 5.305 5.523 1.723-.843 5.723 5.77.236.67 5.74 5.643-1.263 2.13 5.37 5.122-2.682 3.453 4.636 4.25-3.917 4.527 3.584 3.092-4.876 5.31 2.287 1.723-5.517 5.72.84.24-5.775 5.734-.67-1.267-5.64 5.374-2.135-2.682-5.114zm-16.377-19.9s-.993 2.555-2.633 6.313c-1.63 3.77-3.803 8.787-6.3 13.68-.634 1.246-1.272 2.49-1.896 3.715-.33.638-.66 1.27-.982 1.896l-.016.03-.217.275-.035.05c-.323.38-.956.82-1.484.96-.554.185-1.174.176-1.646.08-.433-.094-.813-.266-1.015-.383-.912-.567-1.053-.867-1.316-1.136-.438-.523-.643-.88-.865-1.24-.804-1.395-1.24-2.582-1.525-3.798-.302-1.192-.474-2.326-.574-3.383-.212-2.113-.1-3.924.067-5.213.155-1.287.402-2.053.402-2.053.063-.202.276-.312.478-.248.055.018.105.05.143.084 0 0 .587.55 1.38 1.557.8 1.006 1.827 2.463 2.81 4.25.5.89.995 1.86 1.456 2.876.006.01.01.023.017.034.205-.292.413-.583.622-.868 3.062-4.443 6.223-8.898 8.594-12.236 2.345-3.353 3.972-5.56 3.972-5.56.104-.145.312-.175.452-.07.12.095.163.254.108.387z"/><path opacity=".6" fill="#007E84" enable-background="new" d="M78.867 84.643l-1.45 4.645v58.09L62.57 127.733l-14.24 19.84V86.887l-.43-1.078-3.628.81v71.204l18.645-23.3 19.636 23.3v-72.64z"/><path fill="#007E84" d="M71.633 88.523l-3.235 5.103-4.734-3.75-4.445 4.097-3.613-4.85-3.454 1.81v42.08l10.077-14.04 10.616 14.04V89.047z"/></svg>