<svg xmlns="http://www.w3.org/2000/svg" width="160.667" height="172.5" viewBox="0 0 160.667 172.5"><path opacity=".6" fill="#007E84" enable-background="new" d="M144.67 38.14h-2.474c-.704-.04-12.89-.806-18.966 9.554-2.772 4.735-2.273 11.2-1.79 17.458.775 10.08 1.66 21.508-12.427 25.028-3.4.85-8.33.985-8.537.993h-54.97v-4.92h54.906c-.012 0 4.537-.12 7.413-.84 9.595-2.4 9.572-8.792 8.72-19.88-.542-7.014-1.11-14.262 2.448-20.326 7.648-13.054 22.766-12.02 23.4-11.973h2.28v-5.84H29.38V56.87c5.902 1.435 11.327 1.435 11.478 1.44l57.71-.04.004 4.91-57.698.042h-.056c-.632 0-5.647-.05-11.437-1.312v45.92h75.258l31.605 26.935-7.232-26.94 15.66.01V38.14zM45.287 72.384H98.57v4.913H45.285v-4.913z"/><path opacity=".7" fill="#007E84" enable-background="new" d="M45.507 91.177v-4.91h54.906V40.31H14.237v9.02c1.968 1.91 4.995 3.795 9.715 5.844 7.524 3.27 16.855 3.267 17.052 3.27l57.71-.037.005 4.913-57.698.04h-.057c-.908 0-10.712-.09-18.975-3.68-3.087-1.338-5.64-2.69-7.753-4.112V98.38l8.213.02-8.213 21.113 22.033-21.26 64.144.144v-7.22H45.507zm-.265-18.794h53.28v4.913H45.24v-4.913z"/><path opacity=".8" fill="#007E84" enable-background="new" d="M109.014 90.105c-3.4.854-8.33.985-8.537.996h-54.97v-4.914h54.906c-.012 0 4.537-.128 7.413-.844.61-.154 1.188-.327 1.73-.52V48.028H36.312v10.06c2.638.27 4.46.27 4.543.27l57.71-.04.003 4.913-57.7.04h-.055c-.358 0-2.063-.017-4.502-.246v54.816h43.734l9.11 28.87 7.058-28.87h13.34v-27.9c-.19.052-.35.117-.54.162zM45.286 72.383H98.57v4.913H45.285v-4.913z"/></svg>