<svg xmlns="http://www.w3.org/2000/svg" width="80.334" height="100" viewBox="0 0 80.334 100"><path fill="#007E83" d="M69.86 70.797l3.27-1.495-1.827-3.093 2.768-2.288-2.562-2.516 2.08-2.93-3.125-1.76 1.252-3.37-3.48-.896.343-3.574-3.593.032-.6-3.54-3.462.965-1.49-3.27-3.095 1.827-2.287-2.768-2.515 2.564-2.928-2.083-1.764 3.132-3.37-1.256-.58 2.267 14.937 5.54-.5 1.347-15.48-5.744-2.846-.27.034 3.592-3.54.596.964 3.462-3.27 1.49 1.83 3.094-2.772 2.287 2.57 2.52-2.086 2.928 3.127 1.764-1.252 3.367 3.48.897-.34 3.575 3.592-.036.6 3.545 3.46-.965L46.89 83l3.093-1.822 2.293 2.767 2.513-2.565 2.928 2.082 1.766-3.13 3.365 1.255.895-3.48 3.578.34-.036-3.59 3.543-.6-.97-3.46zM44.03 75.29l-.88 1.046-.295-1.783-.473-2.61 1.42-.22.22 2.065 4.848-3.827-4.84 5.33zm14.218 2.09l-8.406-3.12.5-1.346 8.405 3.12-.5 1.347zm1.926-5.022l-16.526-6.132.5-1.345 16.527 6.133-.5 1.347v-.002zm1.47-3.794l-16.53-6.132.502-1.343 16.526 6.13-.5 1.344zm1.44-3.785l-16.59-6.157.5-1.347 16.59 6.157-.5 1.346zm1.408-3.725l-16.64-6.172.5-1.345 16.64 6.173-.5 1.345z" opacity=".9"/><circle opacity=".4" fill="#007E83" cx="41.862" cy="44.117" r="20.636"/><circle stroke="#007E83" stroke-width="4" stroke-miterlimit="10" cx="41.862" cy="44.117" r="20.636" fill="none"/><path stroke="#007E83" stroke-width="6" stroke-linecap="round" stroke-miterlimit="10" fill="none" d="M28.212 61.08L6.265 83.497"/></svg>