<svg xmlns="http://www.w3.org/2000/svg" width="168" height="169" viewBox="0 0 168 169"><g fill="#fff"><path d="M145.494 95.085c-3.638 0-6.61 2.763-6.88 6.27h-24.23v-14.08h11.8c.268 2.308 2.236 4.106 4.658 4.106 2.603 0 4.71-2.07 4.71-4.624 0-2.557-2.107-4.627-4.71-4.627-2.422 0-4.393 1.8-4.657 4.108h-11.802V51.41h20.373c.27 3.505 3.244 6.268 6.882 6.268 3.813 0 6.905-3.036 6.905-6.783 0-3.748-3.092-6.785-6.906-6.785-3.637 0-6.61 2.762-6.88 6.267h-20.374v-31.81H43.178V65.95H22.465c-.27-3.506-3.243-6.268-6.88-6.268-3.815 0-6.906 3.036-6.906 6.783s3.09 6.783 6.905 6.783c3.637 0 6.61-2.762 6.88-6.266h20.712v32.372h-16.03c-.263-2.31-2.234-4.107-4.656-4.107-2.6 0-4.71 2.07-4.71 4.626s2.11 4.626 4.71 4.626c2.424 0 4.396-1.802 4.66-4.11h16.027v19.56h12.808v12.563c-2.356.256-4.194 2.19-4.194 4.574 0 2.557 2.108 4.627 4.71 4.627 2.603 0 4.712-2.07 4.712-4.627 0-2.38-1.84-4.314-4.194-4.57V119.95h40.856v5.464c-2.354.256-4.192 2.19-4.192 4.574 0 2.557 2.108 4.625 4.71 4.625s4.71-2.068 4.71-4.625c0-2.38-1.84-4.318-4.194-4.574v-5.465h15.475v-17.562h24.23c.27 3.504 3.243 6.268 6.88 6.268 3.814 0 6.907-3.038 6.907-6.783 0-3.75-3.092-6.788-6.906-6.788zm-61.092-63.85h17.453v17.88H84.402v-17.88zM54.53 34.308c2.854.144 5.938.542 9.264 1.294 4.15.582 6.102 1.19 11.85.45l.724 3.207c-4.602 1.285-9.06.132-13.484-.618-2.908-.636-5.732-.942-8.418-1.02l.063-3.313zm20.568 39.017c-4.634.758-11.177 1.827-19.487.468l.443-3.31c8.026 1.137 14.965.072 18.858-.565l.383-.062-.195 3.47zm.166 18.263l-.405 3.312c-8.04-1.043-14.966.104-18.85.785l-.383.066.155-3.47c4.626-.81 11.156-1.956 19.482-.693zM55.626 66.086v-3.102h19.666v3.102H55.626zm0-19.555v-3.1h19.666v3.1H55.626zm11.564 56.63c-4.19-.12-6.196-.506-11.828.867l-1.072-3.108c4.43-1.787 8.988-1.136 13.47-.88 2.96.31 5.8.302 8.478.078l.305 3.302c-2.856.173-5.964.118-9.353-.26zm17.212-42.844h17.453v17.882H84.402V60.316zm21.635 21.108s-.992 2.552-2.63 6.31c-1.627 3.765-3.8 8.777-6.296 13.67-.63 1.243-1.27 2.485-1.892 3.71-.328.637-.658 1.27-.98 1.895l-.017.026-.215.275-.036.052c-.323.383-.955.82-1.483.96-.553.185-1.173.177-1.646.08-.43-.093-.81-.266-1.013-.382-.912-.566-1.053-.867-1.314-1.136-.438-.522-.643-.88-.863-1.24-.805-1.395-1.24-2.58-1.525-3.796-.3-1.19-.474-2.322-.572-3.38-.213-2.108-.102-3.92.066-5.207.154-1.285.4-2.05.4-2.05.063-.202.276-.312.478-.248.056.02.104.05.144.084 0 0 .586.55 1.378 1.556.8 1.006 1.824 2.46 2.81 4.245.497.89.993 1.86 1.456 2.875l.016.034c.205-.292.414-.583.623-.867 3.06-4.44 6.218-8.892 8.586-12.227 2.345-3.35 3.97-5.556 3.97-5.556.104-.146.312-.175.452-.07.12.095.16.253.105.387zM75.78 136.89v-16.938h-1.033v16.938c-3.573.262-6.39 3.184-6.39 6.76 0 3.746 3.09 6.783 6.906 6.783 3.813 0 6.906-3.037 6.906-6.783 0-3.58-2.817-6.502-6.39-6.76zM86.47 62.384h13.317V76.13H86.47zM86.47 33.303h13.317v13.745H86.47z"/></g></svg>