<svg xmlns="http://www.w3.org/2000/svg" width="158" height="152" viewBox="0 0 158 152"><path fill="#fff" d="M70.756 49.324c-.688-.85-1.357-1.62-2.02-2.312-.054.29-.042.597 0 .973.075.656.82 1.428 2.02 1.34zM96.543 71.494l-.223.203c-1.168.908-2.578 2.46-5.676 3.644-5.39 2.063-8.322 2.458-15.75 4.217-9.37 2.188-19.236 9.926-21.41 11.885l-2.29-2.81c2.766-2.495 10.81-9.546 23.047-12.593 5.81-1.45 10.798-2.272 14.933-3.82 3.297-1.233 4.31-2.46 5.28-3.32l-14.99-24.077c-1.19-1.703-2.295-3.29-3.336-4.753l-1.315 2.074-2.33-1.844-2.188 2.016-1.777-2.386-2.638 1.38-1.098-2.767-2.906.65-.344-2.954-2.97-.12.434-2.948-2.844-.885 1.18-2.732-1.06-.672c-3.926 1.272-8.776 3.972-15.212 8.264l-1.533 1.023C16.49 53.533 19.855 56.553 31.854 76.574l19.204 28.795c12.38 17.797 15.364 23.04 38.402 7.678l1.533-1.024c23.038-15.364 17.09-23.583 5.55-40.53zm-57.23.207l11.067-7.74 2.132 3.047-11.07 7.742-2.13-3.05zm8.273 12.204l-2.06-2.838.293-.268c4.91-4.45 12.603-11.42 26.717-14.574 4.115-1.285 6.195-1.578 11.213-4.795l2.08 2.663c-3.71 3.216-8.36 4.106-12.803 5.355-12.464 2.872-21.04 10.465-25.146 14.188l-.294.268zM84.48 27.833l2.027-1.513-1.715-1.855 1.568-1.986-2.137-1.352 1.002-2.32-2.412-.756.363-2.5-2.52-.105-.3-2.512-2.466.554-.932-2.35-2.24 1.17-1.51-2.025-1.86 1.713-1.98-1.57-1.354 2.137-2.32-1.002-.755 2.414-2.5-.367-.104 2.527-2.513.292.077 2.658-1.87.742 1.172 2.24-2.026 1.51 1.713 1.858-1.57 1.98 2.135 1.354-1.003 2.322 2.417.753-.37 2.503 2.524.104.292 2.512 2.47-.553.932 2.35 2.24-1.173 1.513 2.028 1.86-1.714 1.978 1.57 1.354-2.135 2.324.998.752-2.41 2.504.365.104-2.527 2.512-.292-.556-2.47 2.353-.934-1.175-2.237zm-15.2-9.276c-.085-.815-.155-2.14.405-2.797.152-.18.184-.146.184-.146l.03-.03c.27-.196.75-.382 1.117-.39.387-.032.79.07 1.082.21.267.127.486.298.6.405.502.512.546.727.676.946.202.407.28.672.366.94.305 1.034.4 1.875.396 2.71.008.82-.06 1.587-.16 2.288-.193 1.408-.553 2.567-.863 3.378-.305.813-.584 1.27-.584 1.27-.073.123-.228.16-.35.087-.032-.022-.06-.047-.08-.078 0 0-.292-.45-.65-1.23-.363-.776-.802-1.89-1.16-3.205-.183-.65-.925-3.558-1.01-4.36zm4.91 13.424c.015.817-.643 1.06-1.247 1.323-1.5.527-2.447-.356-2.527-1.068-.08-.727-.066-1.18.47-1.767.144-.158.175-.126.175-.126l.032-.03c.258-.173.715-.34 1.064-.344.37-.03.752.058 1.03.185.255.11.466.265.57.36.482.458.43 1.012.433 1.468z"/></svg>