<svg xmlns="http://www.w3.org/2000/svg" width="191.855" height="190" viewBox="0 0 191.855 190"><path opacity=".8" fill="#fff" enable-background="new" d="M65.527 126.297c-.818-1.172-6.043-4.21-11.95-4.21 0 0-2.118 3.32-3.853 6.374-.77 1.33-2.614-.655-5.128-2-.723 1.75-1.48 2.813-3.232 2.813h-.818c-1.717 0-2.647-1.02-3.203-2.69-2.657 1.47-5.045 3.58-5.735 1.875-1.256-3.052-2.896-6.373-2.896-6.373-12.143 0-15.997 7.646-15.997 18.89 0 11.258-2.624 20.395 9.507 20.395h29.913l.26-12.748c.248-11.426 9.306-15.66 11.29-16.485 1.484-.627 3.572-1.05 3.572-1.05-.007-1.892-.66-3.245-1.73-4.79zm-24.58 30.947l-4.31-4.54 2.105-21.94h4.332l2.182 21.94-4.31 4.54z"/><path fill="#fff" d="M126.238 157.468c0 13.46 5.717 24.396-17.28 24.396H75.717c-25.77 0-18.41-10.935-18.41-24.396 0-13.472.55-23.092 16.774-22.586 0 0 6.87 7.808 18.78 8.14 8.467.23 16.702-8.14 16.702-8.14 13.912 0 17.31 8.133 16.676 22.586zM114.906 112.293c0 5.256-.316 8.936-.94 16.004-.165 1.92-5.802 1.255-7.124 2.562-4.26 4.232-9.588 6.825-14.366 6.825-5.234 0-11.115-3.097-15.538-8.054-.873-.978-6.88.014-6.88-1.338v-16.004c0-14.03 7.94-25.396 22.42-25.396 14.346.005 22.428 11.372 22.428 25.4z"/><path opacity=".7" fill="#fff" enable-background="new" d="M130.9 152.12c.072 2.81.248 5.436.19 8.228-.004.23.453 5.566.687 5.566h29.414c21.073 0 16.296-10.11 16.296-22.594 0-10.508 1.492-18.146-5.39-20.29-.65-.195 4.658-2.833-1.735-7.27-6.82-4.737-3.92 3.323-6.57 6.993 0 0-1.696 4.11-4.978 9.062-7.638 11.535-8.867 23.277-10.36 20.646-.72-1.245-4.503-11.86-10.23-18.354-3.56-4.022-5.712-7.48-8.21-10.43-3.81-4.478.845-10.607-2.682-10.128-3.873.533-5.97 2.64-6.29 3.052-3.007 3.895.618 6.186-.04 6.344-4.455 1.02-3.205 3.803-3.065 8.545 0 0 1.832.487 5.465 2.516 4.184 2.368 7.197 5.947 7.5 18.113zM129.594 103.738c.026.71.1 1.397.19 2.086.52 3.426 1.717 6.582 3.604 9.23 3.77 5.288 9.153 8.712 14.062 8.507 4.902-.202 10.377-3.985 13.688-9.526 2.012-3.37 3.022-8.02 2.852-12.27 0 0 .617-.066 2.094-.522 4.484-1.375 10.476-2.754 7.765-5.896-2.21-2.57-7.344-1.91-8.563-1.775-1.352.157-2.46.313-2.46.313-3.147-7.08-9.163-11.586-17.647-10.564-11.066 1.315-16.043 8.74-16.312 19.133-.015.64.698.623.726 1.285z"/><path opacity=".8" fill="#fff" enable-background="new" d="M24.837 103.37c0 10.144 9.23 18.366 16.664 18.366 7.458 0 16.664-8.228 16.664-18.365C58.164 93.23 52.258 85 41.5 85c-10.658.006-16.663 8.23-16.663 18.37z"/><path opacity=".6" fill="#fff" enable-background="new" d="M71.916 10.92v19.3l46.107-.018.002 3.054-46.11.007v5.633l46.02-.006v3.054l-46.02.006v19.98h46.792l17.648 10.746-2.496-10.75 9.735.007V17.6l.002-3.05v-3.63h-71.68zm65.117 10.177s-4.625-.25-7.938 4.938c-1.46 2.283-.673 6.765.057 10.36.78 3.872 2.63 11.89-5.432 13.827-1.718.412-6.478.346-6.604.35H84.943v-3.058h32.137c-.008 0 5.117-.03 6.178-.412 5.4-1.943 3.173-7.302 2.34-11.255-.983-4.678-1.187-8.375.313-11.125 3.83-7.024 11.063-6.625 11.063-6.625l.06 3zM30.552 36.425c4.083-1 4.895-3.627 7.626-4.917 2.667-1.333 5.843-1.25 5.875-1.25l25.71-.035c.006-.2.043-.18.043-.382C69.806 21.146 59.62 9 46.536 9 33.45 9 22.84 19.446 22.84 32.333c0 3.44.94 6.394 2.446 9.158l1.817 2.906c2.373 3.48 5.24 6.36 8.402 10.12l.846 9.225 1 5.186.192 2.123 2.165 1.02.51 2.627 1.8.514 1.017 2.17h7.908l1.02-2.17 1.267-.513.51-2.626 2.12-.512.175-2.633.736-5.186.62-9.138c3.048-3.165 8.247-7.902 10.58-12.652l-19.124.058-.042-3.083 20.106-.01.16-.33c.35-.963.737-4.036.737-5.337l-25.753.01c-.163 0-2.542-.042-4.25.875-2.433 1.274-4.583 4.333-8.292 5.208l-.96-2.915z"/><path opacity=".9" fill="#fff" enable-background="new" d="M121.08 47.524V21.95H65.5v8.273l52.525-.022.002 3.056-52.527-.008v5.65h19.28v-.008h33.124v3.055H93.09l-.003.005H65.5v15.104l22.11.013 4.89 19.127 5.7-19.22 22.88.09v-6.49H84.944v-3.05z"/></svg>