<svg xmlns="http://www.w3.org/2000/svg" width="125" height="184" viewBox="0 0 125 184"><path fill="#fff" d="M96.998 72.35l4.636-3.454-3.916-4.246 3.583-4.536-4.878-3.09 2.287-5.305-5.513-1.728.83-5.715-5.765-.238-.676-5.742-5.642 1.267-2.127-5.368-5.12 2.675-3.452-4.63-4.252 3.916-4.526-3.59-3.098 4.882-5.304-2.287-1.724 5.516-5.717-.843-.236 5.777-5.746.67.176 6.073-4.275 1.7 2.678 5.12-4.63 3.446 3.915 4.25L34.92 71.4l4.882 3.094L37.51 79.8l5.522 1.722-.843 5.723 5.77.236.67 5.74 5.642-1.262 2.13 5.37 5.122-2.68 3.453 4.635 4.25-3.916 4.527 3.584 3.092-4.876 5.31 2.286 1.724-5.517 5.72.84.24-5.775 5.733-.67-1.266-5.64 5.374-2.135L97 72.35zM80.62 52.45s-.992 2.555-2.632 6.313c-1.63 3.77-3.804 8.787-6.302 13.68-.633 1.246-1.27 2.49-1.896 3.715-.327.638-.657 1.27-.98 1.896l-.016.03-.217.275-.035.05c-.323.38-.956.82-1.484.96-.554.185-1.174.176-1.646.08-.433-.094-.812-.266-1.014-.383-.912-.567-1.054-.867-1.316-1.136-.438-.523-.642-.88-.864-1.24-.804-1.395-1.24-2.582-1.525-3.798-.302-1.192-.474-2.326-.574-3.383-.213-2.113-.102-3.924.066-5.213.155-1.287.402-2.053.402-2.053.063-.202.276-.312.478-.248.055.018.105.05.143.084 0 0 .586.55 1.378 1.557.802 1.006 1.828 2.463 2.812 4.25.498.89.993 1.86 1.454 2.876.007.01.01.023.017.034.208-.292.415-.583.624-.868 3.062-4.443 6.224-8.898 8.595-12.236 2.344-3.353 3.97-5.56 3.97-5.56.105-.145.313-.175.453-.07.12.095.164.253.108.387z"/><path opacity=".6" fill="#fff" enable-background="new" d="M84.48 93.562l-1.45 4.645v58.09l-14.847-19.643-14.24 19.84V95.806l-.428-1.08-3.63.812v71.203l18.646-23.298 19.636 23.298v-72.64z"/><path fill="#fff" d="M77.246 97.443l-3.234 5.102-4.735-3.75-4.445 4.097-3.61-4.85-3.455 1.81v42.08l10.077-14.04 10.615 14.04V97.966z"/></svg>