<svg xmlns="http://www.w3.org/2000/svg" width="67.042" height="134.501" viewBox="0 0 67.042 134.50101" enable-background="new 0 0 125 184"><path d="M62.406 40.107l4.636-3.453-3.916-4.246 3.583-4.536-4.88-3.09 2.287-5.305-5.512-1.727.83-5.715-5.765-.238-.676-5.74-5.642 1.266-2.127-5.368-5.12 2.675L36.652 0 32.4 3.916 27.876.326l-3.098 4.882-5.303-2.287-1.724 5.517-5.717-.842-.236 5.777-5.745.67.176 6.073-4.275 1.7 2.678 5.12L0 30.382l3.916 4.252-3.588 4.526 4.882 3.094-2.293 5.305L8.44 49.28l-.843 5.723 5.77.236.67 5.738 5.643-1.262 2.13 5.37 5.122-2.68 3.453 4.635 4.25-3.915 4.527 3.584 3.092-4.878 5.31 2.286L49.29 58.6l5.72.84.24-5.774 5.733-.67-1.265-5.64 5.374-2.135-2.684-5.113zM46.03 20.21s-.994 2.553-2.634 6.31c-1.63 3.77-3.804 8.788-6.302 13.682-.633 1.245-1.27 2.49-1.896 3.714-.327.638-.657 1.27-.98 1.896l-.016.03-.217.275-.035.05c-.323.382-.956.822-1.484.96-.554.186-1.174.177-1.646.08-.433-.093-.812-.265-1.014-.382-.912-.567-1.054-.867-1.316-1.136-.438-.525-.642-.882-.864-1.24-.804-1.397-1.24-2.584-1.525-3.8-.3-1.192-.473-2.326-.573-3.383-.212-2.112-.1-3.923.067-5.212.155-1.287.402-2.053.402-2.053.063-.202.276-.312.478-.248.055.018.105.05.143.084 0 0 .587.55 1.38 1.557.8 1.006 1.827 2.463 2.81 4.25.5.89.994 1.86 1.455 2.876.007.012.01.024.017.035.206-.292.413-.583.622-.868 3.062-4.442 6.224-8.897 8.595-12.235 2.345-3.353 3.972-5.56 3.972-5.56.103-.145.31-.175.45-.07.122.095.165.253.11.387z" fill="#fff"/><path enable-background="new" opacity=".6" fill="#fff" d="M33.59 104.412l-14.238 19.84V63.564l-.43-1.08-3.628.812V134.5l18.645-23.297L53.573 134.5V61.863l-3.686-.542-1.45 4.645v58.09z"/><path fill="#fff" d="M30.24 70.65l-3.61-4.85-3.455 1.81v42.08l10.077-14.04 10.615 14.04V65.724l-1.213-.522-3.234 5.103-4.735-3.75z"/></svg>