<?xml version="1.0" encoding="UTF-8" standalone="no"?>
<!-- Generator: Adobe Illustrator 16.0.0, SVG Export Plug-In . SVG Version: 6.00 Build 0)  -->

<svg
   xmlns:dc="http://purl.org/dc/elements/1.1/"
   xmlns:cc="http://creativecommons.org/ns#"
   xmlns:rdf="http://www.w3.org/1999/02/22-rdf-syntax-ns#"
   xmlns:svg="http://www.w3.org/2000/svg"
   xmlns="http://www.w3.org/2000/svg"
   xmlns:sodipodi="http://sodipodi.sourceforge.net/DTD/sodipodi-0.dtd"
   xmlns:inkscape="http://www.inkscape.org/namespaces/inkscape"
   version="1.1"
   id="Layer_1"
   x="0px"
   y="0px"
   width="262.03299"
   height="262.034"
   viewBox="0 0 262.03299 262.034"
   enable-background="new 0 0 720 540"
   xml:space="preserve"
   inkscape:version="0.91 r13725"
   sodipodi:docname="dcent.svg"><metadata
     id="metadata11"><rdf:RDF><cc:Work
         rdf:about=""><dc:format>image/svg+xml</dc:format><dc:type
           rdf:resource="http://purl.org/dc/dcmitype/StillImage" /><dc:title></dc:title></cc:Work></rdf:RDF></metadata><defs
     id="defs9" /><sodipodi:namedview
     pagecolor="#ffffff"
     bordercolor="#666666"
     borderopacity="1"
     objecttolerance="10"
     gridtolerance="10"
     guidetolerance="10"
     inkscape:pageopacity="0"
     inkscape:pageshadow="2"
     inkscape:window-width="1440"
     inkscape:window-height="855"
     id="namedview7"
     showgrid="false"
     fit-margin-top="35"
     fit-margin-left="35"
     fit-margin-right="35"
     fit-margin-bottom="35"
     inkscape:zoom="0.43055556"
     inkscape:cx="-601"
     inkscape:cy="-330.8"
     inkscape:window-x="0"
     inkscape:window-y="0"
     inkscape:window-maximized="0"
     inkscape:current-layer="Layer_1"
     showborder="false" /><path
     d="m 139.01,111.108 c -1.1,0.735 -2.238,1.248 -3.41,1.54 -2.199,0.735 -4.585,1.54 -7.149,2.42 -2.567,0.879 -4.95,1.688 -7.15,2.419 -2.64,0.881 -5.135,1.761 -7.48,2.641 -1.76,0.736 -3.448,1.836 -5.06,3.3 -1.32,1.176 -2.53,2.678 -3.63,4.511 -1.1,1.835 -1.65,4.145 -1.65,6.93 l 0,1.1 0,45.541 c 0.145,1.908 0.55,3.74 1.21,5.5 0.66,1.761 1.684,3.301 3.08,4.619 1.392,1.32 3.3,2.385 5.72,3.189 2.42,0.809 5.39,1.211 8.91,1.21 3.665,0 6.71,-0.401 9.13,-1.211 2.42,-0.802 4.324,-1.869 5.72,-3.188 1.393,-1.319 2.382,-2.785 2.97,-4.399 0.585,-1.612 0.88,-3.152 0.88,-4.62 l 0,-46.641 0,-1.101 0,-27.28 c -0.296,1.616 -0.992,2.788 -2.091,3.52 z"
     id="path3"
     inkscape:connector-curvature="0"
     style="fill:#017f85" /><path
     d="M 131.017,35 C 77.988,35 35,77.988 35,131.017 c 0,53.029 42.987,96.017 96.016,96.017 53.029,0 96.017,-42.989 96.017,-96.017 C 227.033,77.988 184.046,35 131.017,35 Z M 159.8,185.91 c -0.147,7.629 -3.228,13.969 -9.239,19.029 -6.016,5.062 -15.4,7.591 -28.161,7.591 -6.6,0 -12.286,-0.696 -17.05,-2.091 -4.768,-1.393 -8.69,-3.301 -11.77,-5.721 -3.08,-2.42 -5.318,-5.241 -6.71,-8.471 -1.395,-3.225 -2.09,-6.673 -2.09,-10.34 l 0,-55.001 c 0,-5.572 1.43,-10.631 4.29,-15.179 2.86,-4.544 7.002,-7.772 12.43,-9.68 2.64,-0.88 5.645,-1.904 9.02,-3.08 3.372,-1.172 6.6,-2.31 9.68,-3.41 3.08,-1.1 5.792,-2.09 8.14,-2.97 2.344,-0.88 3.812,-1.392 4.4,-1.54 0.584,-0.292 1.354,-0.694 2.31,-1.21 0.952,-0.512 1.87,-1.282 2.75,-2.31 0.88,-1.024 1.65,-2.2 2.31,-3.52 0.66,-1.32 0.99,-2.86 0.99,-4.62 l 0,-4.18 0,-28.16 18.7,0 0,134.863 z"
     id="path5"
     inkscape:connector-curvature="0"
     style="fill:#017f85" /></svg>