<?xml version="1.0" encoding="utf-8"?>
<!-- Generator: Adobe Illustrator 19.0.1, SVG Export Plug-In . SVG Version: 6.00 Build 0)  -->
<svg version="1.1" id="svg3010" xmlns:svg="http://www.w3.org/2000/svg"
	 xmlns="http://www.w3.org/2000/svg" xmlns:xlink="http://www.w3.org/1999/xlink" x="0px" y="0px" viewBox="-379 185.5 200 190.5"
	 style="enable-background:new -379 185.5 200 190.5;" xml:space="preserve">
<style type="text/css">
	.st0{fill:#007E83;}
</style>
<g>
	<path class="st0" d="M-209.7,240.4c-7.1-12.2-16.8-21.9-29.1-29.1c-12.2-7.1-25.6-10.7-40.1-10.7c-14.5,0-27.9,3.6-40.1,10.7
		c-12.3,7.1-21.9,16.8-29.1,29.1c-7.2,12.3-10.7,25.6-10.7,40.1c0,14.5,3.6,27.9,10.7,40.1c7.1,12.2,16.8,21.9,29.1,29.1
		c12.3,7.1,25.6,10.7,40.1,10.7c14.5,0,27.9-3.6,40.1-10.7c12.2-7.1,21.9-16.8,29.1-29.1c7.1-12.3,10.7-25.6,10.7-40.1
		C-199,266.1-202.6,252.7-209.7,240.4L-209.7,240.4z M-268.9,322.6c-0.7-0.8-0.9-1.5-0.7-2.1c-0.1,0.3-0.3,0.7-0.7,0.9
		c-0.3-0.4-1-0.9-1.9-1.6c-0.9-0.6-1.5-1.1-1.9-1.6c-0.1-0.2-0.3-0.5-0.6-0.9c-0.2-0.4-0.5-0.9-0.9-1.5c-0.4-0.6-0.7-1.2-0.8-1.6
		c-0.2-0.5-0.2-0.7-0.1-0.8c-1.3,0.6-3.2,0.2-5.7-1.1c-0.5-0.3-1.2-1-2.2-2.2c-1-1.2-2-1.7-3-1.6c-0.3,0.1-0.8,0.2-1.4,0.4
		c-0.6,0.2-1.1,0.3-1.5,0.3c-0.4,0-1-0.1-1.7-0.4c-0.5-0.2-1.3-0.6-2.2-1.2c-0.9-0.6-1.6-1-1.9-1.1l-1.4-0.7l-1.7-0.8
		c-0.4-0.2-0.8-0.5-1.3-1c-0.5-0.4-0.7-0.9-0.9-1.4c-0.1-0.4-0.3-1.2-0.5-2.5c-0.2-1.2-0.5-2.1-0.8-2.7c-0.4-0.7-1-1.4-1.8-2.1
		c-0.8-0.7-1.5-1-2.1-1c0.6,0,0.6-0.5,0-1.4c-0.6-0.9-1-1.6-1.5-2c-0.1-0.1-0.6-0.6-1.2-1.4c-0.7-0.8-1.3-1.4-1.8-2
		c-0.5-0.6-0.9-1.2-1.2-1.9c-0.3-0.7-0.4-1.3-0.2-1.8c0.1-0.1,0-0.2-0.2-0.3c-0.2-0.1-0.5-0.3-0.8-0.4c-0.3-0.1-0.6-0.3-0.9-0.4
		c-0.3-0.1-0.5-0.2-0.6-0.2c0.1,0.3,0.3,0.8,0.5,1.5c0.2,0.7,0.4,1.3,0.6,1.6c0.1,0.3,0.7,1.3,1.8,3c1.8,2.9,2.6,5.1,2.5,6.5
		c-0.4,0.1-0.7,0.1-0.8-0.2c-0.1-0.3-0.2-0.7-0.3-1.1c-0.1-0.5-0.1-0.8-0.2-1c-0.2-0.4-0.7-0.9-1.6-1.4c-0.9-0.5-1.4-1-1.6-1.5
		c0.1,0,0.2,0,0.3-0.1c0.1-0.1,0.2-0.1,0.3-0.1c0.1-0.6-0.3-1.4-1.1-2.4c-0.8-1-1.1-1.7-1-2.1c-0.6-0.4-1-1.2-1.5-2.4
		c-0.4-1.2-0.8-2-1-2.3c-0.3-0.4-0.6-0.8-1-1.1c-0.4-0.3-0.9-0.7-1.6-1c-0.6-0.4-1-0.6-1.2-0.8c-0.1-0.1-0.4-0.4-0.8-0.9
		c-2.3-2.8-3-4.3-2.1-4.5c-0.9,0.2-1.6-0.5-2.2-2c-0.6-1.6-0.8-2.8-0.6-3.6l-0.2-0.1c0.1-0.3,0.1-1.1,0.1-2.5c0-1.4,0.1-2.6,0.3-3.7
		c0.2-1.1,0.5-1.7,1-1.7c-0.5,0.1-0.8-0.4-1.1-1.3c-0.2-0.9-0.3-1.6-0.1-1.9c0.1-0.2,0.4-0.1,0.9,0.4c0.5,0.5,0.9,0.8,0.9,0.9
		c0.9-0.5,1.2-1.1,1-1.9c-0.1-0.3-0.9-1-2.2-2.2c-3-1.9-4.5-2.9-4.6-2.8c0.4-0.8,0.3-1.4-0.3-2c-0.7,0.4-1.1,0.5-1.2,0.3
		c-0.1-0.2-0.2-0.6-0.3-1.1c-0.1-0.6-0.2-0.9-0.5-0.9c-0.3-0.1-0.8-0.3-1.3-0.8c6.2-9.9,14.3-17.6,24.5-23.1
		c0.4-0.1,1.2-0.1,2.3-0.1c0.5,0.1,1.1,0.2,1.6,0.5c0.5,0.3,1,0.7,1.5,1.1c0.5,0.5,0.9,0.8,1.2,1c0.1-0.4,0-1-0.5-1.9
		c0.1-0.4,0.9-0.8,2.3-1.2c1.6-0.2,2.6-0.2,3.1,0.1c-0.4-0.6-1.1-1.5-2.1-2.6l-0.5,0.5c-0.6-0.5-2-0.2-4.4,0.7
		c-0.1,0.1-0.5,0.3-1,0.6c-0.6,0.3-1,0.5-1.4,0.7c-0.4,0.1-0.8,0.2-1.2,0.1c3.3-1.8,6.6-3.2,9.8-4.3c0.2,0.1,0.6,0.4,1,0.9
		c0.5,0.4,0.9,0.8,1.1,1c-0.2-0.1-0.3-0.1-0.4,0.2c-0.3,0.8-0.3,1.5,0,2.1c0.3,0.5,0.8,0.8,1.4,0.8c0.6,0.1,1.3,0,2.1-0.1
		c0.8-0.1,1.4-0.2,1.7-0.2l1,0.1c2.2,0.2,3.1,0,2.6-0.6c0.2,0.3,0.5,0.8,0.7,1.7c0.3,0.9,0.6,1.5,0.9,1.8c0.3-0.3,0.4-0.8,0.2-1.5
		c-0.2-0.7-0.2-1.2,0-1.5c0.1-0.1,0.3-0.3,0.6-0.4c0.3-0.1,0.7-0.3,1.2-0.5c0.4-0.2,0.7-0.3,0.9-0.4c0.4-0.3,0.1-0.8-0.8-1.5
		c-0.1-0.1-0.4-0.2-0.9-0.3c-0.5-0.1-0.8-0.3-1.2-0.4c-0.3-0.1-0.7-0.3-1.1-0.6c-0.4-0.2-0.6-0.5-0.5-0.8c0-0.3,0.2-0.7,0.6-1.2
		c0.4-0.3,1.1-0.5,2-0.4c0.9,0.1,1.6,0.2,2.1,0.5c1.9,1,2.2,2,0.8,2.8c0.7,0.1,1.5,0.3,2.5,0.8c1,0.5,1.4,1,1.1,1.6
		c0.6-1,1.1-1.6,1.7-1.6c0.3,0.1,0.7,0.5,1,1.4c0.3,0.9,0.5,1.3,0.6,1.4c0.6,0.8,1.1,0.9,1.7,0.5c0.6-0.4,1.1-1,1.7-1.8
		c0.6-0.8,0.9-1.2,1-1.1c-0.7-0.3-0.8-0.6-0.2-0.8c1-0.6,2-0.8,2.8-0.5c0.2,0.1,0.5,0.5,0.8,0.9c0.6,1.2,0.5,1.8-0.3,1.8
		c0.6,0.6,0.9,1.2,0.8,2.1c-0.1,0.8-0.6,1.2-1.6,1.1c-0.3,0-0.8-0.2-1.5-0.5c-0.7-0.3-1.2-0.5-1.5-0.6c-0.3,0-0.8,0.2-1.5,0.6
		c-0.3,0.3-0.6,0.9-1.1,1.8c-0.5,0.8-0.8,1.4-1.2,1.8c-1,1-2.8,1.4-5.2,1.1c0.2,0,0.2,0.2-0.1,0.6c-0.2,0.4-0.6,0.9-1,1.4
		c-0.4,0.5-0.7,0.8-0.7,0.9c-0.6,0.7-1,1.5-1.2,2.4c0,0.1,0,0.6-0.1,1.4c-0.1,0.8-0.2,1.4-0.4,1.8c0.8-0.2,1.5,0.2,2,1.3
		c0.4,1,0.4,1.5,0,1.6c2.3-0.3,4.3-0.2,6,0.4c2.5,0.9,3.9,1.8,4.3,2.7c0.4-0.6,1.4-0.7,3-0.1c0.6,0.3,1.2,1.4,1.7,3.1
		c0.3,1,0.7,1.9,1.4,2.7c0.7,0.8,1.4,1,2.1,0.6l0.3-0.2c0.3-0.1,0.5-0.3,0.7-0.4c0.2-0.1,0.4-0.2,0.6-0.4c0.2-0.2,0.3-0.3,0.4-0.5
		c0-0.1,0-0.3-0.2-0.4c-0.5-0.4-0.8-1-1.1-1.7c-0.2-0.7-0.2-1.4,0.2-1.9c0.2-0.3,0.8-0.7,1.7-1.2c0.9-0.6,1.5-1.1,1.7-1.7
		c0.3-0.9-0.1-1.6-1-2.2c-1-0.6-1.5-1.1-1.5-1.6c0-0.3,0.2-0.8,0.7-1.2c0.5-0.5,0.6-0.9,0.6-1.4c0-0.2-0.1-0.6-0.4-1.3
		c-0.2-0.7-0.4-1.1-0.4-1.5c0-0.3,0.1-0.7,0.5-1.1c0.5-0.3,1.6-0.3,3.4,0.1c1.8,0.3,3,0.6,3.5,1c0.2,0.1,0.7,0.3,1.4,0.6
		c0.7,0.3,1.3,0.6,1.8,0.9c0.5,0.3,0.8,0.6,0.9,0.9h-0.5c0.5,0.4,0.8,0.9,0.9,1.5c0.1,0.6-0.2,1-0.8,1.2c0.4-0.1,1,0,1.7,0.3
		c1.1,0.4,1.1,0.8,0.1,1.1c0.2-0.1,0.5-0.1,0.9-0.2c0.4-0.1,0.7-0.2,0.9-0.3c0.1-0.1,0.3-0.2,0.5-0.4c0.2-0.2,0.4-0.3,0.5-0.3
		c0.1,0,0.3-0.1,0.5-0.1c0.2,0,0.4,0,0.6,0.2c0.1,0,0.2-0.2,0.5-0.5c0.2-0.3,0.5-0.7,0.8-1c0.3-0.3,0.5-0.5,0.7-0.5
		c0.2,0,0.4,0.1,0.6,0.3c0.2,0.2,0.3,0.4,0.4,0.6c0.1,0.2,0.2,0.4,0.3,0.7c0.1,0.2,0.2,0.4,0.3,0.6c0.1,0.3,0.5,0.7,1,1.1
		c0.5,0.4,0.9,0.7,1,1.1c0.1,0.2,0.2,0.7,0.4,1.6c0.2,0.8,0.5,1.4,0.8,1.7c0.3,0.3,0.9,0.6,1.6,0.8c0.1,0.1,0.5,0,0.9-0.1
		c0.5-0.1,0.9-0.2,1.2-0.1c0.3,0.1,0.5,0.3,0.5,0.8c0.4-0.4,0.6-0.7,0.6-0.8c0.1,0.9,0.3,1.6,0.7,2.2c0.4,0.6,1,0.8,1.8,0.7
		l-0.2,2.3c-0.2,0.3-0.7,0.6-1.6,0.8c-0.8,0.2-1.4,0.3-1.6,0.5c-0.2,0.1-0.7,0.5-1.5,1.2c-0.8,0.8-1.1,1.2-1,1.4
		c-1.2-1.3-2.9-1.7-5.3-1.1c-2.6,0.4-4.4,0.8-5.4,1.2c-1.1,0.6-1.9,1.1-2.3,1.6c-0.1,0.1-0.2,0.3-0.4,0.7c-0.2,0.4-0.3,0.8-0.5,1.1
		c-0.2,0.3-0.3,0.5-0.5,0.5c0.4-0.1,0.9-0.4,1.4-1c0.5-0.6,0.9-0.9,1-1c1.8-1.2,3.3-1.6,4.5-1.2c1.5,0.4,1.8,1,0.7,1.7
		c-0.1,0.1-0.5,0.2-1.1,0.2c-0.6,0-1,0-1.2,0.1c0.6,0.1,1.1,0.3,1.6,0.6c0.4,0.2,0.5,0.6,0.3,1c1.1,0.6,1.3,1.3,0.6,2.1
		c-0.9,0.9-2,1.3-3.2,1.1c0.2,0,0.2,0.1,0,0.4l-1.8,1.1c-0.1,0.1-0.6,0.2-1.4,0.5c-0.8,0.3-1.3,0.6-1.6,0.9
		c-0.2,0.3-0.3,0.7-0.3,1.2c0,0.6,0,1-0.1,1.3c-0.1,0.3-0.3,0.3-0.8,0.2c-0.2,0.4-0.8,0.7-1.9,1c-1.1,0.2-1.8,0.6-2.1,1.1
		c0.4,0.6,0.4,1.1-0.1,1.7c-0.8,0.7-1.6,0.6-2.2-0.2c-0.3,0.1-0.6,0.5-0.8,1c-0.2,0.6-0.4,0.9-0.8,1.1c0.5,0.8,0.4,1.3-0.2,1.7
		c0.1,0,0.2,0.1,0.5,0.2c0.2,0.1,0.5,0.3,0.8,0.5c0.3,0.2,0.4,0.3,0.5,0.3c-0.3,0.6-0.7,0.9-1.1,0.9c0.4,1.1-0.1,2.3-1.6,3.6
		c-0.3,0.3-0.7,0.5-1.3,0.8c-0.6,0.3-1.1,0.5-1.6,0.7c-0.5,0.2-0.8,0.3-0.8,0.4c-0.7,0.6-1.2,1.3-1.6,1.9c-0.3,0.7-0.4,1.3-0.2,1.9
		c0.2,0.6,0.9,1,1.9,1.3l0.1,0.8v1.9l0.1,0.8c0.1,0.5,0.1,0.9,0.2,1.3c0,0.4,0,0.9,0,1.5c0,0.6-0.2,0.9-0.5,1
		c-0.3,0.1-0.7,0-1.1-0.2c-0.6-0.3-1.2-1.8-2-4.6c-0.1-0.7-0.6-1.5-1.2-2.5c-0.3,0.3-0.6,0.6-0.9,0.7c-0.2,0.1-0.4,0.1-0.5,0.1
		c-0.1-0.1-0.3-0.2-0.6-0.5c-0.3-0.2-0.5-0.4-0.7-0.6c-0.3-0.2-1-0.4-1.8-0.5c-0.9-0.1-1.4-0.3-1.6-0.5c-1.7,1.3-2.7,0.9-3-0.9
		c-0.1,0.3-0.1,0.8,0,1.4c0.2,0.6,0.3,0.9,0.3,1c-0.5,0.9-1.2,1-2.3,0.2c-0.4-0.4-1.4-0.5-2.9-0.2c-1.5,0.3-2.5,0.4-3,0.2
		c0.1,0,0.2,0.1,0.4,0.3c0.2,0.1,0.3,0.2,0.4,0.3c-0.1,0.3-0.2,0.5-0.3,0.6c-0.1,0.1-0.3,0.2-0.4,0.2c-0.1,0-0.3,0-0.5,0
		c-0.2,0-0.3,0.1-0.5,0.2c-0.3,0.2-0.6,0.6-1,1.1c-0.4,0.5-0.7,0.8-0.9,1c0.4,1.1,0.6,2,0.6,2.6c0,0.6-0.1,1.5-0.3,2.6
		c-0.2,1.1-0.3,2.1-0.3,2.8c0,1.1,0.3,2.4,1,3.9c0.7,1.5,1.4,2.5,2.3,3c0.5,0.3,1.3,0.4,2.5,0.5c1.2,0.1,2,0,2.5-0.2
		c0.4-0.2,0.7-0.5,0.9-0.7c0.2-0.3,0.4-0.7,0.5-1.2c0.1-0.5,0.2-0.9,0.3-1.1c0.5-1.3,1.4-2,2.7-2.1c0.8-0.1,1.4,0,1.8,0.3
		c0.4,0.2,0.5,0.6,0.5,1c-0.1,0.4-0.2,0.9-0.4,1.3c-0.2,0.5-0.5,1-0.8,1.5c-0.3,0.6-0.5,1-0.6,1.3c-0.1,0.6-0.3,1.3-0.4,2.3
		c-0.1,1-0.2,1.6-0.3,1.8c0.1,0.1,0.7,0.1,1.6,0.1c0-0.1,0-0.4,0.2-0.7c0.1-0.3,0.2-0.5,0.2-0.6c0.3,0.6,0.9,0.9,1.7,0.9
		c0.8,0.1,1.3-0.2,1.7-0.8c0.1,0.2,0.6,0.7,1.3,1.6c0.7,0.8,1.1,1.5,1.1,2.1c0.1,0.3,0.2,0.7,0.4,1.4c0.2,0.6,0.3,1.1,0.2,1.3
		c-0.1,0.2-0.4,0.4-1,0.4c-0.3,0-0.4,0.1-0.5,0.3c-0.1,0.2-0.1,0.5,0,0.8c0.1,0.3,0.2,0.6,0.3,0.9c0.1,0.3,0.2,0.6,0.4,0.9
		c0.2,0.3,0.3,0.5,0.3,0.6c1.2,2.3,3,2.9,5.1,1.9c0,2-0.5,3.1-1.5,3.3C-267.6,323.8-268.2,323.4-268.9,322.6L-268.9,322.6z
		 M-267.4,346.1c-0.1-0.7-0.2-1.3-0.2-1.7c-0.1-0.6,0.2-1.3,0.7-2.2c0.6-0.9,0.8-1.6,0.8-2.1c-1.1-0.3-1.5-1.2-1.3-2.7
		c0.1-1,1.1-2.4,3-4.2c1.3-1.2,1.7-2.8,1.2-5c-0.2-0.9-0.4-2.2-0.5-4s-0.3-3-0.4-3.6c0,0.2,0.3,0.4,1,0.6c0.7,0.2,1.1,0.4,1.2,0.7
		c0.1-0.2,0.3-0.6,0.5-1.1c0.2-0.6,0.4-1,0.6-1.2c0.1-0.2,0.4-0.5,0.9-0.8c0.4-0.3,0.7-0.5,0.9-0.6c0.1-0.1,0.5-0.3,0.9-0.7
		c0.5-0.4,0.9-0.7,1.2-0.9c0.3-0.2,0.7-0.4,1.3-0.5c0.5-0.1,0.9,0,1.1,0.5c0.3,0.4,0.3,1.1-0.2,1.9c-0.5,0.9-0.5,1.5,0,1.8
		c0.1-0.2,0.1-0.7,0.2-1.4c0.1-0.7,0.3-1.2,0.6-1.6c0.4-0.4,0.8-0.7,1.2-0.7c0.4-0.1,0.7,0,1,0.2c0.3,0.2,0.7,0.4,1.1,0.7
		c0.4,0.3,0.8,0.5,1.1,0.6c1,0.3,2.3,1.1,3.7,2.3c-0.1-0.1-0.1-0.2,0-0.3c0.1-0.1,0.2-0.2,0.4-0.3c0.2-0.1,0.4-0.2,0.6-0.3
		c0.2-0.1,0.4-0.2,0.6-0.3l0.3-0.1c0.5,0,0.8,0,1-0.1c0.2-0.1,0.5,0,0.9,0.2c0.4,0.2,0.6,0.4,0.8,0.5c0.1,0.1,0.4,0.3,0.7,0.6
		c0.3,0.3,0.6,0.5,0.7,0.6c0.2,0.1,0.6,0.4,1.1,0.7c0.6,0.3,1,0.6,1.3,0.8c0.3,0.2,0.6,0.5,0.8,0.9c0.2,0.4,0.3,0.9,0.3,1.4
		c0.4,0.1,1.2,0.3,2.5,0.8c0.2,0.1,0.6,0.3,1.3,0.4c0.7,0.1,1.1,0.3,1.3,0.5C-240.9,337.1-253.1,343.6-267.4,346.1L-267.4,346.1z
		 M-267.4,346.1"/>
</g>
</svg>
