<?xml version="1.0" encoding="utf-8"?>
<!-- Generator: Adobe Illustrator 16.0.0, SVG Export Plug-In . SVG Version: 6.00 Build 0)  -->
<!DOCTYPE svg PUBLIC "-//W3C//DTD SVG 1.1//EN" "http://www.w3.org/Graphics/SVG/1.1/DTD/svg11.dtd">
<svg version="1.1" id="svg3010" xmlns:svg="http://www.w3.org/2000/svg"
	 xmlns="http://www.w3.org/2000/svg" xmlns:xlink="http://www.w3.org/1999/xlink" x="0px" y="0px" width="200px" height="190.5px"
	 viewBox="0 0 200 190.5" enable-background="new 0 0 200 190.5" xml:space="preserve">
<path fill="#007E83" d="M180,45.579c-5.9,2.611-12.207,4.373-18.852,5.188c6.781-4.069,12.001-10.512,14.443-18.174
	c-6.34,3.764-13.358,6.51-20.852,7.968c-6.001-6.409-14.546-10.408-23.971-10.408c-18.14,0-32.82,14.713-32.82,32.854
	c0,2.577,0.272,5.086,0.847,7.493c-27.292-1.356-51.5-14.443-67.673-34.346c-2.815,4.849-4.442,10.511-4.442,16.511
	c0,11.392,5.798,21.462,14.613,27.362c-5.391-0.136-10.477-1.628-14.885-4.103c0,0.136,0,0.271,0,0.406
	c0,15.936,11.325,29.192,26.346,32.21c-2.747,0.746-5.662,1.152-8.646,1.152c-2.103,0-4.171-0.203-6.171-0.61
	c4.169,13.054,16.308,22.547,30.684,22.819c-11.222,8.815-25.396,14.069-40.789,14.069c-2.644,0-5.255-0.168-7.832-0.474
	c14.512,9.426,31.77,14.85,50.283,14.85c60.418,0,93.442-50.077,93.442-93.509c0-1.425-0.034-2.849-0.103-4.238
	C170.03,57.955,175.591,52.157,180,45.579z"/>
</svg>
