<svg xmlns="http://www.w3.org/2000/svg" viewBox="-422 231 115 100" enable-background="new -422 231 115 100"><style type="text/css">.st0{fill:none;stroke:#FFFFFF;stroke-width:2;stroke-miterlimit:10;} .st1{fill:#FEFEFE;}</style><path class="st0" d="M-356.2 317.2l18.6-24.9M-393.6 316.2l19.7-28.1M-390.9 279.2h15.9M-355.8 279.2h16.4"/><path class="st1" d="M-412.1 309.8h19.1v9.9h-19.1zM-414.1 249.9v54.5h23.2v-54.5h-23.2zm17.2 23.7s-.5 1.2-1.2 2.9c-.8 1.8-1.8 4.1-2.9 6.4-.3.6-.6 1.2-.9 1.7-.2.3-.3.6-.5.9l-.1.1c-.2.2-.4.4-.7.4-.3.1-.5.1-.8 0-.2 0-.4-.1-.5-.2-.4-.3-.5-.4-.6-.5-.2-.2-.3-.4-.4-.6-.4-.7-.6-1.2-.7-1.8-.1-.6-.2-1.1-.3-1.6-.1-1 0-1.8 0-2.4.1-.6.2-1 .2-1 0-.1.1-.1.2-.1h.1s.3.3.6.7c.4.5.9 1.1 1.3 2 .2.4.5.9.7 1.3.1-.1.2-.3.3-.4 1.4-2.1 2.9-4.1 4-5.7 1.1-1.6 1.8-2.6 1.8-2.6 0-.1.1-.1.2 0 .2.4.2.5.2.5zM-375.6 309.8h20.3v9.9h-20.3zM-377 249.9v54.5h23.2v-54.5H-377zm17.2 23.7s-.5 1.2-1.2 2.9c-.8 1.8-1.8 4.1-2.9 6.4-.3.6-.6 1.2-.9 1.7-.2.3-.3.6-.5.9l-.1.1c-.2.2-.4.4-.7.4-.3.1-.5.1-.8 0-.2 0-.4-.1-.5-.2-.4-.3-.5-.4-.6-.5-.2-.2-.3-.4-.4-.6-.4-.7-.6-1.2-.7-1.8-.1-.6-.2-1.1-.3-1.6-.1-1 0-1.8 0-2.4.1-.6.2-1 .2-1 0-.1.1-.1.2-.1h.1s.3.3.6.7c.4.5.9 1.1 1.3 2 .2.4.5.9.7 1.3.1-.1.2-.3.3-.4 1.4-2.1 2.9-4.1 4-5.7 1.1-1.6 1.8-2.6 1.8-2.6 0-.1.1-.1.2 0 .2.4.2.5.2.5zM-338.5 309.8h20.3v9.9h-20.3zM-339.9 249.9v54.5h23.2v-54.5h-23.2zm17.2 23.7s-.5 1.2-1.2 2.9c-.8 1.8-1.8 4.1-2.9 6.4-.3.6-.6 1.2-.9 1.7-.2.3-.3.6-.5.9l-.1.1c-.2.2-.4.4-.7.4-.3.1-.5.1-.8 0-.2 0-.4-.1-.5-.2-.4-.3-.5-.4-.6-.5-.2-.2-.3-.4-.4-.6-.4-.7-.6-1.2-.7-1.8-.1-.6-.2-1.1-.3-1.6-.1-1 0-1.8 0-2.4.1-.6.2-1 .2-1 0-.1.1-.1.2-.1h.1s.3.3.6.7c.4.5.9 1.1 1.3 2 .2.4.5.9.7 1.3.1-.1.2-.3.3-.4 1.4-2.1 2.9-4.1 4-5.7 1.1-1.6 1.8-2.6 1.8-2.6 0-.1.1-.1.2 0 .2.4.2.5.2.5z"/></svg>