<svg xmlns="http://www.w3.org/2000/svg" width="115" height="100" viewBox="0 0 115 100"><path fill="#3F9EA3" d="M47.37 78.844h20.26v9.863H47.37z"/><path fill="#fff" stroke="#3F9EA3" stroke-width="2" stroke-miterlimit="10" d="M7.884 18.88H31.06v54.48H7.885z"/><path fill="#3F9EA3" d="M9.9 78.844h19.144v9.863H9.9zM25.08 42.626s-.464 1.19-1.23 2.94c-.757 1.758-1.77 4.095-2.933 6.376-.295.58-.59 1.16-.882 1.73l-.458.883-.007.015-.1.13-.016.022c-.15.178-.447.383-.692.447-.258.085-.547.08-.767.036-.203-.043-.38-.123-.473-.178-.424-.264-.49-.404-.614-.53-.204-.243-.298-.41-.402-.577-.375-.65-.58-1.202-.71-1.77-.14-.554-.22-1.083-.268-1.575-.098-.985-.047-1.83.03-2.428.074-.6.188-.957.188-.957.03-.094.13-.145.223-.115.025.008.048.023.066.04 0 0 .273.255.642.724.373.468.85 1.147 1.31 1.98.232.413.464.867.68 1.34.227.458.406.99.552 1.41.028.095.074.194.048.194-.033-.006-.003-.025-.297-.21-.06-.032-.202-.1-.368-.132-.183-.04-.43-.037-.654.033-.207.057-.474.234-.594.39l.022-.02.005-.003c-.038.05.097-.12-.086.11l.01-.01c.184-.22.37-.442.56-.665.377-.445.734-.986 1.1-1.486 1.426-2.07 2.9-4.146 4.004-5.7 1.093-1.563 1.85-2.59 1.85-2.59.05-.068.145-.083.21-.033.056.044.075.117.05.18zM61.473 42.626s-.463 1.19-1.228 2.94c-.758 1.758-1.77 4.095-2.934 6.376l-.88 1.73c-.155.297-.31.592-.46.883l-.006.014-.1.128-.016.023c-.15.18-.447.384-.692.448-.258.086-.547.082-.767.037-.204-.043-.38-.123-.474-.178-.424-.264-.49-.404-.614-.53-.204-.243-.298-.41-.402-.577-.375-.65-.58-1.203-.71-1.77-.14-.555-.22-1.084-.268-1.576-.098-.985-.047-1.83.03-2.428.074-.6.188-.957.188-.957.03-.095.13-.146.223-.116.026.008.05.023.067.04 0 0 .273.255.642.724.373.47.85 1.148 1.31 1.98.232.414.464.868.68 1.34.227.46.406.992.552 1.41.028.096.074.195.048.195-.033-.006-.003-.025-.297-.21-.062-.032-.203-.1-.37-.132-.182-.04-.43-.036-.653.034-.207.057-.474.234-.594.39l.022-.02.005-.003c-.04.05.096-.118-.087.11l.01-.01c.184-.22.37-.44.56-.664.377-.445.734-.986 1.1-1.486 1.426-2.07 2.9-4.147 4.003-5.702 1.095-1.562 1.852-2.59 1.852-2.59.05-.067.145-.082.212-.032.054.045.072.118.05.18zM101.08 42.626s-.465 1.19-1.23 2.94c-.757 1.758-1.77 4.095-2.933 6.376-.295.58-.59 1.16-.882 1.73l-.458.883-.007.015-.1.13-.016.022c-.152.178-.447.383-.693.447-.257.085-.546.08-.765.036-.203-.043-.38-.123-.474-.178-.423-.264-.49-.404-.613-.53-.203-.243-.297-.41-.402-.577-.374-.65-.578-1.202-.71-1.77-.142-.554-.22-1.083-.268-1.575-.098-.985-.048-1.83.03-2.428.074-.6.188-.957.188-.957.03-.094.13-.145.223-.115.026.008.05.023.068.04 0 0 .273.255.64.724.374.468.853 1.147 1.312 1.98.232.413.463.867.678 1.34.23.458.408.99.554 1.41.028.095.074.194.048.194-.033-.006-.003-.025-.297-.21-.06-.032-.202-.1-.368-.132-.183-.04-.432-.037-.654.033-.207.057-.475.234-.594.39l.02-.02.007-.003c-.038.05.097-.12-.087.11l.01-.01c.184-.22.37-.442.56-.665.378-.445.734-.986 1.1-1.486 1.427-2.07 2.9-4.146 4.005-5.7 1.092-1.563 1.85-2.59 1.85-2.59.05-.068.145-.083.21-.033.056.044.076.117.05.18z"/><path stroke="#3F9EA3" stroke-width="2" stroke-miterlimit="10" fill="none" d="M65.75 86.25l16.396-22"/><path fill="#fff" stroke="#3F9EA3" stroke-width="2" stroke-miterlimit="10" d="M45.225 18.88h23.177v54.48H45.225zM82.146 18.88h23.177v54.48H82.146z"/><path fill="#3F9EA3" d="M61.764 42.626s-.464 1.19-1.23 2.94c-.757 1.757-1.77 4.095-2.932 6.376-.295.58-.59 1.16-.882 1.73l-.458.883-.007.014-.1.128-.016.023c-.152.18-.448.384-.693.448-.258.086-.547.082-.767.037-.203-.043-.38-.123-.473-.178-.424-.264-.49-.404-.614-.53-.204-.243-.298-.41-.402-.577-.374-.65-.578-1.203-.71-1.77-.14-.555-.22-1.084-.267-1.576-.098-.984-.047-1.828.03-2.428.074-.6.188-.957.188-.957.03-.095.13-.146.224-.116.026.008.05.023.067.04 0 0 .274.255.643.724.373.47.85 1.148 1.31 1.98.232.414.464.867.68 1.34.227.46.406.992.552 1.41.028.096.074.195.048.195-.033-.006-.003-.025-.297-.21-.062-.032-.203-.1-.37-.132-.182-.04-.43-.036-.653.034-.207.057-.474.234-.594.39l.02-.02.006-.003c-.04.05.096-.118-.087.11l.008-.01.56-.664c.378-.445.735-.986 1.1-1.486 1.427-2.07 2.9-4.146 4.005-5.7 1.093-1.563 1.85-2.59 1.85-2.59.05-.07.145-.083.21-.034.055.044.074.117.05.18zM99.986 42.622s-.463 1.19-1.227 2.94c-.76 1.757-1.77 4.095-2.935 6.376l-.883 1.73-.458.883-.007.015-.1.13-.017.022c-.15.178-.446.383-.692.447-.258.086-.547.082-.767.037-.2-.042-.38-.122-.473-.177-.424-.264-.49-.404-.613-.53-.203-.243-.298-.41-.402-.577-.375-.65-.578-1.203-.71-1.77-.142-.555-.222-1.084-.27-1.576-.097-.984-.046-1.828.032-2.428.073-.6.188-.957.188-.957.03-.094.13-.145.223-.115.025.008.05.023.067.04 0 0 .273.255.642.724.373.47.85 1.148 1.31 1.98.232.414.464.867.68 1.34.227.46.406.992.552 1.41.03.096.074.195.05.195-.034-.007-.005-.026-.298-.21-.062-.033-.203-.102-.37-.133-.183-.04-.43-.037-.653.033-.207.057-.475.234-.595.39l.022-.02.005-.003-.087.11.01-.01c.184-.22.37-.442.56-.665.378-.445.733-.986 1.1-1.486 1.427-2.07 2.9-4.146 4.004-5.7 1.093-1.563 1.85-2.59 1.85-2.59.05-.07.146-.083.212-.034.056.044.076.118.05.18zM83.604 78.844h20.26v9.863h-20.26z"/><path stroke="#3F9EA3" stroke-width="2" stroke-miterlimit="10" fill="none" d="M28.354 85.225l16.87-23.975M31.06 48.187l14.165-.005M68.4 48.184l14.165-.005"/></svg>