<svg xmlns="http://www.w3.org/2000/svg" width="115" height="100" viewBox="0 0 115 100"><path fill="#3F9EA3" d="M91.825 61.585c0-4.872-15.366-8.82-34.324-8.82-18.957 0-34.324 3.948-34.324 8.82v11.488c0 4.87 15.368 8.82 34.325 8.82 18.96 0 34.325-3.95 34.325-8.82V61.585z"/><circle fill="#3F9EA3" stroke="#fff" stroke-width="2" stroke-miterlimit="10" cx="57.5" cy="82.825" r="15.572"/><path fill="#fff" d="M61.95 80.017c0-2.457-1.993-4.45-4.45-4.45-2.456 0-4.448 1.993-4.448 4.45 0 1.73.998 3.213 2.44 3.95L53.8 91.432h7.49l-1.755-7.48c1.428-.74 2.415-2.217 2.415-3.936z"/><path stroke="#3F9EA3" stroke-width="2" stroke-miterlimit="10" fill="none" d="M46.377 54.7L35.43 41.993M52.027 23.62L35.43 35.992M66.4 56.402l8.977-18.613"/><circle fill="#3F9EA3" cx="33.92" cy="38.464" r="4.894"/><circle fill="#3F9EA3" cx="75.377" cy="35.993" r="4.894"/><circle fill="#3F9EA3" cx="54.912" cy="22.437" r="4.894"/><circle fill="#3F9EA3" cx="77.602" cy="15.567" r="4.895"/><circle fill="#3F9EA3" cx="47.268" cy="6.138" r="4.894"/><path stroke="#3F9EA3" stroke-width="2" stroke-miterlimit="10" fill="none" d="M57.5 20.46l16.948-5.23M48.387 7.67l4.37 12.066"/></svg>