<svg xmlns="http://www.w3.org/2000/svg" width="115" height="100" viewBox="0 0 115 100"><path fill="#3F9EA3" d="M95.04 58.954c-.472 10.75-11.38 18.065-22.035 16.55C62.35 73.99 54.94 64.127 56.455 53.473c.754-5.313 4.127-11.8 5.62-21.062.075-.455.18-2.89-.288-4.49-.6-2.05-8.033-9.606-7.364-9.9.755-.332 1.94-.3 2.196-.848.49-1.053.35-2.21.667-2.338.245-.1 3.484.396 4.465-1.414 1.2-2.22-1.92-5.408 2.768-.545.438.457 1.22-.484 1.697-1.064.644-.778 1.092-1.706 1.193-1.737.723-.216 1.9 5.657 1.91 6.418.015 1.282.514 7.246.96 7.877 2.196 3.105 3.276 3.495 4.795 5.384 4.743 5.896 20.43 18.642 19.966 29.204z"/><path stroke="#3F9EA3" stroke-width="5" stroke-linecap="round" stroke-miterlimit="10" fill="none" d="M16.19 88.52L81.435 9.08"/><path fill="#fff" d="M67.492 31.25s.422 1.376.916 3.477c.496 2.104 1.145 4.906 1.395 7.857.06.742.094 1.49.065 2.28-.02.397-.043.802-.14 1.262-.052.23-.113.472-.244.755-.1.27-.45.684-.48.74l-.145.206c-.065.08-.144.17-.218.248-.152.17-.303.318-.463.454-.32.277-.696.52-1.126.69-.844.363-1.92.352-2.676.015-.77-.326-1.242-.826-1.555-1.27-.316-.444-.48-.868-.586-1.216-.104-.35-.14-.633-.155-.827l-.007-.306c-.002-.09.07-.166.16-.168.032 0 .062.008.088.022l.02.013.89.524c.267.152.594.312.925.45.34.126.693.2.96.173.27-.038.422-.108.696-.26.135-.068.3-.165.486-.282l.28-.18.144-.09.197-.16c.203-.182.084-.02.135-.058.03-.017.08-.1.124-.2.09-.204.173-.492.226-.793.115-.608.162-1.29.194-1.976.093-2.76-.048-5.63-.162-7.76-.145-2.14-.24-3.567-.24-3.567-.007-.082.057-.154.14-.16.07-.002.135.044.154.11zM69.89 29.795s1.835 2.014 3.5 4.14c.41.532.918 1.005 1.27 1.527.34.53.57 1.08.73 1.578.333.982.32 1.79.32 1.79-.002.067-.057.12-.123.12-.017-.002-.032-.005-.046-.012 0 0-.74-.32-1.497-1.032-.39-.35-.793-.788-1.135-1.316-.33-.537-.55-1.193-.865-1.79-1.246-2.394-2.32-4.896-2.32-4.897-.022-.05 0-.11.053-.133.04-.018.085-.006.115.025zM65.416 27.054s-1.532-2.218-2.986-4.48c-.367-.564-.763-1.11-1.09-1.65-.312-.546-.562-1.08-.754-1.552-.393-.937-.535-1.63-.535-1.63-.005-.028.013-.056.042-.06.017-.005.033 0 .045.01 0 0 .528.473 1.143 1.28.31.404.647.888.963 1.433.303.553.577 1.17.88 1.77 1.23 2.393 2.38 4.83 2.38 4.83.013.025.002.056-.023.067-.024.01-.05 0-.064-.018z"/></svg>