<svg xmlns="http://www.w3.org/2000/svg" viewBox="-422 231 115 100" enable-background="new -422 231 115 100"><style type="text/css">.st0{fill:#FFFFFF;}</style><path class="st0" d="M-364.5 301.5c-6.8 0-12.3 5.5-12.3 12.3 0 6.8 5.5 12.3 12.3 12.3s12.3-5.5 12.3-12.3c0-6.8-5.5-12.3-12.3-12.3zm3.8 20.9h-7.5l1.7-7.5c-1.4-.7-2.4-2.2-2.4-3.9 0-2.5 2-4.4 4.4-4.4 2.5 0 4.4 2 4.4 4.4 0 1.7-1 3.2-2.4 3.9l1.8 7.5zM-385.788 272.32l10.965 12.73-1.515 1.304-10.965-12.728zM-370.652 253.817l1.195 1.603-16.597 12.373-1.196-1.604zM-347.54 268.385l1.803.87-9 18.642-1.8-.87z"/><circle class="st0" cx="-388.1" cy="269.5" r="4.9"/><circle class="st0" cx="-346.6" cy="267" r="4.9"/><circle class="st0" cx="-367.1" cy="253.4" r="4.9"/><circle class="st0" cx="-344.4" cy="246.6" r="4.9"/><circle class="st0" cx="-374.7" cy="237.1" r="4.9"/><path class="st0" d="M-347.85 245.313l.59 1.91-16.913 5.22-.59-1.91zM-372.635 238.376l4.358 12.035-1.88.682-4.358-12.035zM-364.5 283.8c-19 0-34.3 3.9-34.3 8.8v11.5c0 3.4 7.7 6.4 18.9 7.9.9-7.7 7.5-13.7 15.4-13.7 8 0 14.5 6 15.4 13.7 11.2-1.5 18.9-4.4 18.9-7.9v-11.5c0-4.9-15.3-8.8-34.3-8.8z"/></svg>