<svg xmlns="http://www.w3.org/2000/svg" viewBox="-422 231 115 100" enable-background="new -422 231 115 100"><style type="text/css">.st0{fill:#FFFFFF;} .st1{fill:#007E84;}</style><path class="st0" d="M-329.8 282.1l-36.5-21 2.3-1.3 37.8 21.7zM-369.9 310.1l-1.2-1.9 22.5-14.3 1.2 1.9zM-397.122 285.97l12.725 14.774-1.667 1.436-12.725-14.775zM-407.7 298.2h44.2v22.1h-44.2z"/><path class="st1" d="M-389.3 307.1h20v2.2h-20zM-389.3 311.6h20v2.2h-20z"/><path class="st0" d="M-400.4 306.9h6.7v6.7h-6.7z"/><path class="st1" d="M-400.9 306.4h7.8v7.9h-7.8z"/><path class="st0" d="M-333 288.9h17v1.1h-17zM-333 292.8h17v1.1h-17zM-342.4 288.4h5.7v5.7h-5.7zM-366.3 250.2h17v1.1h-17zM-366.3 254h17v1.1h-17zM-375.7 249.6h5.7v5.7h-5.7zM-399.2 276.4h17v1.1h-17zM-399.2 280.2h17v1.1h-17zM-408.6 275.8h5.7v5.7h-5.7zM-349.3 280.3v20.1h39v-20.1h-39zm36.8 17.9H-347v-15.7h34.5v15.7zM-382.6 241.5v20.1h39v-20.1h-39zm36.8 17.9h-34.5v-15.7h34.5v15.7zM-415.5 267.7v20.1h39v-20.1h-39zm36.7 17.9h-34.5V270h34.5v15.6z"/></svg>