<svg xmlns="http://www.w3.org/2000/svg" width="115" height="100" viewBox="0 0 115 100"><path stroke="#3F9EA3" stroke-width="2" stroke-miterlimit="10" fill="none" d="M92.302 51.944L57.63 32.006M73.813 61.514L52.333 75.07M39.177 68.293l-11.335-13.16"/><path fill="#3F9EA3" stroke="#3F9EA3" stroke-miterlimit="10" d="M19.684 65.815H58.11V84.52H19.684z"/><path stroke="#fff" stroke-width="2" stroke-miterlimit="10" fill="none" d="M53.32 74.233H35.54M53.32 78.286H35.54"/><path fill="#fff" stroke="#F1F1F2" stroke-miterlimit="10" d="M25.72 73.102h5.97v6.005h-5.97z"/><path fill="#fff" stroke="#3F9EA3" stroke-width="2" stroke-miterlimit="10" d="M72.254 50.35h32.76V66.3h-32.76z"/><path stroke="#3F9EA3" stroke-miterlimit="10" fill="none" d="M100.934 57.526h-15.16M100.934 60.982h-15.16"/><path fill="#3F9EA3" d="M77.4 56.562h5.09v5.118H77.4z"/><path fill="#fff" stroke="#3F9EA3" stroke-width="2" stroke-miterlimit="10" d="M42.56 15.84h32.762v15.95H42.56z"/><path stroke="#3F9EA3" stroke-miterlimit="10" fill="none" d="M71.238 23.016h-15.16M71.238 26.47h-15.16"/><path fill="#3F9EA3" d="M47.708 22.052h5.09v5.118h-5.09z"/><path fill="#fff" stroke="#3F9EA3" stroke-width="2" stroke-miterlimit="10" d="M13.206 39.184h32.762v15.95H13.206z"/><path stroke="#3F9EA3" stroke-miterlimit="10" fill="none" d="M41.884 46.36h-15.16M41.884 49.816h-15.16"/><path fill="#3F9EA3" d="M18.353 45.396h5.09v5.12h-5.09z"/></svg>