<svg xmlns="http://www.w3.org/2000/svg" width="115" height="100" viewBox="0 0 115 100"><path fill="#3F9EA3" d="M24.206 22.527c-9.6 16.42-4.057 37.59 12.36 47.19 3.465 2.03 7.145 3.37 10.878 4.09l6.5-11.11c-3.904 0-7.858-.98-11.463-3.09-10.84-6.342-14.5-20.32-8.162-31.163C40.66 17.602 54.64 13.938 65.48 20.28c10.084 5.896 13.945 18.4 9.34 28.842l12.393.066c4.092-14.72-2.022-30.953-15.816-39.022-16.42-9.602-37.59-4.057-47.19 12.36z"/><path fill="none" d="M77.686 80.208l-3.33 5.837 3.39 5.803 6.722-.036 3.33-5.837-3.392-5.8z"/><path fill="#3F9EA3" d="M90.488 80.235c-2.123-3.676-6.068-5.63-10.035-5.405l-16.46-28.484c2.478-3.704 2.813-8.636.435-12.755-2.533-4.383-7.403-6.574-12.13-5.91l3.56 6.156c1.377 2.384.562 5.438-1.825 6.813-2.385 1.378-5.436.562-6.813-1.822l-3.347-5.792c-2.403 3.69-2.696 8.562-.343 12.634 2.38 4.117 6.82 6.287 11.267 5.99l16.7 28.898c-1.706 3.202-1.78 7.183.17 10.556 3.002 5.197 9.65 6.976 14.847 3.975 5.2-3.008 6.976-9.656 3.974-14.855zm-6.02 11.577l-6.722.035-3.39-5.803 3.33-5.837 6.72-.034 3.39 5.8-3.328 5.84z"/></svg>