<svg xmlns="http://www.w3.org/2000/svg" viewBox="-422 231 115 100" enable-background="new -422 231 115 100"><style type="text/css">.st0{fill:#FFFFFF;}</style><path class="st0" d="M-397.8 253.5c-9.6 16.4-4.1 37.6 12.4 47.2 3.5 2 7.1 3.4 10.9 4.1l6.5-11.1c-3.9 0-7.9-1-11.5-3.1-10.8-6.3-14.5-20.3-8.2-31.2 6.3-10.8 20.3-14.5 31.2-8.2 10.1 5.9 13.9 18.4 9.3 28.8l12.4.1c4.1-14.7-2-31-15.8-39-16.4-9.5-37.6-4-47.2 12.4zM-331.5 311.2c-2.1-3.7-6.1-5.6-10-5.4l-16.5-28.5c2.5-3.7 2.8-8.6.4-12.8-2.5-4.4-7.4-6.6-12.1-5.9l3.6 6.2c1.4 2.4.6 5.4-1.8 6.8-2.4 1.4-5.4.6-6.8-1.8l-3.3-5.8c-2.4 3.7-2.7 8.6-.3 12.6 2.4 4.1 6.8 6.3 11.3 6l16.7 28.9c-1.7 3.2-1.8 7.2.2 10.6 3 5.2 9.7 7 14.8 4 5-3 6.8-9.7 3.8-14.9zm-6 11.6h-6.7l-3.4-5.8 3.3-5.8h6.7l3.4 5.8-3.3 5.8z"/></svg>