<?xml version="1.0" encoding="utf-8"?>
<!-- Generator: Adobe Illustrator 16.0.0, SVG Export Plug-In . SVG Version: 6.00 Build 0)  -->
<!DOCTYPE svg PUBLIC "-//W3C//DTD SVG 1.1//EN" "http://www.w3.org/Graphics/SVG/1.1/DTD/svg11.dtd">
<svg version="1.1" id="Layer_1" xmlns="http://www.w3.org/2000/svg" xmlns:xlink="http://www.w3.org/1999/xlink" x="0px" y="0px"
	 width="168px" height="169px" viewBox="0 0 168 169" enable-background="new 0 0 168 169" xml:space="preserve">
<g>
	<path fill="#FFFFFF" d="M145.494,95.085c-3.638,0-6.611,2.763-6.881,6.269h-24.23v-14.08h11.802
		c0.267,2.309,2.235,4.107,4.657,4.107c2.603,0,4.711-2.07,4.711-4.625c0-2.557-2.108-4.627-4.711-4.627
		c-2.422,0-4.393,1.8-4.657,4.109h-11.802V51.41h20.373c0.271,3.505,3.244,6.268,6.882,6.268c3.813,0,6.905-3.036,6.905-6.783
		c0-3.748-3.092-6.785-6.906-6.785c-3.637,0-6.609,2.762-6.881,6.267h-20.373V18.568H43.178v47.381H22.465
		c-0.269-3.505-3.243-6.267-6.88-6.267c-3.815,0-6.906,3.036-6.906,6.783s3.091,6.783,6.906,6.783c3.637,0,6.61-2.762,6.88-6.266
		h20.712v32.372H27.148c-0.264-2.309-2.235-4.107-4.657-4.107c-2.602,0-4.71,2.07-4.71,4.626s2.108,4.626,4.71,4.626
		c2.423,0,4.395-1.801,4.658-4.109h16.028v19.559h12.808v12.564c-2.356,0.256-4.194,2.191-4.194,4.574
		c0,2.557,2.107,4.627,4.71,4.627c2.602,0,4.711-2.07,4.711-4.627c-0.001-2.379-1.839-4.314-4.194-4.57v-12.568h40.856v5.465
		c-2.354,0.256-4.192,2.191-4.192,4.574c0,2.557,2.108,4.625,4.71,4.625s4.71-2.068,4.71-4.625
		c-0.001-2.381-1.839-4.318-4.194-4.574v-5.465h15.475v-17.561h24.23c0.27,3.504,3.243,6.268,6.881,6.268
		c3.813,0,6.906-3.038,6.906-6.783C152.4,98.122,149.308,95.085,145.494,95.085z M84.402,31.234h17.453v17.881H84.402V31.234z
		 M54.529,34.309c2.855,0.145,5.939,0.543,9.265,1.295c4.151,0.582,6.102,1.189,11.851,0.449l0.723,3.208
		c-4.602,1.284-9.06,0.131-13.484-0.619c-2.908-0.636-5.732-0.942-8.418-1.019L54.529,34.309z M75.098,73.327
		c-4.634,0.758-11.177,1.827-19.487,0.468l0.442-3.309c8.026,1.136,14.965,0.071,18.858-0.566l0.382-0.062L75.098,73.327z
		 M75.264,91.59l-0.405,3.312c-8.038-1.043-14.965,0.104-18.85,0.785l-0.382,0.066l0.155-3.471
		C60.408,91.472,66.938,90.327,75.264,91.59z M55.626,66.086v-3.102h19.666v3.102H55.626z M55.626,46.531V43.43h19.666v3.101H55.626
		z M67.19,103.161c-4.19-0.12-6.196-0.507-11.828,0.866l-1.072-3.108c4.43-1.786,8.988-1.135,13.469-0.879
		c2.962,0.31,5.802,0.302,8.479,0.078l0.305,3.302C73.687,103.593,70.579,103.538,67.19,103.161z M84.402,60.316h17.453v17.882
		H84.402V60.316z M106.037,81.424c0,0-0.992,2.552-2.629,6.309c-1.628,3.766-3.801,8.778-6.297,13.67
		c-0.632,1.244-1.27,2.486-1.893,3.711c-0.328,0.637-0.658,1.27-0.98,1.895l-0.017,0.027l-0.216,0.275l-0.036,0.051
		c-0.322,0.383-0.954,0.82-1.482,0.959c-0.553,0.186-1.173,0.178-1.646,0.08c-0.432-0.092-0.812-0.265-1.014-0.381
		c-0.912-0.566-1.053-0.867-1.314-1.136c-0.438-0.522-0.643-0.88-0.863-1.239c-0.805-1.396-1.24-2.58-1.525-3.797
		c-0.301-1.191-0.474-2.322-0.572-3.379c-0.213-2.109-0.102-3.92,0.066-5.208c0.155-1.286,0.401-2.051,0.401-2.051
		c0.063-0.202,0.276-0.312,0.478-0.248c0.056,0.019,0.104,0.05,0.144,0.084c0,0,0.586,0.55,1.378,1.556
		c0.8,1.006,1.824,2.461,2.811,4.245c0.496,0.89,0.992,1.861,1.455,2.875c0.004,0.011,0.01,0.023,0.016,0.034
		c0.205-0.292,0.414-0.583,0.623-0.867c3.059-4.438,6.218-8.891,8.586-12.226c2.344-3.35,3.969-5.556,3.969-5.556
		c0.104-0.146,0.312-0.175,0.452-0.07C106.051,81.132,106.092,81.29,106.037,81.424z"/>
	<path fill="#FFFFFF" d="M75.78,136.891v-16.939h-1.033v16.938c-3.573,0.262-6.391,3.184-6.391,6.76
		c0,3.746,3.092,6.783,6.907,6.783c3.813,0,6.906-3.037,6.906-6.783C82.169,140.07,79.353,137.148,75.78,136.891z"/>
	<rect x="86.47" y="62.384" fill="#FFFFFF" width="13.317" height="13.747"/>
	<rect x="86.47" y="33.303" fill="#FFFFFF" width="13.317" height="13.745"/>
</g>
</svg>
