<?xml version="1.0" encoding="utf-8"?>
<!-- Generator: Adobe Illustrator 16.0.0, SVG Export Plug-In . SVG Version: 6.00 Build 0)  -->
<!DOCTYPE svg PUBLIC "-//W3C//DTD SVG 1.1//EN" "http://www.w3.org/Graphics/SVG/1.1/DTD/svg11.dtd">
<svg version="1.1" id="Layer_1" xmlns="http://www.w3.org/2000/svg" xmlns:xlink="http://www.w3.org/1999/xlink" x="0px" y="0px"
	 width="158px" height="152px" viewBox="0 0 158 152" enable-background="new 0 0 158 152" xml:space="preserve">
<path fill="#FFFFFF" d="M70.756,49.324c-0.688-0.851-1.357-1.619-2.021-2.312c-0.053,0.289-0.041,0.597,0.002,0.973
	C68.811,48.641,69.555,49.413,70.756,49.324z"/>
<path fill="#FFFFFF" d="M96.543,71.494l-0.223,0.203c-1.168,0.908-2.578,2.459-5.676,3.644c-5.391,2.062-8.322,2.457-15.749,4.216
	c-9.372,2.188-19.237,9.926-21.412,11.885l-2.29-2.81c2.767-2.495,10.81-9.546,23.048-12.593c5.809-1.448,10.797-2.271,14.932-3.818
	c3.297-1.234,4.311-2.461,5.281-3.32l-14.99-24.078c-1.191-1.703-2.296-3.289-3.337-4.753l-1.315,2.074l-2.33-1.844l-2.188,2.016
	l-1.777-2.386l-2.638,1.38l-1.097-2.767l-2.906,0.651l-0.344-2.955l-2.97-0.12l0.434-2.947l-2.844-0.885l1.181-2.732l-1.061-0.672
	c-3.926,1.272-8.776,3.972-15.212,8.264l-1.533,1.023C16.49,53.533,19.855,56.553,31.854,76.574l19.204,28.795
	c12.379,17.798,15.364,23.041,38.402,7.679l1.533-1.024C114.031,96.66,108.082,88.441,96.543,71.494z M39.312,71.701l11.068-7.742
	l2.132,3.048l-11.069,7.742L39.312,71.701z M47.586,83.904l-2.06-2.838l0.293-0.268c4.911-4.45,12.604-11.42,26.718-14.574
	c4.115-1.285,6.195-1.578,11.213-4.795l2.081,2.664c-3.711,3.216-8.36,4.106-12.804,5.355
	c-12.464,2.872-21.041,10.465-25.146,14.188L47.586,83.904z"/>
<path fill="#FFFFFF" d="M84.48,27.833l2.027-1.513l-1.715-1.855l1.568-1.986l-2.137-1.351l1.002-2.321l-2.412-0.755l0.363-2.501
	l-2.521-0.104l-0.298-2.512l-2.467,0.554l-0.932-2.348l-2.24,1.17l-1.51-2.026l-1.861,1.713l-1.979-1.57l-1.354,2.137l-2.321-1.002
	l-0.754,2.414L62.44,13.61l-0.104,2.527l-2.513,0.292l0.077,2.659l-1.87,0.742l1.172,2.239l-2.026,1.51l1.713,1.859l-1.57,1.981
	l2.136,1.353l-1.003,2.322l2.417,0.753L60.5,34.35l2.524,0.104l0.292,2.512l2.47-0.553l0.932,2.351l2.241-1.174l1.512,2.028
	l1.858-1.714l1.979,1.569l1.354-2.134l2.324,0.999l0.752-2.411l2.504,0.366l0.104-2.527l2.512-0.292l-0.556-2.47l2.353-0.934
	L84.48,27.833z M69.279,18.557c-0.084-0.815-0.154-2.139,0.406-2.797c0.152-0.179,0.184-0.146,0.184-0.146l0.031-0.029
	c0.271-0.197,0.75-0.383,1.117-0.391c0.387-0.032,0.791,0.07,1.082,0.209c0.268,0.128,0.487,0.299,0.6,0.406
	c0.503,0.513,0.547,0.728,0.677,0.947c0.202,0.407,0.28,0.672,0.366,0.941c0.305,1.033,0.4,1.874,0.396,2.708
	c0.008,0.822-0.06,1.588-0.16,2.289c-0.193,1.408-0.553,2.567-0.863,3.378c-0.305,0.813-0.584,1.271-0.584,1.271
	c-0.074,0.122-0.229,0.16-0.352,0.086c-0.031-0.021-0.06-0.046-0.078-0.077c0,0-0.293-0.45-0.65-1.229
	c-0.364-0.777-0.803-1.89-1.16-3.206C70.107,22.267,69.365,19.359,69.279,18.557z M74.189,31.981
	c0.016,0.816-0.642,1.058-1.246,1.322c-1.5,0.527-2.447-0.356-2.527-1.068c-0.08-0.727-0.066-1.179,0.471-1.767
	c0.143-0.158,0.174-0.126,0.174-0.126l0.031-0.029c0.258-0.174,0.715-0.34,1.064-0.345c0.371-0.029,0.752,0.058,1.031,0.185
	c0.254,0.109,0.465,0.265,0.569,0.359C74.238,30.971,74.186,31.525,74.189,31.981z"/>
</svg>
