<?xml version="1.0" encoding="utf-8"?>
<!-- Generator: Adobe Illustrator 16.0.0, SVG Export Plug-In . SVG Version: 6.00 Build 0)  -->
<!DOCTYPE svg PUBLIC "-//W3C//DTD SVG 1.1//EN" "http://www.w3.org/Graphics/SVG/1.1/DTD/svg11.dtd">
<svg version="1.1" id="Layer_1" xmlns="http://www.w3.org/2000/svg" xmlns:xlink="http://www.w3.org/1999/xlink" x="0px" y="0px"
	 width="115px" height="100px" viewBox="0 0 115 100" enable-background="new 0 0 115 100" xml:space="preserve">
<path fill="#FFFFFF" d="M24.206,22.527c-9.601,16.421-4.057,37.589,12.361,47.192c3.464,2.029,7.144,3.368,10.877,4.09l6.5-11.113
	c-3.904,0-7.858-0.979-11.463-3.088c-10.842-6.342-14.502-20.321-8.163-31.164C40.66,17.602,54.64,13.938,65.48,20.28
	c10.084,5.896,13.944,18.399,9.338,28.842l12.395,0.066c4.092-14.72-2.021-30.953-15.816-39.022
	C54.977,0.564,33.808,6.109,24.206,22.527z"/>
<path fill="#FFFFFF" d="M90.488,80.234c-2.123-3.676-6.068-5.631-10.035-5.404L63.992,46.346c2.479-3.704,2.814-8.636,0.436-12.755
	c-2.533-4.384-7.403-6.575-12.13-5.911l3.559,6.156c1.378,2.384,0.563,5.438-1.824,6.813c-2.385,1.379-5.436,0.563-6.813-1.821
	l-3.347-5.792c-2.403,3.689-2.696,8.562-0.343,12.634c2.381,4.117,6.821,6.287,11.267,5.99l16.701,28.898
	c-1.707,3.201-1.781,7.183,0.168,10.555c3.003,5.197,9.65,6.977,14.848,3.976C91.713,92.082,93.49,85.434,90.488,80.234z
	 M84.468,91.812l-6.722,0.035l-3.391-5.804l3.33-5.837l6.721-0.034l3.391,5.802L84.468,91.812z"/>
</svg>
