<?xml version="1.0" encoding="utf-8"?>
<!-- Generator: Adobe Illustrator 16.0.0, SVG Export Plug-In . SVG Version: 6.00 Build 0)  -->
<!DOCTYPE svg PUBLIC "-//W3C//DTD SVG 1.1//EN" "http://www.w3.org/Graphics/SVG/1.1/DTD/svg11.dtd">
<svg version="1.1" id="Layer_1" xmlns="http://www.w3.org/2000/svg" xmlns:xlink="http://www.w3.org/1999/xlink" x="0px" y="0px"
	 width="191.855px" height="190px" viewBox="0 0 191.855 190" enable-background="new 0 0 191.855 190" xml:space="preserve">
<path opacity="0.8" fill="#FFFFFF" enable-background="new    " d="M65.527,126.297c-0.818-1.172-6.043-4.211-11.949-4.211
	c0,0-2.119,3.322-3.854,6.375c-0.771,1.329-2.614-0.656-5.128-2c-0.723,1.75-1.479,2.812-3.232,2.812h-0.818
	c-1.717,0-2.647-1.021-3.203-2.69c-2.657,1.469-5.045,3.579-5.735,1.875c-1.256-3.052-2.896-6.373-2.896-6.373
	c-12.143,0-15.997,7.646-15.997,18.89c0,11.258-2.624,20.395,9.507,20.395h29.913l0.259-12.748
	c0.249-11.426,9.307-15.659,11.291-16.485c1.484-0.627,3.572-1.051,3.572-1.051C67.25,129.195,66.596,127.842,65.527,126.297z
	 M40.947,157.244l-4.309-4.539l2.104-21.94h4.332l2.182,21.94L40.947,157.244z"/>
<path fill="#FFFFFF" d="M126.238,157.468c0,13.461,5.717,24.396-17.279,24.396H75.716c-25.769,0-18.409-10.935-18.409-24.396l0,0
	c0-13.472,0.548-23.092,16.773-22.586c0,0,6.871,7.808,18.779,8.14c8.468,0.229,16.703-8.14,16.703-8.14
	C123.474,134.882,126.871,143.015,126.238,157.468L126.238,157.468z"/>
<path fill="#FFFFFF" d="M114.906,112.293c0,5.256-0.316,8.936-0.939,16.004c-0.166,1.921-5.803,1.255-7.125,2.562
	c-4.26,4.233-9.588,6.826-14.366,6.826c-5.234,0-11.115-3.097-15.538-8.054c-0.873-0.979-6.881,0.013-6.881-1.339
	c0-7.518,0-10.744,0-16.004c0-14.031,7.942-25.396,22.422-25.396C106.824,86.897,114.906,98.264,114.906,112.293z"/>
<path opacity="0.7" fill="#FFFFFF" enable-background="new    " d="M130.9,152.119c0.072,2.812,0.248,5.437,0.19,8.229
	c-0.004,0.229,0.453,5.566,0.687,5.566h29.414c21.072,0,16.295-10.111,16.295-22.594l0,0c0-10.508,1.492-18.146-5.391-20.289
	c-0.648-0.196,4.659-2.834-1.734-7.27c-6.822-4.738-3.92,3.322-6.57,6.992c0,0-1.697,4.111-4.979,9.062
	c-7.638,11.535-8.867,23.277-10.361,20.646c-0.719-1.246-4.502-11.861-10.229-18.355c-3.56-4.022-5.712-7.48-8.209-10.429
	c-3.812-4.479,0.844-10.608-2.683-10.129c-3.873,0.533-5.969,2.64-6.291,3.052c-3.006,3.895,0.619,6.186-0.039,6.344
	c-4.455,1.021-3.205,3.803-3.065,8.545c0,0,1.832,0.488,5.465,2.517C127.584,136.374,130.597,139.953,130.9,152.119z"/>
<path opacity="0.7" fill="#FFFFFF" enable-background="new    " d="M129.594,103.738c0.026,0.709,0.1,1.397,0.19,2.086
	c0.519,3.426,1.717,6.582,3.604,9.229c3.771,5.289,9.153,8.713,14.062,8.508c4.902-0.203,10.377-3.986,13.688-9.527
	c2.012-3.369,3.022-8.02,2.852-12.271c0,0,0.617-0.065,2.094-0.521c4.484-1.375,10.476-2.754,7.765-5.896
	c-2.209-2.57-7.343-1.91-8.562-1.775c-1.352,0.156-2.461,0.312-2.461,0.312c-3.146-7.08-9.162-11.586-17.646-10.564
	c-11.066,1.316-16.043,8.74-16.312,19.134C128.853,103.094,129.566,103.076,129.594,103.738z"/>
<path opacity="0.8" fill="#FFFFFF" enable-background="new    " d="M24.837,103.371c0,10.143,9.229,18.365,16.664,18.365
	c7.457,0,16.663-8.228,16.663-18.365c0-10.143-5.906-18.37-16.663-18.37C30.842,85.006,24.837,93.229,24.837,103.371z"/>
<path opacity="0.6" fill="#FFFFFF" enable-background="new    " d="M71.916,10.92v19.3l46.107-0.018l0.002,3.054l-46.109,0.007
	v5.633l46.02-0.006v3.054l-46.02,0.006v19.98h46.791l17.648,10.746l-2.496-10.75l9.736,0.007V17.601l0.002-3.051v-3.63H71.916z
	 M137.033,21.097c0,0-4.625-0.25-7.938,4.938c-1.459,2.283-0.673,6.765,0.057,10.36c0.781,3.872,2.631,11.89-5.432,13.827
	c-1.718,0.412-6.478,0.346-6.604,0.351H84.943v-3.059h32.137c-0.008,0,5.117-0.031,6.178-0.412c5.4-1.943,3.173-7.302,2.341-11.255
	c-0.984-4.678-1.188-8.375,0.312-11.125c3.83-7.024,11.062-6.625,11.062-6.625L137.033,21.097z"/>
<path opacity="0.6" fill="#FFFFFF" enable-background="new    " d="M30.552,36.425c4.083-1,4.895-3.627,7.626-4.917
	c2.667-1.333,5.843-1.251,5.875-1.25l25.709-0.035c0.007-0.2,0.044-0.179,0.044-0.382C69.805,21.145,59.621,9,46.536,9
	C33.449,9,22.841,19.446,22.841,32.333c0,3.439,0.94,6.394,2.445,9.158l1.817,2.905c2.373,3.48,5.239,6.36,8.402,10.12l0.846,9.225
	l0.998,5.185l0.193,2.123l2.165,1.022l0.51,2.626l1.799,0.514l1.018,2.168h7.908l1.02-2.168l1.267-0.514l0.51-2.626l2.12-0.513
	l0.176-2.633l0.736-5.186l0.618-9.137c3.049-3.165,8.248-7.902,10.582-12.652l-19.125,0.058l-0.042-3.083l20.106-0.009l0.159-0.33
	c0.351-0.964,0.738-4.037,0.738-5.338l-25.753,0.01c-0.163,0-2.542-0.042-4.25,0.875c-2.433,1.274-4.583,4.333-8.292,5.208
	L30.552,36.425z"/>
<polygon opacity="0.9" fill="#FFFFFF" enable-background="new    " points="121.08,47.524 121.08,21.95 65.5,21.95 65.5,30.223 
	118.025,30.201 118.027,33.256 65.5,33.248 65.5,38.897 84.779,38.897 84.779,38.89 117.904,38.89 117.904,41.945 93.09,41.945 
	93.087,41.95 65.5,41.95 65.5,57.054 87.609,57.067 92.5,76.194 98.199,56.975 121.08,57.065 121.08,50.574 84.944,50.574 
	84.944,47.524 "/>
</svg>
