<?xml version="1.0" encoding="utf-8"?>
<!-- Generator: Adobe Illustrator 16.0.0, SVG Export Plug-In . SVG Version: 6.00 Build 0)  -->
<!DOCTYPE svg PUBLIC "-//W3C//DTD SVG 1.1//EN" "http://www.w3.org/Graphics/SVG/1.1/DTD/svg11.dtd">
<svg version="1.1" id="Layer_1" xmlns="http://www.w3.org/2000/svg" xmlns:xlink="http://www.w3.org/1999/xlink" x="0px" y="0px"
	 width="125px" height="184px" viewBox="0 0 125 184" enable-background="new 0 0 125 184" xml:space="preserve">
<path fill="#FFFFFF" d="M96.998,72.349l4.636-3.453l-3.916-4.246l3.583-4.536l-4.879-3.091l2.287-5.304l-5.512-1.727l0.83-5.715
	l-5.765-0.238l-0.676-5.741l-5.642,1.267l-2.127-5.368l-5.121,2.675l-3.451-4.63l-4.252,3.916l-4.526-3.59l-3.098,4.882
	l-5.303-2.287l-1.724,5.516l-5.717-0.842l-0.236,5.777l-5.745,0.669l0.176,6.074l-4.275,1.7l2.678,5.121l-4.631,3.445l3.916,4.251
	L34.92,71.4l4.882,3.094l-2.293,5.305l5.523,1.723l-0.843,5.723l5.771,0.236l0.669,5.739l5.643-1.262l2.131,5.37l5.121-2.68
	l3.453,4.635l4.251-3.916l4.526,3.584l3.092-4.877l5.311,2.286l1.723-5.517l5.721,0.84l0.238-5.775l5.734-0.67l-1.266-5.641
	l5.374-2.134L96.998,72.349z M80.621,52.451c0,0-0.993,2.554-2.633,6.312c-1.629,3.769-3.804,8.787-6.302,13.681
	c-0.633,1.245-1.271,2.49-1.896,3.714c-0.327,0.638-0.657,1.271-0.98,1.896l-0.016,0.029l-0.217,0.276l-0.035,0.05
	c-0.323,0.382-0.956,0.822-1.484,0.96c-0.554,0.186-1.174,0.177-1.646,0.08c-0.433-0.093-0.812-0.265-1.014-0.382
	c-0.912-0.567-1.054-0.867-1.316-1.136c-0.438-0.524-0.642-0.881-0.864-1.24c-0.804-1.396-1.24-2.583-1.525-3.799
	c-0.302-1.192-0.474-2.326-0.574-3.383c-0.212-2.112-0.101-3.923,0.067-5.212c0.155-1.287,0.402-2.053,0.402-2.053
	c0.063-0.202,0.276-0.312,0.478-0.248c0.055,0.018,0.105,0.05,0.143,0.084c0,0,0.587,0.55,1.379,1.557
	c0.802,1.006,1.828,2.463,2.812,4.249c0.498,0.89,0.993,1.862,1.454,2.877c0.007,0.011,0.011,0.023,0.017,0.034
	c0.207-0.292,0.414-0.583,0.623-0.868c3.062-4.442,6.224-8.897,8.595-12.235c2.345-3.353,3.972-5.559,3.972-5.559
	c0.104-0.146,0.312-0.176,0.452-0.071C80.634,52.159,80.677,52.317,80.621,52.451z"/>
<polygon opacity="0.6" fill="#FFFFFF" enable-background="new    " points="84.48,93.562 83.031,98.207 83.031,156.296 
	68.183,136.654 53.944,156.493 53.944,95.807 53.515,94.728 49.886,95.539 49.886,166.743 68.531,143.445 88.166,166.743 
	88.166,94.104 "/>
<polygon fill="#FFFFFF" points="77.246,97.443 74.012,102.545 69.277,98.795 64.832,102.892 61.221,98.043 57.767,99.852 
	57.767,141.933 67.844,127.893 78.459,141.933 78.459,97.965 "/>
</svg>
