<?xml version="1.0" encoding="UTF-8" standalone="no"?>
<!-- Generator: Adobe Illustrator 16.0.0, SVG Export Plug-In . SVG Version: 6.00 Build 0)  -->

<svg
   xmlns:dc="http://purl.org/dc/elements/1.1/"
   xmlns:cc="http://creativecommons.org/ns#"
   xmlns:rdf="http://www.w3.org/1999/02/22-rdf-syntax-ns#"
   xmlns:svg="http://www.w3.org/2000/svg"
   xmlns="http://www.w3.org/2000/svg"
   xmlns:sodipodi="http://sodipodi.sourceforge.net/DTD/sodipodi-0.dtd"
   xmlns:inkscape="http://www.inkscape.org/namespaces/inkscape"
   version="1.1"
   id="Layer_1"
   x="0px"
   y="0px"
   width="67.042"
   height="134.50101"
   viewBox="0 0 67.042 134.50101"
   enable-background="new 0 0 125 184"
   xml:space="preserve"
   inkscape:version="0.91 r13725"
   sodipodi:docname="ImplementAndReward_w.svg"><metadata
     id="metadata13"><rdf:RDF><cc:Work
         rdf:about=""><dc:format>image/svg+xml</dc:format><dc:type
           rdf:resource="http://purl.org/dc/dcmitype/StillImage" /><dc:title></dc:title></cc:Work></rdf:RDF></metadata><defs
     id="defs11" /><sodipodi:namedview
     pagecolor="#ffffff"
     bordercolor="#666666"
     borderopacity="1"
     objecttolerance="10"
     gridtolerance="10"
     guidetolerance="10"
     inkscape:pageopacity="0"
     inkscape:pageshadow="2"
     inkscape:window-width="664"
     inkscape:window-height="480"
     id="namedview9"
     showgrid="false"
     fit-margin-top="0"
     fit-margin-left="0"
     fit-margin-right="0"
     fit-margin-bottom="0"
     inkscape:zoom="1.2826087"
     inkscape:cx="140.95885"
     inkscape:cy="74.743"
     inkscape:window-x="20"
     inkscape:window-y="43"
     inkscape:window-maximized="0"
     inkscape:current-layer="Layer_1" /><path
     d="m 62.406,40.107 4.636,-3.453 -3.916,-4.246 3.583,-4.536 -4.879,-3.091 2.287,-5.304 -5.512,-1.727 0.83,-5.715 L 53.67,11.797 52.994,6.056 47.352,7.323 45.225,1.955 40.104,4.63 36.653,0 32.401,3.916 27.875,0.326 24.777,5.208 19.474,2.921 17.75,8.437 12.033,7.595 l -0.236,5.777 -5.745,0.669 0.176,6.074 -4.275,1.7 2.678,5.121 -4.631,3.445 3.916,4.251 -3.588,4.526 4.882,3.094 -2.293,5.305 5.523,1.723 -0.843,5.723 5.771,0.236 0.669,5.739 5.643,-1.262 2.131,5.37 5.121,-2.68 3.453,4.635 4.251,-3.916 4.526,3.584 3.092,-4.877 5.311,2.286 1.723,-5.517 5.721,0.84 0.238,-5.775 5.734,-0.67 -1.266,-5.641 5.374,-2.134 -2.683,-5.114 z M 46.029,20.209 c 0,0 -0.993,2.554 -2.633,6.312 -1.629,3.769 -3.804,8.787 -6.302,13.681 -0.633,1.245 -1.271,2.49 -1.896,3.714 -0.327,0.638 -0.657,1.271 -0.98,1.896 l -0.016,0.029 -0.217,0.276 -0.035,0.05 c -0.323,0.382 -0.956,0.822 -1.484,0.96 -0.554,0.186 -1.174,0.177 -1.646,0.08 -0.433,-0.093 -0.812,-0.265 -1.014,-0.382 -0.912,-0.567 -1.054,-0.867 -1.316,-1.136 -0.438,-0.524 -0.642,-0.881 -0.864,-1.24 -0.804,-1.396 -1.24,-2.583 -1.525,-3.799 -0.302,-1.192 -0.474,-2.326 -0.574,-3.383 -0.212,-2.112 -0.101,-3.923 0.067,-5.212 0.155,-1.287 0.402,-2.053 0.402,-2.053 0.063,-0.202 0.276,-0.312 0.478,-0.248 0.055,0.018 0.105,0.05 0.143,0.084 0,0 0.587,0.55 1.379,1.557 0.802,1.006 1.828,2.463 2.812,4.249 0.498,0.89 0.993,1.862 1.454,2.877 0.007,0.011 0.011,0.023 0.017,0.034 0.207,-0.292 0.414,-0.583 0.623,-0.868 3.062,-4.442 6.224,-8.897 8.595,-12.235 2.345,-3.353 3.972,-5.559 3.972,-5.559 0.104,-0.146 0.312,-0.176 0.452,-0.071 0.121,0.095 0.164,0.253 0.108,0.387 z"
     id="path3"
     inkscape:connector-curvature="0"
     style="fill:#ffffff" /><polygon
     enable-background="new    "
     points="68.183,136.654 53.944,156.493 53.944,95.807 53.515,94.728 49.886,95.539 49.886,166.743 68.531,143.445 88.166,166.743 88.166,94.104 84.48,93.562 83.031,98.207 83.031,156.296 "
     id="polygon5"
     style="opacity:0.6;fill:#ffffff"
     transform="translate(-34.592,-32.242)" /><polygon
     points="64.832,102.892 61.221,98.043 57.767,99.852 57.767,141.933 67.844,127.893 78.459,141.933 78.459,97.965 77.246,97.443 74.012,102.545 69.277,98.795 "
     id="polygon7"
     style="fill:#ffffff"
     transform="translate(-34.592,-32.242)" /></svg>